<?xml version="1.0" encoding="UTF-8" standalone="no"?>
<!DOCTYPE svg PUBLIC "-//W3C//DTD SVG 1.1//EN"
 "http://www.w3.org/Graphics/SVG/1.1/DTD/svg11.dtd">
<!-- Generated by graphviz version 9.0.0 (20230911.1827)
 -->
<!-- Title: /home/honeyguide/Desktop/MyOpenSource/facad/src/emoji_mappings.c Pages: 1 -->
<svg width="158pt" height="168pt"
 viewBox="0.00 0.00 158.25 167.75" xmlns="http://www.w3.org/2000/svg" xmlns:xlink="http://www.w3.org/1999/xlink">
<g id="graph0" class="graph" transform="scale(1 1) rotate(0) translate(4 163.75)">
<title>/home/honeyguide/Desktop/MyOpenSource/facad/src/emoji_mappings.c</title>
<!-- Node1 -->
<g id="Node000001" class="node">
<title>Node1</title>
<g id="a_Node000001"><a xlink:title=" ">
<polygon fill="#999999" stroke="#666666" points="150.25,-159.75 0,-159.75 0,-113.5 150.25,-113.5 150.25,-159.75"/>
<text text-anchor="start" x="8" y="-146.25" font-family="Helvetica,sans-Serif" font-size="10.00">/home/honeyguide/Desktop</text>
<text text-anchor="start" x="8" y="-133.5" font-family="Helvetica,sans-Serif" font-size="10.00">/MyOpenSource/facad/src</text>
<text text-anchor="middle" x="75.12" y="-120.75" font-family="Helvetica,sans-Serif" font-size="10.00">/emoji_mappings.c</text>
</a>
</g>
</g>
<!-- Node2 -->
<g id="Node000002" class="node">
<title>Node2</title>
<g id="a_Node000002"><a xlink:href="../../de/d86/emoji__mappings_8h.html" target="_top" xlink:title=" ">
<polygon fill="white" stroke="#666666" points="128.12,-77.5 22.12,-77.5 22.12,-56.75 128.12,-56.75 128.12,-77.5"/>
<text text-anchor="middle" x="75.12" y="-64" font-family="Helvetica,sans-Serif" font-size="10.00">emoji_mappings.h</text>
</a>
</g>
</g>
<!-- Node1&#45;&gt;Node2 -->
<g id="edge1_Node000001_Node000002" class="edge">
<title>Node1&#45;&gt;Node2</title>
<g id="a_edge1_Node000001_Node000002"><a xlink:title=" ">
<path fill="none" stroke="#63b8ff" d="M75.12,-113.15C75.12,-105.48 75.12,-96.94 75.12,-89.38"/>
<polygon fill="#63b8ff" stroke="#63b8ff" points="78.63,-89.4 75.13,-79.4 71.63,-89.4 78.63,-89.4"/>
</a>
</g>
</g>
<!-- Node3 -->
<g id="Node000003" class="node">
<title>Node3</title>
<g id="a_Node000003"><a xlink:title=" ">
<polygon fill="#e0e0e0" stroke="#999999" points="102.62,-20.75 47.62,-20.75 47.62,0 102.62,0 102.62,-20.75"/>
<text text-anchor="middle" x="75.12" y="-7.25" font-family="Helvetica,sans-Serif" font-size="10.00">stddef.h</text>
</a>
</g>
</g>
<!-- Node2&#45;&gt;Node3 -->
<g id="edge2_Node000002_Node000003" class="edge">
<title>Node2&#45;&gt;Node3</title>
<g id="a_edge2_Node000002_Node000003"><a xlink:title=" ">
<path fill="none" stroke="#63b8ff" d="M75.12,-56.34C75.12,-49.72 75.12,-40.72 75.12,-32.52"/>
<polygon fill="#63b8ff" stroke="#63b8ff" points="78.63,-32.59 75.13,-22.59 71.63,-32.59 78.63,-32.59"/>
</a>
</g>
</g>
</g>
</svg>
