<?xml version="1.0" encoding="UTF-8" standalone="no"?>
<!DOCTYPE svg PUBLIC "-//W3C//DTD SVG 1.1//EN"
 "http://www.w3.org/Graphics/SVG/1.1/DTD/svg11.dtd">
<!-- Generated by graphviz version 9.0.0 (20230911.1827)
 -->
<!-- Title: /home/honeyguide/Desktop/MyOpenSource/facad/src/git_utils.h Pages: 1 -->
<svg width="532pt" height="219pt"
 viewBox="0.00 0.00 532.25 218.75" xmlns="http://www.w3.org/2000/svg" xmlns:xlink="http://www.w3.org/1999/xlink">
<g id="graph0" class="graph" transform="scale(1 1) rotate(0) translate(4 214.75)">
<title>/home/honeyguide/Desktop/MyOpenSource/facad/src/git_utils.h</title>
<!-- Node1 -->
<g id="Node000001" class="node">
<title>Node1</title>
<g id="a_Node000001"><a xlink:title="Header file for Git utility functions used in facad.">
<polygon fill="#999999" stroke="#666666" points="369.25,-210.75 219,-210.75 219,-164.5 369.25,-164.5 369.25,-210.75"/>
<text text-anchor="start" x="227" y="-197.25" font-family="Helvetica,sans-Serif" font-size="10.00">/home/honeyguide/Desktop</text>
<text text-anchor="start" x="227" y="-184.5" font-family="Helvetica,sans-Serif" font-size="10.00">/MyOpenSource/facad/src</text>
<text text-anchor="middle" x="294.12" y="-171.75" font-family="Helvetica,sans-Serif" font-size="10.00">/git_utils.h</text>
</a>
</g>
</g>
<!-- Node2 -->
<g id="Node000002" class="node">
<title>Node2</title>
<g id="a_Node000002"><a xlink:href="../../d2/dda/display__utils_8c.html" target="_top" xlink:title="Implementation of display utilities for file entries.">
<polygon fill="white" stroke="#666666" points="150.25,-128.5 0,-128.5 0,-82.25 150.25,-82.25 150.25,-128.5"/>
<text text-anchor="start" x="8" y="-115" font-family="Helvetica,sans-Serif" font-size="10.00">/home/honeyguide/Desktop</text>
<text text-anchor="start" x="8" y="-102.25" font-family="Helvetica,sans-Serif" font-size="10.00">/MyOpenSource/facad/src</text>
<text text-anchor="middle" x="75.12" y="-89.5" font-family="Helvetica,sans-Serif" font-size="10.00">/display_utils.c</text>
</a>
</g>
</g>
<!-- Node1&#45;&gt;Node2 -->
<g id="edge1_Node000001_Node000002" class="edge">
<title>Node1&#45;&gt;Node2</title>
<g id="a_edge1_Node000001_Node000002"><a xlink:title=" ">
<path fill="none" stroke="#63b8ff" d="M221.77,-160.11C194.21,-150.01 163.09,-138.61 136.63,-128.91"/>
<polygon fill="#63b8ff" stroke="#63b8ff" points="220.52,-163.38 231.12,-163.54 222.93,-156.81 220.52,-163.38"/>
</a>
</g>
</g>
<!-- Node3 -->
<g id="Node000003" class="node">
<title>Node3</title>
<g id="a_Node000003"><a xlink:href="../../d1/dc4/git__integration_8h.html" target="_top" xlink:title="Header file for Git integration functionality.">
<polygon fill="white" stroke="#666666" points="318.25,-128.5 168,-128.5 168,-82.25 318.25,-82.25 318.25,-128.5"/>
<text text-anchor="start" x="176" y="-115" font-family="Helvetica,sans-Serif" font-size="10.00">/home/honeyguide/Desktop</text>
<text text-anchor="start" x="176" y="-102.25" font-family="Helvetica,sans-Serif" font-size="10.00">/MyOpenSource/facad/src</text>
<text text-anchor="middle" x="243.12" y="-89.5" font-family="Helvetica,sans-Serif" font-size="10.00">/git_integration.h</text>
</a>
</g>
</g>
<!-- Node1&#45;&gt;Node3 -->
<g id="edge2_Node000001_Node000003" class="edge">
<title>Node1&#45;&gt;Node3</title>
<g id="a_edge2_Node000001_Node000003"><a xlink:title=" ">
<path fill="none" stroke="#63b8ff" d="M273.9,-154.8C268.39,-146.13 262.54,-136.92 257.43,-128.89"/>
<polygon fill="#63b8ff" stroke="#63b8ff" points="270.79,-156.43 279.11,-162.99 276.7,-152.68 270.79,-156.43"/>
</a>
</g>
</g>
<!-- Node5 -->
<g id="Node000005" class="node">
<title>Node5</title>
<g id="a_Node000005"><a xlink:href="../../d0/d29/main_8c.html" target="_top" xlink:title="Main entry point for the facad directory listing tool.">
<polygon fill="white" stroke="#666666" points="434,-39.88 258.25,-39.88 258.25,-6.38 434,-6.38 434,-39.88"/>
<text text-anchor="start" x="266.25" y="-26.38" font-family="Helvetica,sans-Serif" font-size="10.00">/home/honeyguide/Desktop</text>
<text text-anchor="middle" x="346.12" y="-13.62" font-family="Helvetica,sans-Serif" font-size="10.00">/MyOpenSource/facad/src/main.c</text>
</a>
</g>
</g>
<!-- Node1&#45;&gt;Node5 -->
<g id="edge6_Node000001_Node000005" class="edge">
<title>Node1&#45;&gt;Node5</title>
<g id="a_edge6_Node000001_Node000005"><a xlink:title=" ">
<path fill="none" stroke="#63b8ff" d="M315.07,-154.19C319.61,-146.05 323.98,-137.17 327.12,-128.5 338.06,-98.38 342.91,-60.98 344.89,-40.12"/>
<polygon fill="#63b8ff" stroke="#63b8ff" points="312.12,-152.31 310.09,-162.71 318.16,-155.84 312.12,-152.31"/>
</a>
</g>
</g>
<!-- Node6 -->
<g id="Node000006" class="node">
<title>Node6</title>
<g id="a_Node000006"><a xlink:href="../../d1/db9/git__utils_8c.html" target="_top" xlink:title="Implementation of Git utility functions for facad.">
<polygon fill="white" stroke="#666666" points="524.25,-128.5 374,-128.5 374,-82.25 524.25,-82.25 524.25,-128.5"/>
<text text-anchor="start" x="382" y="-115" font-family="Helvetica,sans-Serif" font-size="10.00">/home/honeyguide/Desktop</text>
<text text-anchor="start" x="382" y="-102.25" font-family="Helvetica,sans-Serif" font-size="10.00">/MyOpenSource/facad/src</text>
<text text-anchor="middle" x="449.12" y="-89.5" font-family="Helvetica,sans-Serif" font-size="10.00">/git_utils.c</text>
</a>
</g>
</g>
<!-- Node1&#45;&gt;Node6 -->
<g id="edge5_Node000001_Node000006" class="edge">
<title>Node1&#45;&gt;Node6</title>
<g id="a_edge5_Node000001_Node000006"><a xlink:title=" ">
<path fill="none" stroke="#63b8ff" d="M347.68,-158.9C366.59,-149.11 387.61,-138.22 405.6,-128.91"/>
<polygon fill="#63b8ff" stroke="#63b8ff" points="346.33,-155.66 339.06,-163.36 349.55,-161.87 346.33,-155.66"/>
</a>
</g>
</g>
<!-- Node4 -->
<g id="Node000004" class="node">
<title>Node4</title>
<g id="a_Node000004"><a xlink:href="../../df/d77/git__integration_8c.html" target="_top" xlink:title="Implementation of Git integration for file entries.">
<polygon fill="white" stroke="#666666" points="240.25,-46.25 90,-46.25 90,0 240.25,0 240.25,-46.25"/>
<text text-anchor="start" x="98" y="-32.75" font-family="Helvetica,sans-Serif" font-size="10.00">/home/honeyguide/Desktop</text>
<text text-anchor="start" x="98" y="-20" font-family="Helvetica,sans-Serif" font-size="10.00">/MyOpenSource/facad/src</text>
<text text-anchor="middle" x="165.12" y="-7.25" font-family="Helvetica,sans-Serif" font-size="10.00">/git_integration.c</text>
</a>
</g>
</g>
<!-- Node3&#45;&gt;Node4 -->
<g id="edge3_Node000003_Node000004" class="edge">
<title>Node3&#45;&gt;Node4</title>
<g id="a_edge3_Node000003_Node000004"><a xlink:title=" ">
<path fill="none" stroke="#63b8ff" d="M213.55,-73.95C204.73,-64.88 195.24,-55.1 187.01,-46.64"/>
<polygon fill="#63b8ff" stroke="#63b8ff" points="210.86,-76.2 220.34,-80.94 215.88,-71.33 210.86,-76.2"/>
</a>
</g>
</g>
<!-- Node3&#45;&gt;Node5 -->
<g id="edge4_Node000003_Node000005" class="edge">
<title>Node3&#45;&gt;Node5</title>
<g id="a_edge4_Node000003_Node000005"><a xlink:title=" ">
<path fill="none" stroke="#63b8ff" d="M280.75,-75.06C295.88,-63.27 312.73,-50.15 325.53,-40.17"/>
<polygon fill="#63b8ff" stroke="#63b8ff" points="279.02,-71.97 273.28,-80.88 283.32,-77.49 279.02,-71.97"/>
</a>
</g>
</g>
</g>
</svg>
