<?xml version="1.0" encoding="UTF-8" standalone="no"?>
<!DOCTYPE svg PUBLIC "-//W3C//DTD SVG 1.1//EN"
 "http://www.w3.org/Graphics/SVG/1.1/DTD/svg11.dtd">
<!-- Generated by graphviz version 9.0.0 (20230911.1827)
 -->
<!-- Title: get_extension Pages: 1 -->
<svg width="324pt" height="29pt"
 viewBox="0.00 0.00 323.75 28.75" xmlns="http://www.w3.org/2000/svg" xmlns:xlink="http://www.w3.org/1999/xlink">
<g id="graph0" class="graph" transform="scale(1 1) rotate(0) translate(4 24.75)">
<title>get_extension</title>
<!-- Node1 -->
<g id="Node000001" class="node">
<title>Node1</title>
<g id="a_Node000001"><a xlink:title="Extracts the file extension from a filename.">
<polygon fill="#999999" stroke="#666666" points="315.75,-20.75 230.75,-20.75 230.75,0 315.75,0 315.75,-20.75"/>
<text text-anchor="middle" x="273.25" y="-7.25" font-family="Helvetica,sans-Serif" font-size="10.00">get_extension</text>
</a>
</g>
</g>
<!-- Node2 -->
<g id="Node000002" class="node">
<title>Node2</title>
<g id="a_Node000002"><a xlink:href="../../dd/d6c/file__card_8c.html#aaa0d8cd7d720e6b260615df1be0fdc7f" target="_top" xlink:title="Compare two file entries for sorting.">
<polygon fill="white" stroke="#666666" points="194.75,-20.75 76.75,-20.75 76.75,0 194.75,0 194.75,-20.75"/>
<text text-anchor="middle" x="135.75" y="-7.25" font-family="Helvetica,sans-Serif" font-size="10.00">compare_file_entries</text>
</a>
</g>
</g>
<!-- Node1&#45;&gt;Node2 -->
<g id="edge1_Node000001_Node000002" class="edge">
<title>Node1&#45;&gt;Node2</title>
<g id="a_edge1_Node000001_Node000002"><a xlink:title=" ">
<path fill="none" stroke="#63b8ff" d="M219.16,-10.38C211.25,-10.38 203.07,-10.38 195.06,-10.38"/>
<polygon fill="#63b8ff" stroke="#63b8ff" points="218.98,-13.88 228.98,-10.38 218.98,-6.88 218.98,-13.88"/>
</a>
</g>
</g>
<!-- Node3 -->
<g id="Node000003" class="node">
<title>Node3</title>
<g id="a_Node000003"><a xlink:href="../../d0/d29/main_8c.html#a0ddf1224851353fc92bfbff6f499fa97" target="_top" xlink:title="Main function of the facad program.">
<polygon fill="white" stroke="#666666" points="40.75,-20.75 0,-20.75 0,0 40.75,0 40.75,-20.75"/>
<text text-anchor="middle" x="20.38" y="-7.25" font-family="Helvetica,sans-Serif" font-size="10.00">main</text>
</a>
</g>
</g>
<!-- Node2&#45;&gt;Node3 -->
<g id="edge2_Node000002_Node000003" class="edge">
<title>Node2&#45;&gt;Node3</title>
<g id="a_edge2_Node000002_Node000003"><a xlink:title=" ">
<path fill="none" stroke="#63b8ff" d="M64.9,-10.38C56.28,-10.38 48.1,-10.38 41.2,-10.38"/>
<polygon fill="#63b8ff" stroke="#63b8ff" points="64.89,-13.88 74.89,-10.38 64.89,-6.88 64.89,-13.88"/>
</a>
</g>
</g>
</g>
</svg>
