<?xml version="1.0" encoding="UTF-8" standalone="no"?>
<!DOCTYPE svg PUBLIC "-//W3C//DTD SVG 1.1//EN"
 "http://www.w3.org/Graphics/SVG/1.1/DTD/svg11.dtd">
<!-- Generated by graphviz version 9.0.0 (20230911.1827)
 -->
<!-- Title: print_longlisting_files Pages: 1 -->
<!--zoomable 300 -->

<svg id="main" version="1.1" xmlns="http://www.w3.org/2000/svg" xmlns:xlink="http://www.w3.org/1999/xlink" xml:space="preserve" onload="init(evt)">
<style type="text/css"><![CDATA[
.node, .edge {opacity: 0.7;}
.node.selected, .edge.selected {opacity: 1;}
.edge:hover path { stroke: red; }
.edge:hover polygon { stroke: red; fill: red; }
]]></style>

<defs>
  <circle id="rim" cx="0" cy="0" r="7"/>
  <circle id="rim2" cx="0" cy="0" r="3.5"/>
  <g id="zoomPlus">
    <use xlink:href="#rim" fill="#404040"><set attributeName="fill" to="#808080" begin="zoomplus.mouseover" end="zoomplus.mouseout"/></use>
    <path d="M-4,0h8M0,-4v8" fill="none" stroke="white" stroke-width="1.5" pointer-events="none"/>
  </g>
  <g id="zoomMin">
    <use xlink:href="#rim" fill="#404040"><set attributeName="fill" to="#808080" begin="zoomminus.mouseover" end="zoomminus.mouseout"/></use>
    <path d="M-4,0h8" fill="none" stroke="white" stroke-width="1.5" pointer-events="none"/>
  </g>
  <g id="arrowUp" transform="translate(30 24)">
    <use xlink:href="#rim"/>
    <path pointer-events="none" fill="none" stroke="white" stroke-width="1.5" d="M0,-3.0v7 M-2.5,-0.5L0,-3.0L2.5,-0.5"/>
  </g>
  <g id="arrowRight" transform="rotate(90) translate(36 -43)">
    <use xlink:href="#rim"/>
    <path pointer-events="none" fill="none" stroke="white" stroke-width="1.5" d="M0,-3.0v7 M-2.5,-0.5L0,-3.0L2.5,-0.5"/>
  </g>
  <g id="arrowDown" transform="rotate(180) translate(-30 -48)">
    <use xlink:href="#rim"/>
    <path pointer-events="none" fill="none" stroke="white" stroke-width="1.5" d="M0,-3.0v7 M-2.5,-0.5L0,-3.0L2.5,-0.5"/>
  </g>
  <g id="arrowLeft" transform="rotate(270) translate(-36 17)">
    <use xlink:href="#rim"/>
    <path pointer-events="none" fill="none" stroke="white" stroke-width="1.5" d="M0,-3.0v7 M-2.5,-0.5L0,-3.0L2.5,-0.5"/>
  </g>
  <g id="resetDef">
    <use xlink:href="#rim2" fill="#404040"><set attributeName="fill" to="#808080" begin="reset.mouseover" end="reset.mouseout"/></use>
  </g>
</defs>
<script type="application/ecmascript">
var viewWidth = 666;
var viewHeight = 300;
var sectionId = 'dynsection-3';
</script>
<script type="application/ecmascript" xlink:href="../../svg.min.js"/>
<svg id="graph" class="graph">
<g id="viewport">
<title>print_longlisting_files</title>
<!-- Node1 -->
<g id="Node000001" class="node">
<title>Node1</title>
<g id="a_Node000001"><a xlink:title=" ">
<polygon fill="#999999" stroke="#666666" points="120.25,-195.75 0,-195.75 0,-175 120.25,-175 120.25,-195.75"/>
<text text-anchor="middle" x="60.12" y="-182.25" font-family="Helvetica,sans-Serif" font-size="10.00">print_longlisting_files</text>
</a>
</g>
</g>
<!-- Node2 -->
<g id="Node000002" class="node">
<title>Node2</title>
<g id="a_Node000002"><a xlink:href="../../d6/d95/longlisting_8c.html#a18cb88825df7452df9b5ce2309c887cf" target="_top" xlink:title="Comparison function for sorting file_info structures.">
<polygon fill="white" stroke="#666666" points="261.88,-234.75 164.12,-234.75 164.12,-214 261.88,-214 261.88,-234.75"/>
<text text-anchor="middle" x="213" y="-221.25" font-family="Helvetica,sans-Serif" font-size="10.00">compare_entries</text>
</a>
</g>
</g>
<!-- Node1&#45;&gt;Node2 -->
<g id="edge1_Node000001_Node000002" class="edge">
<title>Node1&#45;&gt;Node2</title>
<g id="a_edge1_Node000001_Node000002"><a xlink:title=" ">
<path fill="none" stroke="#63b8ff" d="M103.15,-196.24C120.41,-200.7 140.59,-205.92 158.86,-210.64"/>
<polygon fill="#63b8ff" stroke="#63b8ff" points="157.91,-214.01 168.47,-213.12 159.67,-207.23 157.91,-214.01"/>
</a>
</g>
</g>
<!-- Node3 -->
<g id="Node000003" class="node">
<title>Node3</title>
<g id="a_Node000003"><a xlink:href="../../d6/d95/longlisting_8c.html#a58ed2be9f460ed564cbd43d32e1ce658" target="_top" xlink:title="Gets detailed information about a file.">
<polygon fill="white" stroke="#666666" points="251,-195.75 175,-195.75 175,-175 251,-175 251,-195.75"/>
<text text-anchor="middle" x="213" y="-182.25" font-family="Helvetica,sans-Serif" font-size="10.00">get_file_info</text>
</a>
</g>
</g>
<!-- Node1&#45;&gt;Node3 -->
<g id="edge2_Node000001_Node000003" class="edge">
<title>Node1&#45;&gt;Node3</title>
<g id="a_edge2_Node000001_Node000003"><a xlink:title=" ">
<path fill="none" stroke="#63b8ff" d="M120.32,-185.38C134.64,-185.38 149.78,-185.38 163.54,-185.38"/>
<polygon fill="#63b8ff" stroke="#63b8ff" points="163.21,-188.88 173.21,-185.38 163.21,-181.88 163.21,-188.88"/>
</a>
</g>
</g>
<!-- Node8 -->
<g id="Node000008" class="node">
<title>Node8</title>
<g id="a_Node000008"><a xlink:href="../../d6/d95/longlisting_8c.html#a33c3f39ac9dd42760160e6cf451aed2a" target="_top" xlink:title="Prints sorted entries in a detailed format.">
<polygon fill="white" stroke="#666666" points="269.75,-117.75 156.25,-117.75 156.25,-97 269.75,-97 269.75,-117.75"/>
<text text-anchor="middle" x="213" y="-104.25" font-family="Helvetica,sans-Serif" font-size="10.00">print_sorted_entries</text>
</a>
</g>
</g>
<!-- Node1&#45;&gt;Node8 -->
<g id="edge8_Node000001_Node000008" class="edge">
<title>Node1&#45;&gt;Node8</title>
<g id="a_edge8_Node000001_Node000008"><a xlink:title=" ">
<path fill="none" stroke="#63b8ff" d="M82.1,-174.53C107.78,-161.26 151.47,-138.67 181.01,-123.39"/>
<polygon fill="#63b8ff" stroke="#63b8ff" points="182.58,-126.53 189.86,-118.82 179.36,-120.31 182.58,-126.53"/>
</a>
</g>
</g>
<!-- Node4 -->
<g id="Node000004" class="node">
<title>Node4</title>
<g id="a_Node000004"><a xlink:href="../../d6/d95/longlisting_8c.html#a066e44c22599f18b5e86355f71992743" target="_top" xlink:title="Counts the number of subdirectories in a given directory.">
<polygon fill="white" stroke="#666666" points="397.5,-291.75 314,-291.75 314,-271 397.5,-271 397.5,-291.75"/>
<text text-anchor="middle" x="355.75" y="-278.25" font-family="Helvetica,sans-Serif" font-size="10.00">count_subdirs</text>
</a>
</g>
</g>
<!-- Node3&#45;&gt;Node4 -->
<g id="edge3_Node000003_Node000004" class="edge">
<title>Node3&#45;&gt;Node4</title>
<g id="a_edge3_Node000003_Node000004"><a xlink:title=" ">
<path fill="none" stroke="#63b8ff" d="M251.48,-194.97C257.97,-197.67 264.36,-201.09 269.75,-205.38 292.91,-223.79 283,-242.46 305.75,-261.38 307.39,-262.74 309.14,-264.02 310.96,-265.23"/>
<polygon fill="#63b8ff" stroke="#63b8ff" points="308.78,-268.01 319.21,-269.86 312.2,-261.91 308.78,-268.01"/>
</a>
</g>
</g>
<!-- Node5 -->
<g id="Node000005" class="node">
<title>Node5</title>
<g id="a_Node000005"><a xlink:href="../../d6/d95/longlisting_8c.html#a99a2816fdc6aa63a386b8b8aef593274" target="_top" xlink:title="Formats the time difference between now and a given time into a human&#45;readable string.">
<polygon fill="white" stroke="#666666" points="405.75,-252.75 305.75,-252.75 305.75,-232 405.75,-232 405.75,-252.75"/>
<text text-anchor="middle" x="355.75" y="-239.25" font-family="Helvetica,sans-Serif" font-size="10.00">format_time_ago</text>
</a>
</g>
</g>
<!-- Node3&#45;&gt;Node5 -->
<g id="edge4_Node000003_Node000005" class="edge">
<title>Node3&#45;&gt;Node5</title>
<g id="a_edge4_Node000003_Node000005"><a xlink:title=" ">
<path fill="none" stroke="#63b8ff" d="M245.75,-196.17C253.65,-199.01 262.06,-202.19 269.75,-205.38 286.1,-212.15 289.55,-215.25 305.75,-222.38 309.35,-223.96 313.11,-225.57 316.89,-227.16"/>
<polygon fill="#63b8ff" stroke="#63b8ff" points="315.45,-230.35 326.03,-230.95 318.13,-223.88 315.45,-230.35"/>
</a>
</g>
</g>
<!-- Node6 -->
<g id="Node000006" class="node">
<title>Node6</title>
<g id="a_Node000006"><a xlink:href="../../d6/d95/longlisting_8c.html#ae8e2a8859c427dba11908d8e975d8bc7" target="_top" xlink:title="Calculates the total size of a directory and its contents.">
<polygon fill="white" stroke="#666666" points="393,-195.75 318.5,-195.75 318.5,-175 393,-175 393,-195.75"/>
<text text-anchor="middle" x="355.75" y="-182.25" font-family="Helvetica,sans-Serif" font-size="10.00">get_dir_size</text>
</a>
</g>
</g>
<!-- Node3&#45;&gt;Node6 -->
<g id="edge5_Node000003_Node000006" class="edge">
<title>Node3&#45;&gt;Node6</title>
<g id="a_edge5_Node000003_Node000006"><a xlink:title=" ">
<path fill="none" stroke="#63b8ff" d="M251.35,-185.38C268.32,-185.38 288.6,-185.38 306.69,-185.38"/>
<polygon fill="#63b8ff" stroke="#63b8ff" points="306.69,-188.88 316.69,-185.38 306.69,-181.88 306.69,-188.88"/>
</a>
</g>
</g>
<!-- Node7 -->
<g id="Node000007" class="node">
<title>Node7</title>
<g id="a_Node000007"><a xlink:href="../../d6/d95/longlisting_8c.html#a2d5dc342b560667bf07ec576e99ed3d9" target="_top" xlink:title="Converts file permissions to a string of emojis representing user rights.">
<polygon fill="white" stroke="#666666" points="401.25,-156.75 310.25,-156.75 310.25,-136 401.25,-136 401.25,-156.75"/>
<text text-anchor="middle" x="355.75" y="-143.25" font-family="Helvetica,sans-Serif" font-size="10.00">get_user_rights</text>
</a>
</g>
</g>
<!-- Node3&#45;&gt;Node7 -->
<g id="edge7_Node000003_Node000007" class="edge">
<title>Node3&#45;&gt;Node7</title>
<g id="a_edge7_Node000003_Node000007"><a xlink:title=" ">
<path fill="none" stroke="#63b8ff" d="M251.35,-175.03C267.73,-170.49 287.19,-165.09 304.79,-160.22"/>
<polygon fill="#63b8ff" stroke="#63b8ff" points="305.59,-163.63 314.29,-157.59 303.72,-156.88 305.59,-163.63"/>
</a>
</g>
</g>
<!-- Node6&#45;&gt;Node6 -->
<g id="edge6_Node000006_Node000006" class="edge">
<title>Node6&#45;&gt;Node6</title>
<g id="a_edge6_Node000006_Node000006"><a xlink:title=" ">
<path fill="none" stroke="#63b8ff" d="M333.29,-196.15C324.31,-204.81 331.79,-213.75 355.75,-213.75 368.85,-213.75 377.03,-211.08 380.27,-207.24"/>
<polygon fill="#63b8ff" stroke="#63b8ff" points="383.76,-206.82 378.49,-197.64 376.88,-208.11 383.76,-206.82"/>
</a>
</g>
</g>
<!-- Node9 -->
<g id="Node000009" class="node">
<title>Node9</title>
<g id="a_Node000009"><a xlink:href="../../d6/d95/longlisting_8c.html#a33a98d6f57285ecc9ccbd6c2f2b4fd9d" target="_top" xlink:title="Formats a file size into a human&#45;readable string.">
<polygon fill="white" stroke="#666666" points="392.62,-117.75 318.88,-117.75 318.88,-97 392.62,-97 392.62,-117.75"/>
<text text-anchor="middle" x="355.75" y="-104.25" font-family="Helvetica,sans-Serif" font-size="10.00">format_size</text>
</a>
</g>
</g>
<!-- Node8&#45;&gt;Node9 -->
<g id="edge9_Node000008_Node000009" class="edge">
<title>Node8&#45;&gt;Node9</title>
<g id="a_edge9_Node000008_Node000009"><a xlink:title=" ">
<path fill="none" stroke="#63b8ff" d="M270.03,-107.38C282.46,-107.38 295.52,-107.38 307.56,-107.38"/>
<polygon fill="#63b8ff" stroke="#63b8ff" points="307.22,-110.88 317.22,-107.38 307.22,-103.88 307.22,-110.88"/>
</a>
</g>
</g>
<!-- Node10 -->
<g id="Node000010" class="node">
<title>Node10</title>
<g id="a_Node000010"><a xlink:href="../../d0/dc9/emoji__utils_8c.html#a853b78da7b6116949e96148e040669d5" target="_top" xlink:title="Determines the appropriate emoji for a given file based on its characteristics.">
<polygon fill="white" stroke="#666666" points="388.12,-78.75 323.38,-78.75 323.38,-58 388.12,-58 388.12,-78.75"/>
<text text-anchor="middle" x="355.75" y="-65.25" font-family="Helvetica,sans-Serif" font-size="10.00">get_emoji</text>
</a>
</g>
</g>
<!-- Node8&#45;&gt;Node10 -->
<g id="edge10_Node000008_Node000010" class="edge">
<title>Node8&#45;&gt;Node10</title>
<g id="a_edge10_Node000008_Node000010"><a xlink:title=" ">
<path fill="none" stroke="#63b8ff" d="M253.21,-96.51C271.62,-91.41 293.59,-85.32 312.38,-80.12"/>
<polygon fill="#63b8ff" stroke="#63b8ff" points="313.16,-83.53 321.86,-77.49 311.29,-76.79 313.16,-83.53"/>
</a>
</g>
</g>
<!-- Node11 -->
<g id="Node000011" class="node">
<title>Node11</title>
<g id="a_Node000011"><a xlink:href="../../d0/dc9/emoji__utils_8c.html#a5079b8c3657f088d68ae41fee9b299e3" target="_top" xlink:title="Checks the file content for specific patterns to determine the file type.">
<polygon fill="white" stroke="#666666" points="548.5,-135.75 441.75,-135.75 441.75,-115 548.5,-115 548.5,-135.75"/>
<text text-anchor="middle" x="495.12" y="-122.25" font-family="Helvetica,sans-Serif" font-size="10.00">check_file_content</text>
</a>
</g>
</g>
<!-- Node10&#45;&gt;Node11 -->
<g id="edge11_Node000010_Node000011" class="edge">
<title>Node10&#45;&gt;Node11</title>
<g id="a_edge11_Node000010_Node000011"><a xlink:title=" ">
<path fill="none" stroke="#63b8ff" d="M383.47,-79.23C390.71,-82.18 398.53,-85.39 405.75,-88.38 422.99,-95.5 442.08,-103.48 458.09,-110.2"/>
<polygon fill="#63b8ff" stroke="#63b8ff" points="456.66,-113.4 467.23,-114.04 459.37,-106.94 456.66,-113.4"/>
</a>
</g>
</g>
<!-- Node12 -->
<g id="Node000012" class="node">
<title>Node12</title>
<g id="a_Node000012"><a xlink:href="../../d0/dc9/emoji__utils_8c.html#a515d3420e13a8688464ad3b3c89c2ffb" target="_top" xlink:title="Safely duplicates a string, handling memory allocation errors.">
<polygon fill="white" stroke="#666666" points="657.5,-116.75 584.5,-116.75 584.5,-96 657.5,-96 657.5,-116.75"/>
<text text-anchor="middle" x="621" y="-103.25" font-family="Helvetica,sans-Serif" font-size="10.00">safe_strdup</text>
</a>
</g>
</g>
<!-- Node10&#45;&gt;Node12 -->
<g id="edge15_Node000010_Node000012" class="edge">
<title>Node10&#45;&gt;Node12</title>
<g id="a_edge15_Node000010_Node000012"><a xlink:title=" ">
<path fill="none" stroke="#63b8ff" d="M388.5,-72.96C434.5,-79.6 519.95,-91.93 573.18,-99.62"/>
<polygon fill="#63b8ff" stroke="#63b8ff" points="572.46,-103.05 582.85,-101.01 573.46,-96.12 572.46,-103.05"/>
</a>
</g>
</g>
<!-- Node13 -->
<g id="Node000013" class="node">
<title>Node13</title>
<g id="a_Node000013"><a xlink:href="../../d0/dc9/emoji__utils_8c.html#adcfc0049feddf60eec27fe2572291a2e" target="_top" xlink:title="Checks if a file is executable.">
<polygon fill="white" stroke="#666666" points="536.5,-59.75 453.75,-59.75 453.75,-39 536.5,-39 536.5,-59.75"/>
<text text-anchor="middle" x="495.12" y="-46.25" font-family="Helvetica,sans-Serif" font-size="10.00">is_executable</text>
</a>
</g>
</g>
<!-- Node10&#45;&gt;Node13 -->
<g id="edge13_Node000010_Node000013" class="edge">
<title>Node10&#45;&gt;Node13</title>
<g id="a_edge13_Node000010_Node000013"><a xlink:title=" ">
<path fill="none" stroke="#63b8ff" d="M388.61,-63.97C404.49,-61.77 424.09,-59.06 442.07,-56.57"/>
<polygon fill="#63b8ff" stroke="#63b8ff" points="442.38,-60.07 451.8,-55.23 441.42,-53.13 442.38,-60.07"/>
</a>
</g>
</g>
<!-- Node14 -->
<g id="Node000014" class="node">
<title>Node14</title>
<g id="a_Node000014"><a xlink:href="../../d0/dc9/emoji__utils_8c.html#a3bfec7595ef6d300266b38d3a17b039e" target="_top" xlink:title="Checks if a file is a text file by examining its contents.">
<polygon fill="white" stroke="#666666" points="529.75,-20.75 460.5,-20.75 460.5,0 529.75,0 529.75,-20.75"/>
<text text-anchor="middle" x="495.12" y="-7.25" font-family="Helvetica,sans-Serif" font-size="10.00">is_text_file</text>
</a>
</g>
</g>
<!-- Node10&#45;&gt;Node14 -->
<g id="edge14_Node000010_Node000014" class="edge">
<title>Node10&#45;&gt;Node14</title>
<g id="a_edge14_Node000010_Node000014"><a xlink:title=" ">
<path fill="none" stroke="#63b8ff" d="M380.05,-57.54C397.05,-49.74 420.69,-39.09 441.75,-30.38 445.83,-28.68 450.11,-26.97 454.39,-25.28"/>
<polygon fill="#63b8ff" stroke="#63b8ff" points="455.45,-28.62 463.51,-21.74 452.92,-22.1 455.45,-28.62"/>
</a>
</g>
</g>
<!-- Node11&#45;&gt;Node12 -->
<g id="edge12_Node000011_Node000012" class="edge">
<title>Node11&#45;&gt;Node12</title>
<g id="a_edge12_Node000011_Node000012"><a xlink:title=" ">
<path fill="none" stroke="#63b8ff" d="M548.66,-117.32C556.72,-116.08 565,-114.81 572.94,-113.59"/>
<polygon fill="#63b8ff" stroke="#63b8ff" points="573.4,-117.06 582.75,-112.09 572.34,-110.14 573.4,-117.06"/>
</a>
</g>
</g>
</g>
</svg>

<g id="navigator" transform="translate(0 0)" fill="#404254">
  <rect fill="#f2f5e9" fill-opacity="0.5" stroke="#606060" stroke-width=".5" x="0" y="0" width="60" height="60"/>
  <use id="zoomplus" xlink:href="#zoomPlus" x="17" y="9" onmousedown="handleZoom(evt,'in')"/>
  <use id="zoomminus" xlink:href="#zoomMin" x="42" y="9" onmousedown="handleZoom(evt,'out')"/>
  <use id="reset" xlink:href="#resetDef" x="30" y="36" onmousedown="handleReset()"/>
   <use id="arrowup" xlink:href="#arrowUp" x="0" y="0" onmousedown="handlePan(0,-1)"/>
  <use id="arrowright" xlink:href="#arrowRight" x="0" y="0" onmousedown="handlePan(1,0)"/>
  <use id="arrowdown" xlink:href="#arrowDown" x="0" y="0" onmousedown="handlePan(0,1)"/>
  <use id="arrowleft" xlink:href="#arrowLeft" x="0" y="0" onmousedown="handlePan(-1,0)"/>
</g>
<svg viewBox="0 0 15 15" width="100%" height="30px" preserveAspectRatio="xMaxYMin meet">
 <g id="arrow_out" transform="scale(0.3 0.3)">
  <a xlink:href="longlisting_8h_a1af2c63d6b774640dcf8f6b3127dfa47_cgraph_org.svg" target="_base">
   <rect id="button" ry="5" rx="5" y="6" x="6" height="38" width="38"
        fill="#f2f5e9" fill-opacity="0.5" stroke="#606060" stroke-width="1.0"/>
   <path id="arrow"
     d="M 11.500037,31.436501 C 11.940474,20.09759 22.043105,11.32322 32.158766,21.979434 L 37.068811,17.246167 C 37.068811,17.246167 37.088388,32 37.088388,32 L 22.160133,31.978069 C 22.160133,31.978069 26.997745,27.140456 26.997745,27.140456 C 18.528582,18.264221 13.291696,25.230495 11.500037,31.436501 z"
     style="fill:#404040;"/>
  </a>
 </g>
</svg>

<style type='text/css'>
<![CDATA[
[data-mouse-over-selected='false'] { opacity: 0.7; }
[data-mouse-over-selected='true']  { opacity: 1.0; }
]]>
</style>
<script type="application/ecmascript"><![CDATA[
document.addEventListener('DOMContentLoaded', (event) => {
  highlightEdges();
  highlightAdjacentNodes();
});
]]></script>
</svg>
