<?xml version="1.0" encoding="UTF-8" standalone="no"?>
<!DOCTYPE svg PUBLIC "-//W3C//DTD SVG 1.1//EN"
 "http://www.w3.org/Graphics/SVG/1.1/DTD/svg11.dtd">
<!-- Generated by graphviz version 9.0.0 (20230911.1827)
 -->
<!-- Title: print_longlisting Pages: 1 -->
<svg width="640pt" height="300pt"
 viewBox="0.00 0.00 640.00 299.75" xmlns="http://www.w3.org/2000/svg" xmlns:xlink="http://www.w3.org/1999/xlink">
<g id="graph0" class="graph" transform="scale(1 1) rotate(0) translate(4 295.75)">
<title>print_longlisting</title>
<!-- Node1 -->
<g id="Node000001" class="node">
<title>Node1</title>
<g id="a_Node000001"><a xlink:title="Prints a detailed listing of the contents of a directory.">
<polygon fill="#999999" stroke="#666666" points="94.75,-195.75 0,-195.75 0,-175 94.75,-175 94.75,-195.75"/>
<text text-anchor="middle" x="47.38" y="-182.25" font-family="Helvetica,sans-Serif" font-size="10.00">print_longlisting</text>
</a>
</g>
</g>
<!-- Node2 -->
<g id="Node000002" class="node">
<title>Node2</title>
<g id="a_Node000002"><a xlink:href="../../d6/d95/longlisting_8c.html#a18cb88825df7452df9b5ce2309c887cf" target="_top" xlink:title="Comparison function for sorting file_info structures.">
<polygon fill="white" stroke="#666666" points="236.38,-234.75 138.62,-234.75 138.62,-214 236.38,-214 236.38,-234.75"/>
<text text-anchor="middle" x="187.5" y="-221.25" font-family="Helvetica,sans-Serif" font-size="10.00">compare_entries</text>
</a>
</g>
</g>
<!-- Node1&#45;&gt;Node2 -->
<g id="edge1_Node000001_Node000002" class="edge">
<title>Node1&#45;&gt;Node2</title>
<g id="a_edge1_Node000001_Node000002"><a xlink:title=" ">
<path fill="none" stroke="#63b8ff" d="M86.85,-196.24C102.57,-200.68 120.93,-205.86 137.58,-210.56"/>
<polygon fill="#63b8ff" stroke="#63b8ff" points="136.2,-213.81 146.77,-213.16 138.1,-207.07 136.2,-213.81"/>
</a>
</g>
</g>
<!-- Node3 -->
<g id="Node000003" class="node">
<title>Node3</title>
<g id="a_Node000003"><a xlink:href="../../d6/d95/longlisting_8c.html#a58ed2be9f460ed564cbd43d32e1ce658" target="_top" xlink:title="Gets detailed information about a file.">
<polygon fill="white" stroke="#666666" points="225.5,-195.75 149.5,-195.75 149.5,-175 225.5,-175 225.5,-195.75"/>
<text text-anchor="middle" x="187.5" y="-182.25" font-family="Helvetica,sans-Serif" font-size="10.00">get_file_info</text>
</a>
</g>
</g>
<!-- Node1&#45;&gt;Node3 -->
<g id="edge2_Node000001_Node000003" class="edge">
<title>Node1&#45;&gt;Node3</title>
<g id="a_edge2_Node000001_Node000003"><a xlink:title=" ">
<path fill="none" stroke="#63b8ff" d="M95.14,-185.38C108.96,-185.38 124.11,-185.38 138.03,-185.38"/>
<polygon fill="#63b8ff" stroke="#63b8ff" points="137.87,-188.88 147.87,-185.38 137.87,-181.88 137.87,-188.88"/>
</a>
</g>
</g>
<!-- Node8 -->
<g id="Node000008" class="node">
<title>Node8</title>
<g id="a_Node000008"><a xlink:href="../../d6/d95/longlisting_8c.html#a33c3f39ac9dd42760160e6cf451aed2a" target="_top" xlink:title="Prints sorted entries in a detailed format.">
<polygon fill="white" stroke="#666666" points="244.25,-117.75 130.75,-117.75 130.75,-97 244.25,-97 244.25,-117.75"/>
<text text-anchor="middle" x="187.5" y="-104.25" font-family="Helvetica,sans-Serif" font-size="10.00">print_sorted_entries</text>
</a>
</g>
</g>
<!-- Node1&#45;&gt;Node8 -->
<g id="edge8_Node000001_Node000008" class="edge">
<title>Node1&#45;&gt;Node8</title>
<g id="a_edge8_Node000001_Node000008"><a xlink:title=" ">
<path fill="none" stroke="#63b8ff" d="M67.58,-174.53C90.98,-161.32 130.73,-138.87 157.78,-123.6"/>
<polygon fill="#63b8ff" stroke="#63b8ff" points="159.15,-126.84 166.14,-118.87 155.71,-120.74 159.15,-126.84"/>
</a>
</g>
</g>
<!-- Node4 -->
<g id="Node000004" class="node">
<title>Node4</title>
<g id="a_Node000004"><a xlink:href="../../d6/d95/longlisting_8c.html#a066e44c22599f18b5e86355f71992743" target="_top" xlink:title="Counts the number of subdirectories in a given directory.">
<polygon fill="white" stroke="#666666" points="372,-291.75 288.5,-291.75 288.5,-271 372,-271 372,-291.75"/>
<text text-anchor="middle" x="330.25" y="-278.25" font-family="Helvetica,sans-Serif" font-size="10.00">count_subdirs</text>
</a>
</g>
</g>
<!-- Node3&#45;&gt;Node4 -->
<g id="edge3_Node000003_Node000004" class="edge">
<title>Node3&#45;&gt;Node4</title>
<g id="a_edge3_Node000003_Node000004"><a xlink:title=" ">
<path fill="none" stroke="#63b8ff" d="M225.98,-194.97C232.47,-197.67 238.86,-201.09 244.25,-205.38 267.41,-223.79 257.5,-242.46 280.25,-261.38 281.89,-262.74 283.64,-264.02 285.46,-265.23"/>
<polygon fill="#63b8ff" stroke="#63b8ff" points="283.28,-268.01 293.71,-269.86 286.7,-261.91 283.28,-268.01"/>
</a>
</g>
</g>
<!-- Node5 -->
<g id="Node000005" class="node">
<title>Node5</title>
<g id="a_Node000005"><a xlink:href="../../d6/d95/longlisting_8c.html#a99a2816fdc6aa63a386b8b8aef593274" target="_top" xlink:title="Formats the time difference between now and a given time into a human&#45;readable string.">
<polygon fill="white" stroke="#666666" points="380.25,-252.75 280.25,-252.75 280.25,-232 380.25,-232 380.25,-252.75"/>
<text text-anchor="middle" x="330.25" y="-239.25" font-family="Helvetica,sans-Serif" font-size="10.00">format_time_ago</text>
</a>
</g>
</g>
<!-- Node3&#45;&gt;Node5 -->
<g id="edge4_Node000003_Node000005" class="edge">
<title>Node3&#45;&gt;Node5</title>
<g id="a_edge4_Node000003_Node000005"><a xlink:title=" ">
<path fill="none" stroke="#63b8ff" d="M220.25,-196.17C228.15,-199.01 236.56,-202.19 244.25,-205.38 260.6,-212.15 264.05,-215.25 280.25,-222.38 283.85,-223.96 287.61,-225.57 291.39,-227.16"/>
<polygon fill="#63b8ff" stroke="#63b8ff" points="289.95,-230.35 300.53,-230.95 292.63,-223.88 289.95,-230.35"/>
</a>
</g>
</g>
<!-- Node6 -->
<g id="Node000006" class="node">
<title>Node6</title>
<g id="a_Node000006"><a xlink:href="../../d6/d95/longlisting_8c.html#ae8e2a8859c427dba11908d8e975d8bc7" target="_top" xlink:title="Calculates the total size of a directory and its contents.">
<polygon fill="white" stroke="#666666" points="367.5,-195.75 293,-195.75 293,-175 367.5,-175 367.5,-195.75"/>
<text text-anchor="middle" x="330.25" y="-182.25" font-family="Helvetica,sans-Serif" font-size="10.00">get_dir_size</text>
</a>
</g>
</g>
<!-- Node3&#45;&gt;Node6 -->
<g id="edge5_Node000003_Node000006" class="edge">
<title>Node3&#45;&gt;Node6</title>
<g id="a_edge5_Node000003_Node000006"><a xlink:title=" ">
<path fill="none" stroke="#63b8ff" d="M225.85,-185.38C242.82,-185.38 263.1,-185.38 281.19,-185.38"/>
<polygon fill="#63b8ff" stroke="#63b8ff" points="281.19,-188.88 291.19,-185.38 281.19,-181.88 281.19,-188.88"/>
</a>
</g>
</g>
<!-- Node7 -->
<g id="Node000007" class="node">
<title>Node7</title>
<g id="a_Node000007"><a xlink:href="../../d6/d95/longlisting_8c.html#a2d5dc342b560667bf07ec576e99ed3d9" target="_top" xlink:title="Converts file permissions to a string of emojis representing user rights.">
<polygon fill="white" stroke="#666666" points="375.75,-156.75 284.75,-156.75 284.75,-136 375.75,-136 375.75,-156.75"/>
<text text-anchor="middle" x="330.25" y="-143.25" font-family="Helvetica,sans-Serif" font-size="10.00">get_user_rights</text>
</a>
</g>
</g>
<!-- Node3&#45;&gt;Node7 -->
<g id="edge7_Node000003_Node000007" class="edge">
<title>Node3&#45;&gt;Node7</title>
<g id="a_edge7_Node000003_Node000007"><a xlink:title=" ">
<path fill="none" stroke="#63b8ff" d="M225.85,-175.03C242.23,-170.49 261.69,-165.09 279.29,-160.22"/>
<polygon fill="#63b8ff" stroke="#63b8ff" points="280.09,-163.63 288.79,-157.59 278.22,-156.88 280.09,-163.63"/>
</a>
</g>
</g>
<!-- Node6&#45;&gt;Node6 -->
<g id="edge6_Node000006_Node000006" class="edge">
<title>Node6&#45;&gt;Node6</title>
<g id="a_edge6_Node000006_Node000006"><a xlink:title=" ">
<path fill="none" stroke="#63b8ff" d="M307.79,-196.15C298.81,-204.81 306.29,-213.75 330.25,-213.75 343.35,-213.75 351.53,-211.08 354.77,-207.24"/>
<polygon fill="#63b8ff" stroke="#63b8ff" points="358.26,-206.82 352.99,-197.64 351.38,-208.11 358.26,-206.82"/>
</a>
</g>
</g>
<!-- Node9 -->
<g id="Node000009" class="node">
<title>Node9</title>
<g id="a_Node000009"><a xlink:href="../../d6/d95/longlisting_8c.html#a33a98d6f57285ecc9ccbd6c2f2b4fd9d" target="_top" xlink:title="Formats a file size into a human&#45;readable string.">
<polygon fill="white" stroke="#666666" points="367.12,-117.75 293.38,-117.75 293.38,-97 367.12,-97 367.12,-117.75"/>
<text text-anchor="middle" x="330.25" y="-104.25" font-family="Helvetica,sans-Serif" font-size="10.00">format_size</text>
</a>
</g>
</g>
<!-- Node8&#45;&gt;Node9 -->
<g id="edge9_Node000008_Node000009" class="edge">
<title>Node8&#45;&gt;Node9</title>
<g id="a_edge9_Node000008_Node000009"><a xlink:title=" ">
<path fill="none" stroke="#63b8ff" d="M244.53,-107.38C256.96,-107.38 270.02,-107.38 282.06,-107.38"/>
<polygon fill="#63b8ff" stroke="#63b8ff" points="281.72,-110.88 291.72,-107.38 281.72,-103.88 281.72,-110.88"/>
</a>
</g>
</g>
<!-- Node10 -->
<g id="Node000010" class="node">
<title>Node10</title>
<g id="a_Node000010"><a xlink:href="../../d0/dc9/emoji__utils_8c.html#a853b78da7b6116949e96148e040669d5" target="_top" xlink:title="Determines the appropriate emoji for a given file based on its characteristics.">
<polygon fill="white" stroke="#666666" points="362.62,-78.75 297.88,-78.75 297.88,-58 362.62,-58 362.62,-78.75"/>
<text text-anchor="middle" x="330.25" y="-65.25" font-family="Helvetica,sans-Serif" font-size="10.00">get_emoji</text>
</a>
</g>
</g>
<!-- Node8&#45;&gt;Node10 -->
<g id="edge10_Node000008_Node000010" class="edge">
<title>Node8&#45;&gt;Node10</title>
<g id="a_edge10_Node000008_Node000010"><a xlink:title=" ">
<path fill="none" stroke="#63b8ff" d="M227.71,-96.51C246.12,-91.41 268.09,-85.32 286.88,-80.12"/>
<polygon fill="#63b8ff" stroke="#63b8ff" points="287.66,-83.53 296.36,-77.49 285.79,-76.79 287.66,-83.53"/>
</a>
</g>
</g>
<!-- Node11 -->
<g id="Node000011" class="node">
<title>Node11</title>
<g id="a_Node000011"><a xlink:href="../../d0/dc9/emoji__utils_8c.html#a5079b8c3657f088d68ae41fee9b299e3" target="_top" xlink:title="Checks the file content for specific patterns to determine the file type.">
<polygon fill="white" stroke="#666666" points="523,-135.75 416.25,-135.75 416.25,-115 523,-115 523,-135.75"/>
<text text-anchor="middle" x="469.62" y="-122.25" font-family="Helvetica,sans-Serif" font-size="10.00">check_file_content</text>
</a>
</g>
</g>
<!-- Node10&#45;&gt;Node11 -->
<g id="edge11_Node000010_Node000011" class="edge">
<title>Node10&#45;&gt;Node11</title>
<g id="a_edge11_Node000010_Node000011"><a xlink:title=" ">
<path fill="none" stroke="#63b8ff" d="M357.97,-79.23C365.21,-82.18 373.03,-85.39 380.25,-88.38 397.49,-95.5 416.58,-103.48 432.59,-110.2"/>
<polygon fill="#63b8ff" stroke="#63b8ff" points="431.16,-113.4 441.73,-114.04 433.87,-106.94 431.16,-113.4"/>
</a>
</g>
</g>
<!-- Node12 -->
<g id="Node000012" class="node">
<title>Node12</title>
<g id="a_Node000012"><a xlink:href="../../d0/dc9/emoji__utils_8c.html#a515d3420e13a8688464ad3b3c89c2ffb" target="_top" xlink:title="Safely duplicates a string, handling memory allocation errors.">
<polygon fill="white" stroke="#666666" points="632,-116.75 559,-116.75 559,-96 632,-96 632,-116.75"/>
<text text-anchor="middle" x="595.5" y="-103.25" font-family="Helvetica,sans-Serif" font-size="10.00">safe_strdup</text>
</a>
</g>
</g>
<!-- Node10&#45;&gt;Node12 -->
<g id="edge15_Node000010_Node000012" class="edge">
<title>Node10&#45;&gt;Node12</title>
<g id="a_edge15_Node000010_Node000012"><a xlink:title=" ">
<path fill="none" stroke="#63b8ff" d="M363,-72.96C409,-79.6 494.45,-91.93 547.68,-99.62"/>
<polygon fill="#63b8ff" stroke="#63b8ff" points="546.96,-103.05 557.35,-101.01 547.96,-96.12 546.96,-103.05"/>
</a>
</g>
</g>
<!-- Node13 -->
<g id="Node000013" class="node">
<title>Node13</title>
<g id="a_Node000013"><a xlink:href="../../d0/dc9/emoji__utils_8c.html#adcfc0049feddf60eec27fe2572291a2e" target="_top" xlink:title="Checks if a file is executable.">
<polygon fill="white" stroke="#666666" points="511,-59.75 428.25,-59.75 428.25,-39 511,-39 511,-59.75"/>
<text text-anchor="middle" x="469.62" y="-46.25" font-family="Helvetica,sans-Serif" font-size="10.00">is_executable</text>
</a>
</g>
</g>
<!-- Node10&#45;&gt;Node13 -->
<g id="edge13_Node000010_Node000013" class="edge">
<title>Node10&#45;&gt;Node13</title>
<g id="a_edge13_Node000010_Node000013"><a xlink:title=" ">
<path fill="none" stroke="#63b8ff" d="M363.11,-63.97C378.99,-61.77 398.59,-59.06 416.57,-56.57"/>
<polygon fill="#63b8ff" stroke="#63b8ff" points="416.88,-60.07 426.3,-55.23 415.92,-53.13 416.88,-60.07"/>
</a>
</g>
</g>
<!-- Node14 -->
<g id="Node000014" class="node">
<title>Node14</title>
<g id="a_Node000014"><a xlink:href="../../d0/dc9/emoji__utils_8c.html#a3bfec7595ef6d300266b38d3a17b039e" target="_top" xlink:title="Checks if a file is a text file by examining its contents.">
<polygon fill="white" stroke="#666666" points="504.25,-20.75 435,-20.75 435,0 504.25,0 504.25,-20.75"/>
<text text-anchor="middle" x="469.62" y="-7.25" font-family="Helvetica,sans-Serif" font-size="10.00">is_text_file</text>
</a>
</g>
</g>
<!-- Node10&#45;&gt;Node14 -->
<g id="edge14_Node000010_Node000014" class="edge">
<title>Node10&#45;&gt;Node14</title>
<g id="a_edge14_Node000010_Node000014"><a xlink:title=" ">
<path fill="none" stroke="#63b8ff" d="M354.55,-57.54C371.55,-49.74 395.19,-39.09 416.25,-30.38 420.33,-28.68 424.61,-26.97 428.89,-25.28"/>
<polygon fill="#63b8ff" stroke="#63b8ff" points="429.95,-28.62 438.01,-21.74 427.42,-22.1 429.95,-28.62"/>
</a>
</g>
</g>
<!-- Node11&#45;&gt;Node12 -->
<g id="edge12_Node000011_Node000012" class="edge">
<title>Node11&#45;&gt;Node12</title>
<g id="a_edge12_Node000011_Node000012"><a xlink:title=" ">
<path fill="none" stroke="#63b8ff" d="M523.16,-117.32C531.22,-116.08 539.5,-114.81 547.44,-113.59"/>
<polygon fill="#63b8ff" stroke="#63b8ff" points="547.9,-117.06 557.25,-112.09 546.84,-110.14 547.9,-117.06"/>
</a>
</g>
</g>
</g>
</svg>
