<?xml version="1.0" encoding="UTF-8" standalone="no"?>
<!DOCTYPE svg PUBLIC "-//W3C//DTD SVG 1.1//EN"
 "http://www.w3.org/Graphics/SVG/1.1/DTD/svg11.dtd">
<!-- Generated by graphviz version 9.0.0 (20230911.1827)
 -->
<!-- Title: /home/honeyguide/Desktop/MyOpenSource/facad/src/dir_config.h Pages: 1 -->
<svg width="520pt" height="137pt"
 viewBox="0.00 0.00 520.00 136.50" xmlns="http://www.w3.org/2000/svg" xmlns:xlink="http://www.w3.org/1999/xlink">
<g id="graph0" class="graph" transform="scale(1 1) rotate(0) translate(4 132.5)">
<title>/home/honeyguide/Desktop/MyOpenSource/facad/src/dir_config.h</title>
<!-- Node1 -->
<g id="Node000001" class="node">
<title>Node1</title>
<g id="a_Node000001"><a xlink:title="Header file for directory&#45;specific configurations.">
<polygon fill="#999999" stroke="#666666" points="318.25,-128.5 168,-128.5 168,-82.25 318.25,-82.25 318.25,-128.5"/>
<text text-anchor="start" x="176" y="-115" font-family="Helvetica,sans-Serif" font-size="10.00">/home/honeyguide/Desktop</text>
<text text-anchor="start" x="176" y="-102.25" font-family="Helvetica,sans-Serif" font-size="10.00">/MyOpenSource/facad/src</text>
<text text-anchor="middle" x="243.12" y="-89.5" font-family="Helvetica,sans-Serif" font-size="10.00">/dir_config.h</text>
</a>
</g>
</g>
<!-- Node2 -->
<g id="Node000002" class="node">
<title>Node2</title>
<g id="a_Node000002"><a xlink:href="../../dc/daf/dir__config_8c.html" target="_top" xlink:title="Implementation of directory configuration functions.">
<polygon fill="white" stroke="#666666" points="150.25,-46.25 0,-46.25 0,0 150.25,0 150.25,-46.25"/>
<text text-anchor="start" x="8" y="-32.75" font-family="Helvetica,sans-Serif" font-size="10.00">/home/honeyguide/Desktop</text>
<text text-anchor="start" x="8" y="-20" font-family="Helvetica,sans-Serif" font-size="10.00">/MyOpenSource/facad/src</text>
<text text-anchor="middle" x="75.12" y="-7.25" font-family="Helvetica,sans-Serif" font-size="10.00">/dir_config.c</text>
</a>
</g>
</g>
<!-- Node1&#45;&gt;Node2 -->
<g id="edge1_Node000001_Node000002" class="edge">
<title>Node1&#45;&gt;Node2</title>
<g id="a_edge1_Node000001_Node000002"><a xlink:title=" ">
<path fill="none" stroke="#63b8ff" d="M185.65,-76.92C165,-67.06 141.98,-56.06 122.31,-46.66"/>
<polygon fill="#63b8ff" stroke="#63b8ff" points="183.98,-80 194.51,-81.15 187,-73.69 183.98,-80"/>
</a>
</g>
</g>
<!-- Node3 -->
<g id="Node000003" class="node">
<title>Node3</title>
<g id="a_Node000003"><a xlink:href="../../d2/dda/display__utils_8c.html" target="_top" xlink:title="Implementation of display utilities for file entries.">
<polygon fill="white" stroke="#666666" points="318.25,-46.25 168,-46.25 168,0 318.25,0 318.25,-46.25"/>
<text text-anchor="start" x="176" y="-32.75" font-family="Helvetica,sans-Serif" font-size="10.00">/home/honeyguide/Desktop</text>
<text text-anchor="start" x="176" y="-20" font-family="Helvetica,sans-Serif" font-size="10.00">/MyOpenSource/facad/src</text>
<text text-anchor="middle" x="243.12" y="-7.25" font-family="Helvetica,sans-Serif" font-size="10.00">/display_utils.c</text>
</a>
</g>
</g>
<!-- Node1&#45;&gt;Node3 -->
<g id="edge2_Node000001_Node000003" class="edge">
<title>Node1&#45;&gt;Node3</title>
<g id="a_edge2_Node000001_Node000003"><a xlink:title=" ">
<path fill="none" stroke="#63b8ff" d="M243.12,-70.59C243.12,-62.5 243.12,-54.07 243.12,-46.64"/>
<polygon fill="#63b8ff" stroke="#63b8ff" points="239.63,-70.51 243.13,-80.51 246.63,-70.51 239.63,-70.51"/>
</a>
</g>
</g>
<!-- Node4 -->
<g id="Node000004" class="node">
<title>Node4</title>
<g id="a_Node000004"><a xlink:href="../../d0/d29/main_8c.html" target="_top" xlink:title="Main entry point for the facad directory listing tool.">
<polygon fill="white" stroke="#666666" points="512,-39.88 336.25,-39.88 336.25,-6.38 512,-6.38 512,-39.88"/>
<text text-anchor="start" x="344.25" y="-26.38" font-family="Helvetica,sans-Serif" font-size="10.00">/home/honeyguide/Desktop</text>
<text text-anchor="middle" x="424.12" y="-13.62" font-family="Helvetica,sans-Serif" font-size="10.00">/MyOpenSource/facad/src/main.c</text>
</a>
</g>
</g>
<!-- Node1&#45;&gt;Node4 -->
<g id="edge3_Node000001_Node000004" class="edge">
<title>Node1&#45;&gt;Node4</title>
<g id="a_edge3_Node000001_Node000004"><a xlink:title=" ">
<path fill="none" stroke="#63b8ff" d="M304.4,-77.21C332.06,-64.94 363.81,-50.87 387.65,-40.3"/>
<polygon fill="#63b8ff" stroke="#63b8ff" points="303.13,-73.94 295.41,-81.19 305.97,-80.34 303.13,-73.94"/>
</a>
</g>
</g>
</g>
</svg>
