<?xml version="1.0" encoding="UTF-8" standalone="no"?>
<!DOCTYPE svg PUBLIC "-//W3C//DTD SVG 1.1//EN"
 "http://www.w3.org/Graphics/SVG/1.1/DTD/svg11.dtd">
<!-- Generated by graphviz version 9.0.0 (20230911.1827)
 -->
<!-- Title: safe_strdup Pages: 1 -->
<!--zoomable 192 -->

<svg id="main" version="1.1" xmlns="http://www.w3.org/2000/svg" xmlns:xlink="http://www.w3.org/1999/xlink" xml:space="preserve" onload="init(evt)">
<style type="text/css"><![CDATA[
.node, .edge {opacity: 0.7;}
.node.selected, .edge.selected {opacity: 1;}
.edge:hover path { stroke: red; }
.edge:hover polygon { stroke: red; fill: red; }
]]></style>

<defs>
  <circle id="rim" cx="0" cy="0" r="7"/>
  <circle id="rim2" cx="0" cy="0" r="3.5"/>
  <g id="zoomPlus">
    <use xlink:href="#rim" fill="#404040"><set attributeName="fill" to="#808080" begin="zoomplus.mouseover" end="zoomplus.mouseout"/></use>
    <path d="M-4,0h8M0,-4v8" fill="none" stroke="white" stroke-width="1.5" pointer-events="none"/>
  </g>
  <g id="zoomMin">
    <use xlink:href="#rim" fill="#404040"><set attributeName="fill" to="#808080" begin="zoomminus.mouseover" end="zoomminus.mouseout"/></use>
    <path d="M-4,0h8" fill="none" stroke="white" stroke-width="1.5" pointer-events="none"/>
  </g>
  <g id="arrowUp" transform="translate(30 24)">
    <use xlink:href="#rim"/>
    <path pointer-events="none" fill="none" stroke="white" stroke-width="1.5" d="M0,-3.0v7 M-2.5,-0.5L0,-3.0L2.5,-0.5"/>
  </g>
  <g id="arrowRight" transform="rotate(90) translate(36 -43)">
    <use xlink:href="#rim"/>
    <path pointer-events="none" fill="none" stroke="white" stroke-width="1.5" d="M0,-3.0v7 M-2.5,-0.5L0,-3.0L2.5,-0.5"/>
  </g>
  <g id="arrowDown" transform="rotate(180) translate(-30 -48)">
    <use xlink:href="#rim"/>
    <path pointer-events="none" fill="none" stroke="white" stroke-width="1.5" d="M0,-3.0v7 M-2.5,-0.5L0,-3.0L2.5,-0.5"/>
  </g>
  <g id="arrowLeft" transform="rotate(270) translate(-36 17)">
    <use xlink:href="#rim"/>
    <path pointer-events="none" fill="none" stroke="white" stroke-width="1.5" d="M0,-3.0v7 M-2.5,-0.5L0,-3.0L2.5,-0.5"/>
  </g>
  <g id="resetDef">
    <use xlink:href="#rim2" fill="#404040"><set attributeName="fill" to="#808080" begin="reset.mouseover" end="reset.mouseout"/></use>
  </g>
</defs>
<script type="application/ecmascript">
var viewWidth = 890;
var viewHeight = 192;
var sectionId = 'dynsection-9';
</script>
<script type="application/ecmascript" xlink:href="../../svg.min.js"/>
<svg id="graph" class="graph">
<g id="viewport">
<title>safe_strdup</title>
<!-- Node1 -->
<g id="Node000001" class="node">
<title>Node1</title>
<g id="a_Node000001"><a xlink:title="Safely duplicates a string, handling memory allocation errors.">
<polygon fill="#999999" stroke="#666666" points="882.25,-67.82 809.25,-67.82 809.25,-47.07 882.25,-47.07 882.25,-67.82"/>
<text text-anchor="middle" x="845.75" y="-54.32" font-family="Helvetica,sans-Serif" font-size="10.00">safe_strdup</text>
</a>
</g>
</g>
<!-- Node2 -->
<g id="Node000002" class="node">
<title>Node2</title>
<g id="a_Node000002"><a xlink:href="../../d0/dc9/emoji__utils_8c.html#a5079b8c3657f088d68ae41fee9b299e3" target="_top" xlink:title="Checks the file content for specific patterns to determine the file type.">
<polygon fill="white" stroke="#666666" points="773.25,-105.82 666.5,-105.82 666.5,-85.07 773.25,-85.07 773.25,-105.82"/>
<text text-anchor="middle" x="719.88" y="-92.32" font-family="Helvetica,sans-Serif" font-size="10.00">check_file_content</text>
</a>
</g>
</g>
<!-- Node1&#45;&gt;Node2 -->
<g id="edge1_Node000001_Node000002" class="edge">
<title>Node1&#45;&gt;Node2</title>
<g id="a_edge1_Node000001_Node000002"><a xlink:title=" ">
<path fill="none" stroke="#63b8ff" d="M798.62,-71.6C784.57,-75.91 769.35,-80.58 756.13,-84.63"/>
<polygon fill="#63b8ff" stroke="#63b8ff" points="799.6,-74.96 808.14,-68.68 797.55,-68.27 799.6,-74.96"/>
</a>
</g>
</g>
<!-- Node3 -->
<g id="Node000003" class="node">
<title>Node3</title>
<g id="a_Node000003"><a xlink:href="../../d0/dc9/emoji__utils_8c.html#a853b78da7b6116949e96148e040669d5" target="_top" xlink:title="Determines the appropriate emoji for a given file based on its characteristics.">
<polygon fill="white" stroke="#666666" points="630.5,-95.82 565.75,-95.82 565.75,-75.07 630.5,-75.07 630.5,-95.82"/>
<text text-anchor="middle" x="598.12" y="-82.32" font-family="Helvetica,sans-Serif" font-size="10.00">get_emoji</text>
</a>
</g>
</g>
<!-- Node1&#45;&gt;Node3 -->
<g id="edge19_Node000001_Node000003" class="edge">
<title>Node1&#45;&gt;Node3</title>
<g id="a_edge19_Node000001_Node000003"><a xlink:title=" ">
<path fill="none" stroke="#63b8ff" d="M797.74,-62.11C761.78,-65.77 710.97,-71.11 666.5,-76.45 654.9,-77.84 642.2,-79.5 630.98,-81.02"/>
<polygon fill="#63b8ff" stroke="#63b8ff" points="797.77,-65.63 807.36,-61.14 797.06,-58.66 797.77,-65.63"/>
</a>
</g>
</g>
<!-- Node12 -->
<g id="Node000012" class="node">
<title>Node12</title>
<g id="a_Node000012"><a xlink:href="../../d0/dc9/emoji__utils_8c.html#ad5d8cf69e853f8e2c380ce1e0b2da0da" target="_top" xlink:title="Determines the appropriate emoji for files in the /dev directory.">
<polygon fill="white" stroke="#666666" points="763.88,-29.82 675.88,-29.82 675.88,-9.07 763.88,-9.07 763.88,-29.82"/>
<text text-anchor="middle" x="719.88" y="-16.32" font-family="Helvetica,sans-Serif" font-size="10.00">get_dev_emoji</text>
</a>
</g>
</g>
<!-- Node1&#45;&gt;Node12 -->
<g id="edge16_Node000001_Node000012" class="edge">
<title>Node1&#45;&gt;Node12</title>
<g id="a_edge16_Node000001_Node000012"><a xlink:title=" ">
<path fill="none" stroke="#63b8ff" d="M798.62,-43.3C784.57,-38.98 769.35,-34.32 756.13,-30.26"/>
<polygon fill="#63b8ff" stroke="#63b8ff" points="797.55,-46.63 808.14,-46.22 799.6,-39.94 797.55,-46.63"/>
</a>
</g>
</g>
<!-- Node2&#45;&gt;Node3 -->
<g id="edge2_Node000002_Node000003" class="edge">
<title>Node2&#45;&gt;Node3</title>
<g id="a_edge2_Node000002_Node000003"><a xlink:title=" ">
<path fill="none" stroke="#63b8ff" d="M654.67,-90.09C646.37,-89.39 638.18,-88.71 630.74,-88.09"/>
<polygon fill="#63b8ff" stroke="#63b8ff" points="654.24,-93.56 664.49,-90.91 654.82,-86.59 654.24,-93.56"/>
</a>
</g>
</g>
<!-- Node4 -->
<g id="Node000004" class="node">
<title>Node4</title>
<g id="a_Node000004"><a xlink:href="../../dd/d6c/file__card_8c.html#a8ac3f1a318ebad42a9d465b92e4aa598" target="_top" xlink:title="Creates a new file card based on the given path.">
<polygon fill="white" stroke="#666666" points="518.12,-126.82 420.38,-126.82 420.38,-106.07 518.12,-106.07 518.12,-126.82"/>
<text text-anchor="middle" x="469.25" y="-113.32" font-family="Helvetica,sans-Serif" font-size="10.00">create_file_entry</text>
</a>
</g>
</g>
<!-- Node3&#45;&gt;Node4 -->
<g id="edge3_Node000003_Node000004" class="edge">
<title>Node3&#45;&gt;Node4</title>
<g id="a_edge3_Node000003_Node000004"><a xlink:title=" ">
<path fill="none" stroke="#63b8ff" d="M554.5,-95.86C541.61,-99.01 527.44,-102.47 514.45,-105.65"/>
<polygon fill="#63b8ff" stroke="#63b8ff" points="555.08,-99.32 563.97,-93.55 553.42,-92.52 555.08,-99.32"/>
</a>
</g>
</g>
<!-- Node9 -->
<g id="Node000009" class="node">
<title>Node9</title>
<g id="a_Node000009"><a xlink:href="../../d6/d95/longlisting_8c.html#a33c3f39ac9dd42760160e6cf451aed2a" target="_top" xlink:title="Prints sorted entries in a detailed format.">
<polygon fill="white" stroke="#666666" points="359.62,-68.82 246.12,-68.82 246.12,-48.07 359.62,-48.07 359.62,-68.82"/>
<text text-anchor="middle" x="302.88" y="-55.32" font-family="Helvetica,sans-Serif" font-size="10.00">print_sorted_entries</text>
</a>
</g>
</g>
<!-- Node3&#45;&gt;Node9 -->
<g id="edge11_Node000003_Node000009" class="edge">
<title>Node3&#45;&gt;Node9</title>
<g id="a_edge11_Node000003_Node000009"><a xlink:title=" ">
<path fill="none" stroke="#63b8ff" d="M554.11,-81.49C502.69,-76.75 416.49,-68.82 359.9,-63.61"/>
<polygon fill="#63b8ff" stroke="#63b8ff" points="553.68,-84.96 563.96,-82.39 554.32,-77.99 553.68,-84.96"/>
</a>
</g>
</g>
<!-- Node5 -->
<g id="Node000005" class="node">
<title>Node5</title>
<g id="a_Node000005"><a xlink:href="../../d0/d29/main_8c.html#acc392fbd2ea6b07ebcc2b9c089aae2ca" target="_top" xlink:title="Processes directory entries and populates the entries array.">
<polygon fill="white" stroke="#666666" points="354,-183.82 251.75,-183.82 251.75,-163.07 354,-163.07 354,-183.82"/>
<text text-anchor="middle" x="302.88" y="-170.32" font-family="Helvetica,sans-Serif" font-size="10.00">process_directory</text>
</a>
</g>
</g>
<!-- Node4&#45;&gt;Node5 -->
<g id="edge4_Node000004_Node000005" class="edge">
<title>Node4&#45;&gt;Node5</title>
<g id="a_edge4_Node000004_Node000005"><a xlink:title=" ">
<path fill="none" stroke="#63b8ff" d="M426.12,-131.05C397.71,-140.91 360.85,-153.69 335.06,-162.63"/>
<polygon fill="#63b8ff" stroke="#63b8ff" points="427.21,-134.38 435.52,-127.8 424.92,-127.77 427.21,-134.38"/>
</a>
</g>
</g>
<!-- Node7 -->
<g id="Node000007" class="node">
<title>Node7</title>
<g id="a_Node000007"><a xlink:href="../../d0/d29/main_8c.html#ae7d3bb334fabeeccc7dfb05e7f968d47" target="_top" xlink:title="Processes a single target (directory, file, or pattern).">
<polygon fill="white" stroke="#666666" points="180.88,-145.82 92.88,-145.82 92.88,-125.07 180.88,-125.07 180.88,-145.82"/>
<text text-anchor="middle" x="136.88" y="-132.32" font-family="Helvetica,sans-Serif" font-size="10.00">process_target</text>
</a>
</g>
</g>
<!-- Node4&#45;&gt;Node7 -->
<g id="edge10_Node000004_Node000007" class="edge">
<title>Node4&#45;&gt;Node7</title>
<g id="a_edge10_Node000004_Node000007"><a xlink:title=" ">
<path fill="none" stroke="#63b8ff" d="M408.84,-119.86C343.33,-123.63 239.51,-129.6 181.23,-132.95"/>
<polygon fill="#63b8ff" stroke="#63b8ff" points="408.92,-123.37 418.7,-119.3 408.52,-116.38 408.92,-123.37"/>
</a>
</g>
</g>
<!-- Node8 -->
<g id="Node000008" class="node">
<title>Node8</title>
<g id="a_Node000008"><a xlink:href="../../d0/d29/main_8c.html#a00c65357e9fe949388102f3090ea09c5" target="_top" xlink:title="Processes files or patterns and populates the entries array.">
<polygon fill="white" stroke="#666666" points="372.75,-107.82 233,-107.82 233,-87.07 372.75,-87.07 372.75,-107.82"/>
<text text-anchor="middle" x="302.88" y="-94.32" font-family="Helvetica,sans-Serif" font-size="10.00">process_files_or_patterns</text>
</a>
</g>
</g>
<!-- Node4&#45;&gt;Node8 -->
<g id="edge8_Node000004_Node000008" class="edge">
<title>Node4&#45;&gt;Node8</title>
<g id="a_edge8_Node000004_Node000008"><a xlink:title=" ">
<path fill="none" stroke="#63b8ff" d="M408.88,-109.58C397.23,-108.24 384.92,-106.82 372.99,-105.44"/>
<polygon fill="#63b8ff" stroke="#63b8ff" points="408.42,-113.06 418.76,-110.73 409.23,-106.1 408.42,-113.06"/>
</a>
</g>
</g>
<!-- Node6 -->
<g id="Node000006" class="node">
<title>Node6</title>
<g id="a_Node000006"><a xlink:href="../../d0/d29/main_8c.html#a0ddf1224851353fc92bfbff6f499fa97" target="_top" xlink:title="Main function of the facad program.">
<polygon fill="white" stroke="#666666" points="40.75,-106.82 0,-106.82 0,-86.07 40.75,-86.07 40.75,-106.82"/>
<text text-anchor="middle" x="20.38" y="-93.32" font-family="Helvetica,sans-Serif" font-size="10.00">main</text>
</a>
</g>
</g>
<!-- Node5&#45;&gt;Node6 -->
<g id="edge5_Node000005_Node000006" class="edge">
<title>Node5&#45;&gt;Node6</title>
<g id="a_edge5_Node000005_Node000006"><a xlink:title=" ">
<path fill="none" stroke="#63b8ff" d="M240.13,-179.69C193.08,-181.82 127.9,-178.93 76.75,-154.45 54.9,-143.99 37.17,-120.95 28.05,-107.27"/>
<polygon fill="#63b8ff" stroke="#63b8ff" points="240.07,-183.2 249.87,-179.16 239.69,-176.21 240.07,-183.2"/>
</a>
</g>
</g>
<!-- Node5&#45;&gt;Node7 -->
<g id="edge6_Node000005_Node000007" class="edge">
<title>Node5&#45;&gt;Node7</title>
<g id="a_edge6_Node000005_Node000007"><a xlink:title=" ">
<path fill="none" stroke="#63b8ff" d="M244.38,-160.12C223.6,-155.31 200.52,-149.96 181.17,-145.48"/>
<polygon fill="#63b8ff" stroke="#63b8ff" points="243.31,-163.47 253.84,-162.32 244.89,-156.65 243.31,-163.47"/>
</a>
</g>
</g>
<!-- Node7&#45;&gt;Node6 -->
<g id="edge7_Node000007_Node000006" class="edge">
<title>Node7&#45;&gt;Node6</title>
<g id="a_edge7_Node000007_Node000006"><a xlink:title=" ">
<path fill="none" stroke="#63b8ff" d="M92.75,-120.88C87.36,-119.06 81.93,-117.21 76.75,-115.45 64.92,-111.42 51.67,-106.87 41.1,-103.24"/>
<polygon fill="#63b8ff" stroke="#63b8ff" points="91.62,-124.2 102.21,-124.09 93.86,-117.57 91.62,-124.2"/>
</a>
</g>
</g>
<!-- Node8&#45;&gt;Node7 -->
<g id="edge9_Node000008_Node000007" class="edge">
<title>Node8&#45;&gt;Node7</title>
<g id="a_edge9_Node000008_Node000007"><a xlink:title=" ">
<path fill="none" stroke="#63b8ff" d="M244.38,-110.77C223.6,-115.58 200.52,-120.93 181.17,-125.41"/>
<polygon fill="#63b8ff" stroke="#63b8ff" points="244.89,-114.24 253.84,-108.58 243.31,-107.42 244.89,-114.24"/>
</a>
</g>
</g>
<!-- Node10 -->
<g id="Node000010" class="node">
<title>Node10</title>
<g id="a_Node000010"><a xlink:href="../../d6/d95/longlisting_8c.html#a9aa67dc0ec987dacbfbc8dfe5745c5be" target="_top" xlink:title="Prints a detailed listing of the contents of a directory.">
<polygon fill="white" stroke="#666666" points="184.25,-106.82 89.5,-106.82 89.5,-86.07 184.25,-86.07 184.25,-106.82"/>
<text text-anchor="middle" x="136.88" y="-93.32" font-family="Helvetica,sans-Serif" font-size="10.00">print_longlisting</text>
</a>
</g>
</g>
<!-- Node9&#45;&gt;Node10 -->
<g id="edge12_Node000009_Node000010" class="edge">
<title>Node9&#45;&gt;Node10</title>
<g id="a_edge12_Node000009_Node000010"><a xlink:title=" ">
<path fill="none" stroke="#63b8ff" d="M244.1,-71.83C224.6,-76.35 203.08,-81.34 184.55,-85.63"/>
<polygon fill="#63b8ff" stroke="#63b8ff" points="244.89,-75.24 253.84,-69.58 243.31,-68.42 244.89,-75.24"/>
</a>
</g>
</g>
<!-- Node11 -->
<g id="Node000011" class="node">
<title>Node11</title>
<g id="a_Node000011"><a xlink:href="../../d6/d95/longlisting_8c.html#a1af2c63d6b774640dcf8f6b3127dfa47" target="_top" xlink:title=" ">
<polygon fill="white" stroke="#666666" points="197,-67.82 76.75,-67.82 76.75,-47.07 197,-47.07 197,-67.82"/>
<text text-anchor="middle" x="136.88" y="-54.32" font-family="Helvetica,sans-Serif" font-size="10.00">print_longlisting_files</text>
</a>
</g>
</g>
<!-- Node9&#45;&gt;Node11 -->
<g id="edge14_Node000009_Node000011" class="edge">
<title>Node9&#45;&gt;Node11</title>
<g id="a_edge14_Node000009_Node000011"><a xlink:title=" ">
<path fill="none" stroke="#63b8ff" d="M234.67,-58.04C222.26,-57.96 209.39,-57.88 197.24,-57.81"/>
<polygon fill="#63b8ff" stroke="#63b8ff" points="234.36,-61.54 244.38,-58.1 234.4,-54.54 234.36,-61.54"/>
</a>
</g>
</g>
<!-- Node10&#45;&gt;Node6 -->
<g id="edge13_Node000010_Node000006" class="edge">
<title>Node10&#45;&gt;Node6</title>
<g id="a_edge13_Node000010_Node000006"><a xlink:title=" ">
<path fill="none" stroke="#63b8ff" d="M78.13,-96.45C64.77,-96.45 51.44,-96.45 41.06,-96.45"/>
<polygon fill="#63b8ff" stroke="#63b8ff" points="77.79,-99.95 87.79,-96.45 77.79,-92.95 77.79,-99.95"/>
</a>
</g>
</g>
<!-- Node11&#45;&gt;Node6 -->
<g id="edge15_Node000011_Node000006" class="edge">
<title>Node11&#45;&gt;Node6</title>
<g id="a_edge15_Node000011_Node000006"><a xlink:title=" ">
<path fill="none" stroke="#63b8ff" d="M92.75,-72.01C87.36,-73.84 81.93,-75.68 76.75,-77.45 64.92,-81.48 51.67,-86.02 41.1,-89.66"/>
<polygon fill="#63b8ff" stroke="#63b8ff" points="93.86,-75.33 102.21,-68.81 91.62,-68.7 93.86,-75.33"/>
</a>
</g>
</g>
<!-- Node13 -->
<g id="Node000013" class="node">
<title>Node13</title>
<g id="a_Node000013"><a xlink:href="../../de/db5/dev__dir__utils_8c.html#acf9fb4da0ced0c99e368f3cd1ef91547" target="_top" xlink:title="Processes the contents of the /dev directory.">
<polygon fill="white" stroke="#666666" points="529.75,-29.82 408.75,-29.82 408.75,-9.07 529.75,-9.07 529.75,-29.82"/>
<text text-anchor="middle" x="469.25" y="-16.32" font-family="Helvetica,sans-Serif" font-size="10.00">handle_dev_directory</text>
</a>
</g>
</g>
<!-- Node12&#45;&gt;Node13 -->
<g id="edge17_Node000012_Node000013" class="edge">
<title>Node12&#45;&gt;Node13</title>
<g id="a_edge17_Node000012_Node000013"><a xlink:title=" ">
<path fill="none" stroke="#63b8ff" d="M664.23,-19.45C624.47,-19.45 570.68,-19.45 529.82,-19.45"/>
<polygon fill="#63b8ff" stroke="#63b8ff" points="664.05,-22.95 674.05,-19.45 664.05,-15.95 664.05,-22.95"/>
</a>
</g>
</g>
<!-- Node13&#45;&gt;Node6 -->
<g id="edge18_Node000013_Node000006" class="edge">
<title>Node13&#45;&gt;Node6</title>
<g id="a_edge18_Node000013_Node000006"><a xlink:title=" ">
<path fill="none" stroke="#63b8ff" d="M397.23,-7.69C315.84,2.44 180.35,8.88 76.75,-38.45 54.46,-48.63 36.65,-72.22 27.69,-85.98"/>
<polygon fill="#63b8ff" stroke="#63b8ff" points="396.47,-11.12 406.84,-8.94 397.38,-4.18 396.47,-11.12"/>
</a>
</g>
</g>
</g>
</svg>

<g id="navigator" transform="translate(0 0)" fill="#404254">
  <rect fill="#f2f5e9" fill-opacity="0.5" stroke="#606060" stroke-width=".5" x="0" y="0" width="60" height="60"/>
  <use id="zoomplus" xlink:href="#zoomPlus" x="17" y="9" onmousedown="handleZoom(evt,'in')"/>
  <use id="zoomminus" xlink:href="#zoomMin" x="42" y="9" onmousedown="handleZoom(evt,'out')"/>
  <use id="reset" xlink:href="#resetDef" x="30" y="36" onmousedown="handleReset()"/>
   <use id="arrowup" xlink:href="#arrowUp" x="0" y="0" onmousedown="handlePan(0,-1)"/>
  <use id="arrowright" xlink:href="#arrowRight" x="0" y="0" onmousedown="handlePan(1,0)"/>
  <use id="arrowdown" xlink:href="#arrowDown" x="0" y="0" onmousedown="handlePan(0,1)"/>
  <use id="arrowleft" xlink:href="#arrowLeft" x="0" y="0" onmousedown="handlePan(-1,0)"/>
</g>
<svg viewBox="0 0 15 15" width="100%" height="30px" preserveAspectRatio="xMaxYMin meet">
 <g id="arrow_out" transform="scale(0.3 0.3)">
  <a xlink:href="emoji__utils_8c_a515d3420e13a8688464ad3b3c89c2ffb_icgraph_org.svg" target="_base">
   <rect id="button" ry="5" rx="5" y="6" x="6" height="38" width="38"
        fill="#f2f5e9" fill-opacity="0.5" stroke="#606060" stroke-width="1.0"/>
   <path id="arrow"
     d="M 11.500037,31.436501 C 11.940474,20.09759 22.043105,11.32322 32.158766,21.979434 L 37.068811,17.246167 C 37.068811,17.246167 37.088388,32 37.088388,32 L 22.160133,31.978069 C 22.160133,31.978069 26.997745,27.140456 26.997745,27.140456 C 18.528582,18.264221 13.291696,25.230495 11.500037,31.436501 z"
     style="fill:#404040;"/>
  </a>
 </g>
</svg>

<style type='text/css'>
<![CDATA[
[data-mouse-over-selected='false'] { opacity: 0.7; }
[data-mouse-over-selected='true']  { opacity: 1.0; }
]]>
</style>
<script type="application/ecmascript"><![CDATA[
document.addEventListener('DOMContentLoaded', (event) => {
  highlightEdges();
  highlightAdjacentNodes();
});
]]></script>
</svg>
