<?xml version="1.0" encoding="UTF-8" standalone="no"?>
<!DOCTYPE svg PUBLIC "-//W3C//DTD SVG 1.1//EN"
 "http://www.w3.org/Graphics/SVG/1.1/DTD/svg11.dtd">
<!-- Generated by graphviz version 9.0.0 (20230911.1827)
 -->
<!-- Title: get_emoji Pages: 1 -->
<svg width="615pt" height="145pt"
 viewBox="0.00 0.00 615.25 144.75" xmlns="http://www.w3.org/2000/svg" xmlns:xlink="http://www.w3.org/1999/xlink">
<g id="graph0" class="graph" transform="scale(1 1) rotate(0) translate(4 140.75)">
<title>get_emoji</title>
<!-- Node1 -->
<g id="Node000001" class="node">
<title>Node1</title>
<g id="a_Node000001"><a xlink:title="Determines the appropriate emoji for a given file based on its characteristics.">
<polygon fill="#999999" stroke="#666666" points="607.25,-60.75 542.5,-60.75 542.5,-40 607.25,-40 607.25,-60.75"/>
<text text-anchor="middle" x="574.88" y="-47.25" font-family="Helvetica,sans-Serif" font-size="10.00">get_emoji</text>
</a>
</g>
</g>
<!-- Node2 -->
<g id="Node000002" class="node">
<title>Node2</title>
<g id="a_Node000002"><a xlink:href="../../dd/d6c/file__card_8c.html#a8ac3f1a318ebad42a9d465b92e4aa598" target="_top" xlink:title="Creates a new file card based on the given path.">
<polygon fill="white" stroke="#666666" points="506.5,-79.75 408.75,-79.75 408.75,-59 506.5,-59 506.5,-79.75"/>
<text text-anchor="middle" x="457.62" y="-66.25" font-family="Helvetica,sans-Serif" font-size="10.00">create_file_entry</text>
</a>
</g>
</g>
<!-- Node1&#45;&gt;Node2 -->
<g id="edge1_Node000001_Node000002" class="edge">
<title>Node1&#45;&gt;Node2</title>
<g id="a_edge1_Node000001_Node000002"><a xlink:title=" ">
<path fill="none" stroke="#63b8ff" d="M530.89,-57.46C523.01,-58.76 514.75,-60.12 506.73,-61.44"/>
<polygon fill="#63b8ff" stroke="#63b8ff" points="531.29,-60.94 540.58,-55.86 530.15,-54.04 531.29,-60.94"/>
</a>
</g>
</g>
<!-- Node7 -->
<g id="Node000007" class="node">
<title>Node7</title>
<g id="a_Node000007"><a xlink:href="../../d6/d95/longlisting_8c.html#a33c3f39ac9dd42760160e6cf451aed2a" target="_top" xlink:title="Prints sorted entries in a detailed format.">
<polygon fill="white" stroke="#666666" points="359.62,-21.75 246.12,-21.75 246.12,-1 359.62,-1 359.62,-21.75"/>
<text text-anchor="middle" x="302.88" y="-8.25" font-family="Helvetica,sans-Serif" font-size="10.00">print_sorted_entries</text>
</a>
</g>
</g>
<!-- Node1&#45;&gt;Node7 -->
<g id="edge9_Node000001_Node000007" class="edge">
<title>Node1&#45;&gt;Node7</title>
<g id="a_edge9_Node000001_Node000007"><a xlink:title=" ">
<path fill="none" stroke="#63b8ff" d="M530.96,-44.18C484.67,-37.49 410.77,-26.82 359.92,-19.47"/>
<polygon fill="#63b8ff" stroke="#63b8ff" points="530.21,-47.6 540.61,-45.57 531.21,-40.68 530.21,-47.6"/>
</a>
</g>
</g>
<!-- Node3 -->
<g id="Node000003" class="node">
<title>Node3</title>
<g id="a_Node000003"><a xlink:href="../../d0/d29/main_8c.html#acc392fbd2ea6b07ebcc2b9c089aae2ca" target="_top" xlink:title="Processes directory entries and populates the entries array.">
<polygon fill="white" stroke="#666666" points="354,-136.75 251.75,-136.75 251.75,-116 354,-116 354,-136.75"/>
<text text-anchor="middle" x="302.88" y="-123.25" font-family="Helvetica,sans-Serif" font-size="10.00">process_directory</text>
</a>
</g>
</g>
<!-- Node2&#45;&gt;Node3 -->
<g id="edge2_Node000002_Node000003" class="edge">
<title>Node2&#45;&gt;Node3</title>
<g id="a_edge2_Node000002_Node000003"><a xlink:title=" ">
<path fill="none" stroke="#63b8ff" d="M419.33,-84.41C404.84,-90.16 388.07,-96.7 372.75,-102.38 360.76,-106.82 347.51,-111.49 335.86,-115.52"/>
<polygon fill="#63b8ff" stroke="#63b8ff" points="420.51,-87.71 428.5,-80.76 417.92,-81.21 420.51,-87.71"/>
</a>
</g>
</g>
<!-- Node5 -->
<g id="Node000005" class="node">
<title>Node5</title>
<g id="a_Node000005"><a xlink:href="../../d0/d29/main_8c.html#ae7d3bb334fabeeccc7dfb05e7f968d47" target="_top" xlink:title="Processes a single target (directory, file, or pattern).">
<polygon fill="white" stroke="#666666" points="180.88,-98.75 92.88,-98.75 92.88,-78 180.88,-78 180.88,-98.75"/>
<text text-anchor="middle" x="136.88" y="-85.25" font-family="Helvetica,sans-Serif" font-size="10.00">process_target</text>
</a>
</g>
</g>
<!-- Node2&#45;&gt;Node5 -->
<g id="edge8_Node000002_Node000005" class="edge">
<title>Node2&#45;&gt;Node5</title>
<g id="a_edge8_Node000002_Node000005"><a xlink:title=" ">
<path fill="none" stroke="#63b8ff" d="M397.27,-72.91C334.53,-76.65 237.09,-82.46 181.21,-85.79"/>
<polygon fill="#63b8ff" stroke="#63b8ff" points="397.27,-76.42 407.05,-72.33 396.86,-69.43 397.27,-76.42"/>
</a>
</g>
</g>
<!-- Node6 -->
<g id="Node000006" class="node">
<title>Node6</title>
<g id="a_Node000006"><a xlink:href="../../d0/d29/main_8c.html#a00c65357e9fe949388102f3090ea09c5" target="_top" xlink:title="Processes files or patterns and populates the entries array.">
<polygon fill="white" stroke="#666666" points="372.75,-60.75 233,-60.75 233,-40 372.75,-40 372.75,-60.75"/>
<text text-anchor="middle" x="302.88" y="-47.25" font-family="Helvetica,sans-Serif" font-size="10.00">process_files_or_patterns</text>
</a>
</g>
</g>
<!-- Node2&#45;&gt;Node6 -->
<g id="edge6_Node000002_Node000006" class="edge">
<title>Node2&#45;&gt;Node6</title>
<g id="a_edge6_Node000002_Node000006"><a xlink:title=" ">
<path fill="none" stroke="#63b8ff" d="M397.02,-61.96C389.18,-60.99 381.09,-59.98 373.1,-58.99"/>
<polygon fill="#63b8ff" stroke="#63b8ff" points="396.44,-65.42 406.79,-63.18 397.3,-58.47 396.44,-65.42"/>
</a>
</g>
</g>
<!-- Node4 -->
<g id="Node000004" class="node">
<title>Node4</title>
<g id="a_Node000004"><a xlink:href="../../d0/d29/main_8c.html#a0ddf1224851353fc92bfbff6f499fa97" target="_top" xlink:title="Main function of the facad program.">
<polygon fill="white" stroke="#666666" points="40.75,-78.75 0,-78.75 0,-58 40.75,-58 40.75,-78.75"/>
<text text-anchor="middle" x="20.38" y="-65.25" font-family="Helvetica,sans-Serif" font-size="10.00">main</text>
</a>
</g>
</g>
<!-- Node3&#45;&gt;Node4 -->
<g id="edge3_Node000003_Node000004" class="edge">
<title>Node3&#45;&gt;Node4</title>
<g id="a_edge3_Node000003_Node000004"><a xlink:title=" ">
<path fill="none" stroke="#63b8ff" d="M240.16,-129.74C193.84,-130.25 129.59,-126.6 76.75,-107.38 59.73,-101.18 43.15,-88.33 32.64,-79.07"/>
<polygon fill="#63b8ff" stroke="#63b8ff" points="240.08,-133.24 250.02,-129.56 239.95,-126.24 240.08,-133.24"/>
</a>
</g>
</g>
<!-- Node3&#45;&gt;Node5 -->
<g id="edge4_Node000003_Node000005" class="edge">
<title>Node3&#45;&gt;Node5</title>
<g id="a_edge4_Node000003_Node000005"><a xlink:title=" ">
<path fill="none" stroke="#63b8ff" d="M244.38,-113.05C223.6,-108.24 200.52,-102.89 181.17,-98.41"/>
<polygon fill="#63b8ff" stroke="#63b8ff" points="243.31,-116.4 253.84,-115.25 244.89,-109.58 243.31,-116.4"/>
</a>
</g>
</g>
<!-- Node5&#45;&gt;Node4 -->
<g id="edge5_Node000005_Node000004" class="edge">
<title>Node5&#45;&gt;Node4</title>
<g id="a_edge5_Node000005_Node000004"><a xlink:title=" ">
<path fill="none" stroke="#63b8ff" d="M81.61,-78.9C67.1,-76.36 52.35,-73.78 41.07,-71.81"/>
<polygon fill="#63b8ff" stroke="#63b8ff" points="80.64,-82.28 91.1,-80.55 81.85,-75.38 80.64,-82.28"/>
</a>
</g>
</g>
<!-- Node6&#45;&gt;Node5 -->
<g id="edge7_Node000006_Node000005" class="edge">
<title>Node6&#45;&gt;Node5</title>
<g id="a_edge7_Node000006_Node000005"><a xlink:title=" ">
<path fill="none" stroke="#63b8ff" d="M244.38,-63.7C223.6,-68.51 200.52,-73.86 181.17,-78.34"/>
<polygon fill="#63b8ff" stroke="#63b8ff" points="244.89,-67.17 253.84,-61.5 243.31,-60.35 244.89,-67.17"/>
</a>
</g>
</g>
<!-- Node8 -->
<g id="Node000008" class="node">
<title>Node8</title>
<g id="a_Node000008"><a xlink:href="../../d6/d95/longlisting_8c.html#a9aa67dc0ec987dacbfbc8dfe5745c5be" target="_top" xlink:title="Prints a detailed listing of the contents of a directory.">
<polygon fill="white" stroke="#666666" points="184.25,-59.75 89.5,-59.75 89.5,-39 184.25,-39 184.25,-59.75"/>
<text text-anchor="middle" x="136.88" y="-46.25" font-family="Helvetica,sans-Serif" font-size="10.00">print_longlisting</text>
</a>
</g>
</g>
<!-- Node7&#45;&gt;Node8 -->
<g id="edge10_Node000007_Node000008" class="edge">
<title>Node7&#45;&gt;Node8</title>
<g id="a_edge10_Node000007_Node000008"><a xlink:title=" ">
<path fill="none" stroke="#63b8ff" d="M244.1,-24.76C224.6,-29.28 203.08,-34.27 184.55,-38.56"/>
<polygon fill="#63b8ff" stroke="#63b8ff" points="244.89,-28.17 253.84,-22.5 243.31,-21.35 244.89,-28.17"/>
</a>
</g>
</g>
<!-- Node9 -->
<g id="Node000009" class="node">
<title>Node9</title>
<g id="a_Node000009"><a xlink:href="../../d6/d95/longlisting_8c.html#a1af2c63d6b774640dcf8f6b3127dfa47" target="_top" xlink:title=" ">
<polygon fill="white" stroke="#666666" points="197,-20.75 76.75,-20.75 76.75,0 197,0 197,-20.75"/>
<text text-anchor="middle" x="136.88" y="-7.25" font-family="Helvetica,sans-Serif" font-size="10.00">print_longlisting_files</text>
</a>
</g>
</g>
<!-- Node7&#45;&gt;Node9 -->
<g id="edge12_Node000007_Node000009" class="edge">
<title>Node7&#45;&gt;Node9</title>
<g id="a_edge12_Node000007_Node000009"><a xlink:title=" ">
<path fill="none" stroke="#63b8ff" d="M234.67,-10.97C222.26,-10.89 209.39,-10.81 197.24,-10.74"/>
<polygon fill="#63b8ff" stroke="#63b8ff" points="234.36,-14.46 244.38,-11.02 234.4,-7.46 234.36,-14.46"/>
</a>
</g>
</g>
<!-- Node8&#45;&gt;Node4 -->
<g id="edge11_Node000008_Node000004" class="edge">
<title>Node8&#45;&gt;Node4</title>
<g id="a_edge11_Node000008_Node000004"><a xlink:title=" ">
<path fill="none" stroke="#63b8ff" d="M78.13,-58.96C64.77,-61.17 51.44,-63.39 41.06,-65.11"/>
<polygon fill="#63b8ff" stroke="#63b8ff" points="78.52,-62.44 87.81,-57.35 77.37,-55.54 78.52,-62.44"/>
</a>
</g>
</g>
<!-- Node9&#45;&gt;Node4 -->
<g id="edge13_Node000009_Node000004" class="edge">
<title>Node9&#45;&gt;Node4</title>
<g id="a_edge13_Node000009_Node000004"><a xlink:title=" ">
<path fill="none" stroke="#63b8ff" d="M88.2,-25.21C84.27,-26.82 80.41,-28.55 76.75,-30.38 61.53,-37.99 45.66,-49.28 34.83,-57.57"/>
<polygon fill="#63b8ff" stroke="#63b8ff" points="89.14,-28.6 97.24,-21.76 86.65,-22.06 89.14,-28.6"/>
</a>
</g>
</g>
</g>
</svg>
