<?xml version="1.0" encoding="UTF-8" standalone="no"?>
<!DOCTYPE svg PUBLIC "-//W3C//DTD SVG 1.1//EN"
 "http://www.w3.org/Graphics/SVG/1.1/DTD/svg11.dtd">
<!-- Generated by graphviz version 9.0.0 (20230911.1827)
 -->
<!-- Title: process_files_or_patterns Pages: 1 -->
<svg width="634pt" height="144pt"
 viewBox="0.00 0.00 634.00 143.75" xmlns="http://www.w3.org/2000/svg" xmlns:xlink="http://www.w3.org/1999/xlink">
<g id="graph0" class="graph" transform="scale(1 1) rotate(0) translate(4 139.75)">
<title>process_files_or_patterns</title>
<!-- Node1 -->
<g id="Node000001" class="node">
<title>Node1</title>
<g id="a_Node000001"><a xlink:title="Processes files or patterns and populates the entries array.">
<polygon fill="#999999" stroke="#666666" points="139.75,-97.75 0,-97.75 0,-77 139.75,-77 139.75,-97.75"/>
<text text-anchor="middle" x="69.88" y="-84.25" font-family="Helvetica,sans-Serif" font-size="10.00">process_files_or_patterns</text>
</a>
</g>
</g>
<!-- Node2 -->
<g id="Node000002" class="node">
<title>Node2</title>
<g id="a_Node000002"><a xlink:href="../../d0/d29/main_8c.html#a165f84d1d52e7a11077ff2b3ec8ba0c8" target="_top" xlink:title="Dynamically allocates or reallocates memory for directory entries.">
<polygon fill="white" stroke="#666666" points="271.62,-117.75 177.62,-117.75 177.62,-97 271.62,-97 271.62,-117.75"/>
<text text-anchor="middle" x="224.62" y="-104.25" font-family="Helvetica,sans-Serif" font-size="10.00">allocate_entries</text>
</a>
</g>
</g>
<!-- Node1&#45;&gt;Node2 -->
<g id="edge1_Node000001_Node000002" class="edge">
<title>Node1&#45;&gt;Node2</title>
<g id="a_edge1_Node000001_Node000002"><a xlink:title=" ">
<path fill="none" stroke="#63b8ff" d="M140.1,-96.44C148.78,-97.58 157.59,-98.73 166.07,-99.84"/>
<polygon fill="#63b8ff" stroke="#63b8ff" points="165.51,-103.3 175.88,-101.12 166.42,-96.35 165.51,-103.3"/>
</a>
</g>
</g>
<!-- Node3 -->
<g id="Node000003" class="node">
<title>Node3</title>
<g id="a_Node000003"><a xlink:href="../../dd/d6c/file__card_8c.html#a8ac3f1a318ebad42a9d465b92e4aa598" target="_top" xlink:title="Creates a new file card based on the given path.">
<polygon fill="white" stroke="#666666" points="273.5,-78.75 175.75,-78.75 175.75,-58 273.5,-58 273.5,-78.75"/>
<text text-anchor="middle" x="224.62" y="-65.25" font-family="Helvetica,sans-Serif" font-size="10.00">create_file_entry</text>
</a>
</g>
</g>
<!-- Node1&#45;&gt;Node3 -->
<g id="edge2_Node000001_Node000003" class="edge">
<title>Node1&#45;&gt;Node3</title>
<g id="a_edge2_Node000001_Node000003"><a xlink:title=" ">
<path fill="none" stroke="#63b8ff" d="M140.1,-78.76C148.16,-77.76 156.33,-76.75 164.24,-75.76"/>
<polygon fill="#63b8ff" stroke="#63b8ff" points="164.61,-79.24 174.11,-74.53 163.75,-72.3 164.61,-79.24"/>
</a>
</g>
</g>
<!-- Node4 -->
<g id="Node000004" class="node">
<title>Node4</title>
<g id="a_Node000004"><a xlink:href="../../d0/dc9/emoji__utils_8c.html#a853b78da7b6116949e96148e040669d5" target="_top" xlink:title="Determines the appropriate emoji for a given file based on its characteristics.">
<polygon fill="white" stroke="#666666" points="374.25,-78.75 309.5,-78.75 309.5,-58 374.25,-58 374.25,-78.75"/>
<text text-anchor="middle" x="341.88" y="-65.25" font-family="Helvetica,sans-Serif" font-size="10.00">get_emoji</text>
</a>
</g>
</g>
<!-- Node3&#45;&gt;Node4 -->
<g id="edge3_Node000003_Node000004" class="edge">
<title>Node3&#45;&gt;Node4</title>
<g id="a_edge3_Node000003_Node000004"><a xlink:title=" ">
<path fill="none" stroke="#63b8ff" d="M273.83,-68.38C281.78,-68.38 289.97,-68.38 297.78,-68.38"/>
<polygon fill="#63b8ff" stroke="#63b8ff" points="297.75,-71.88 307.75,-68.38 297.75,-64.88 297.75,-71.88"/>
</a>
</g>
</g>
<!-- Node5 -->
<g id="Node000005" class="node">
<title>Node5</title>
<g id="a_Node000005"><a xlink:href="../../d0/dc9/emoji__utils_8c.html#a5079b8c3657f088d68ae41fee9b299e3" target="_top" xlink:title="Checks the file content for specific patterns to determine the file type.">
<polygon fill="white" stroke="#666666" points="517,-135.75 410.25,-135.75 410.25,-115 517,-115 517,-135.75"/>
<text text-anchor="middle" x="463.62" y="-122.25" font-family="Helvetica,sans-Serif" font-size="10.00">check_file_content</text>
</a>
</g>
</g>
<!-- Node4&#45;&gt;Node5 -->
<g id="edge4_Node000004_Node000005" class="edge">
<title>Node4&#45;&gt;Node5</title>
<g id="a_edge4_Node000004_Node000005"><a xlink:title=" ">
<path fill="none" stroke="#63b8ff" d="M364.65,-79.22C377.81,-85.73 394.95,-94.12 410.25,-101.38 416.01,-104.11 422.15,-106.96 428.12,-109.72"/>
<polygon fill="#63b8ff" stroke="#63b8ff" points="426.65,-112.89 437.2,-113.88 429.57,-106.53 426.65,-112.89"/>
</a>
</g>
</g>
<!-- Node6 -->
<g id="Node000006" class="node">
<title>Node6</title>
<g id="a_Node000006"><a xlink:href="../../d0/dc9/emoji__utils_8c.html#a515d3420e13a8688464ad3b3c89c2ffb" target="_top" xlink:title="Safely duplicates a string, handling memory allocation errors.">
<polygon fill="white" stroke="#666666" points="626,-116.75 553,-116.75 553,-96 626,-96 626,-116.75"/>
<text text-anchor="middle" x="589.5" y="-103.25" font-family="Helvetica,sans-Serif" font-size="10.00">safe_strdup</text>
</a>
</g>
</g>
<!-- Node4&#45;&gt;Node6 -->
<g id="edge8_Node000004_Node000006" class="edge">
<title>Node4&#45;&gt;Node6</title>
<g id="a_edge8_Node000004_Node000006"><a xlink:title=" ">
<path fill="none" stroke="#63b8ff" d="M374.48,-73.27C416.83,-79.82 492.31,-91.49 541.37,-99.08"/>
<polygon fill="#63b8ff" stroke="#63b8ff" points="540.72,-102.52 551.14,-100.59 541.79,-95.61 540.72,-102.52"/>
</a>
</g>
</g>
<!-- Node7 -->
<g id="Node000007" class="node">
<title>Node7</title>
<g id="a_Node000007"><a xlink:href="../../d0/dc9/emoji__utils_8c.html#adcfc0049feddf60eec27fe2572291a2e" target="_top" xlink:title="Checks if a file is executable.">
<polygon fill="white" stroke="#666666" points="505,-59.75 422.25,-59.75 422.25,-39 505,-39 505,-59.75"/>
<text text-anchor="middle" x="463.62" y="-46.25" font-family="Helvetica,sans-Serif" font-size="10.00">is_executable</text>
</a>
</g>
</g>
<!-- Node4&#45;&gt;Node7 -->
<g id="edge6_Node000004_Node000007" class="edge">
<title>Node4&#45;&gt;Node7</title>
<g id="a_edge6_Node000004_Node000007"><a xlink:title=" ">
<path fill="none" stroke="#63b8ff" d="M374.65,-63.33C385.79,-61.57 398.61,-59.53 410.96,-57.57"/>
<polygon fill="#63b8ff" stroke="#63b8ff" points="411.27,-61.07 420.6,-56.04 410.18,-54.15 411.27,-61.07"/>
</a>
</g>
</g>
<!-- Node8 -->
<g id="Node000008" class="node">
<title>Node8</title>
<g id="a_Node000008"><a xlink:href="../../d0/dc9/emoji__utils_8c.html#a3bfec7595ef6d300266b38d3a17b039e" target="_top" xlink:title="Checks if a file is a text file by examining its contents.">
<polygon fill="white" stroke="#666666" points="498.25,-20.75 429,-20.75 429,0 498.25,0 498.25,-20.75"/>
<text text-anchor="middle" x="463.62" y="-7.25" font-family="Helvetica,sans-Serif" font-size="10.00">is_text_file</text>
</a>
</g>
</g>
<!-- Node4&#45;&gt;Node8 -->
<g id="edge7_Node000004_Node000008" class="edge">
<title>Node4&#45;&gt;Node8</title>
<g id="a_edge7_Node000004_Node000008"><a xlink:title=" ">
<path fill="none" stroke="#63b8ff" d="M360.23,-57.64C373.62,-49.59 392.75,-38.6 410.25,-30.38 413.95,-28.64 417.84,-26.93 421.76,-25.3"/>
<polygon fill="#63b8ff" stroke="#63b8ff" points="422.73,-28.68 430.71,-21.71 420.13,-22.18 422.73,-28.68"/>
</a>
</g>
</g>
<!-- Node5&#45;&gt;Node6 -->
<g id="edge5_Node000005_Node000006" class="edge">
<title>Node5&#45;&gt;Node6</title>
<g id="a_edge5_Node000005_Node000006"><a xlink:title=" ">
<path fill="none" stroke="#63b8ff" d="M517.16,-117.32C525.22,-116.08 533.5,-114.81 541.44,-113.59"/>
<polygon fill="#63b8ff" stroke="#63b8ff" points="541.9,-117.06 551.25,-112.09 540.84,-110.14 541.9,-117.06"/>
</a>
</g>
</g>
</g>
</svg>
