<?xml version="1.0" encoding="UTF-8" standalone="no"?>
<!DOCTYPE svg PUBLIC "-//W3C//DTD SVG 1.1//EN"
 "http://www.w3.org/Graphics/SVG/1.1/DTD/svg11.dtd">
<!-- Generated by graphviz version 9.0.0 (20230911.1827)
 -->
<!-- Title: process_directory Pages: 1 -->
<!--zoomable 212 -->

<svg id="main" version="1.1" xmlns="http://www.w3.org/2000/svg" xmlns:xlink="http://www.w3.org/1999/xlink" xml:space="preserve" onload="init(evt)">
<style type="text/css"><![CDATA[
.node, .edge {opacity: 0.7;}
.node.selected, .edge.selected {opacity: 1;}
.edge:hover path { stroke: red; }
.edge:hover polygon { stroke: red; fill: red; }
]]></style>

<defs>
  <circle id="rim" cx="0" cy="0" r="7"/>
  <circle id="rim2" cx="0" cy="0" r="3.5"/>
  <g id="zoomPlus">
    <use xlink:href="#rim" fill="#404040"><set attributeName="fill" to="#808080" begin="zoomplus.mouseover" end="zoomplus.mouseout"/></use>
    <path d="M-4,0h8M0,-4v8" fill="none" stroke="white" stroke-width="1.5" pointer-events="none"/>
  </g>
  <g id="zoomMin">
    <use xlink:href="#rim" fill="#404040"><set attributeName="fill" to="#808080" begin="zoomminus.mouseover" end="zoomminus.mouseout"/></use>
    <path d="M-4,0h8" fill="none" stroke="white" stroke-width="1.5" pointer-events="none"/>
  </g>
  <g id="arrowUp" transform="translate(30 24)">
    <use xlink:href="#rim"/>
    <path pointer-events="none" fill="none" stroke="white" stroke-width="1.5" d="M0,-3.0v7 M-2.5,-0.5L0,-3.0L2.5,-0.5"/>
  </g>
  <g id="arrowRight" transform="rotate(90) translate(36 -43)">
    <use xlink:href="#rim"/>
    <path pointer-events="none" fill="none" stroke="white" stroke-width="1.5" d="M0,-3.0v7 M-2.5,-0.5L0,-3.0L2.5,-0.5"/>
  </g>
  <g id="arrowDown" transform="rotate(180) translate(-30 -48)">
    <use xlink:href="#rim"/>
    <path pointer-events="none" fill="none" stroke="white" stroke-width="1.5" d="M0,-3.0v7 M-2.5,-0.5L0,-3.0L2.5,-0.5"/>
  </g>
  <g id="arrowLeft" transform="rotate(270) translate(-36 17)">
    <use xlink:href="#rim"/>
    <path pointer-events="none" fill="none" stroke="white" stroke-width="1.5" d="M0,-3.0v7 M-2.5,-0.5L0,-3.0L2.5,-0.5"/>
  </g>
  <g id="resetDef">
    <use xlink:href="#rim2" fill="#404040"><set attributeName="fill" to="#808080" begin="reset.mouseover" end="reset.mouseout"/></use>
  </g>
</defs>
<script type="application/ecmascript">
var viewWidth = 645;
var viewHeight = 212;
var sectionId = 'dynsection-6';
</script>
<script type="application/ecmascript" xlink:href="../../svg.min.js"/>
<svg id="graph" class="graph">
<g id="viewport">
<title>process_directory</title>
<!-- Node1 -->
<g id="Node000001" class="node">
<title>Node1</title>
<g id="a_Node000001"><a xlink:title="Processes directory entries and populates the entries array.">
<polygon fill="#999999" stroke="#666666" points="102.25,-108.75 0,-108.75 0,-88 102.25,-88 102.25,-108.75"/>
<text text-anchor="middle" x="51.12" y="-95.25" font-family="Helvetica,sans-Serif" font-size="10.00">process_directory</text>
</a>
</g>
</g>
<!-- Node2 -->
<g id="Node000002" class="node">
<title>Node2</title>
<g id="a_Node000002"><a xlink:href="../../d0/d29/main_8c.html#a165f84d1d52e7a11077ff2b3ec8ba0c8" target="_top" xlink:title="Dynamically allocates or reallocates memory for directory entries.">
<polygon fill="white" stroke="#666666" points="242,-147.75 148,-147.75 148,-127 242,-127 242,-147.75"/>
<text text-anchor="middle" x="195" y="-134.25" font-family="Helvetica,sans-Serif" font-size="10.00">allocate_entries</text>
</a>
</g>
</g>
<!-- Node1&#45;&gt;Node2 -->
<g id="edge1_Node000001_Node000002" class="edge">
<title>Node1&#45;&gt;Node2</title>
<g id="a_edge1_Node000001_Node000002"><a xlink:title=" ">
<path fill="none" stroke="#63b8ff" d="M91.65,-109.24C107.79,-113.68 126.65,-118.86 143.75,-123.56"/>
<polygon fill="#63b8ff" stroke="#63b8ff" points="142.66,-126.89 153.23,-126.17 144.52,-120.14 142.66,-126.89"/>
</a>
</g>
</g>
<!-- Node3 -->
<g id="Node000003" class="node">
<title>Node3</title>
<g id="a_Node000003"><a xlink:href="../../dd/d6c/file__card_8c.html#a8ac3f1a318ebad42a9d465b92e4aa598" target="_top" xlink:title="Creates a new file card based on the given path.">
<polygon fill="white" stroke="#666666" points="243.88,-108.75 146.12,-108.75 146.12,-88 243.88,-88 243.88,-108.75"/>
<text text-anchor="middle" x="195" y="-95.25" font-family="Helvetica,sans-Serif" font-size="10.00">create_file_entry</text>
</a>
</g>
</g>
<!-- Node1&#45;&gt;Node3 -->
<g id="edge2_Node000001_Node000003" class="edge">
<title>Node1&#45;&gt;Node3</title>
<g id="a_edge2_Node000001_Node000003"><a xlink:title=" ">
<path fill="none" stroke="#63b8ff" d="M102.54,-98.38C112.84,-98.38 123.76,-98.38 134.34,-98.38"/>
<polygon fill="#63b8ff" stroke="#63b8ff" points="134.13,-101.88 144.13,-98.38 134.13,-94.88 134.13,-101.88"/>
</a>
</g>
</g>
<!-- Node9 -->
<g id="Node000009" class="node">
<title>Node9</title>
<g id="a_Node000009"><a xlink:href="../../df/d77/git__integration_8c.html#ac8420e6fdcd1a0373f840ecbe95a220a" target="_top" xlink:title="Integrates Git status information into file entries.">
<polygon fill="white" stroke="#666666" points="251.75,-59.75 138.25,-59.75 138.25,-39 251.75,-39 251.75,-59.75"/>
<text text-anchor="middle" x="195" y="-46.25" font-family="Helvetica,sans-Serif" font-size="10.00">integrate_git_status</text>
</a>
</g>
</g>
<!-- Node1&#45;&gt;Node9 -->
<g id="edge9_Node000001_Node000009" class="edge">
<title>Node1&#45;&gt;Node9</title>
<g id="a_edge9_Node000001_Node000009"><a xlink:title=" ">
<path fill="none" stroke="#63b8ff" d="M83.61,-87.5C103.72,-80.55 130.04,-71.46 151.93,-63.9"/>
<polygon fill="#63b8ff" stroke="#63b8ff" points="152.86,-67.29 161.17,-60.71 150.58,-60.67 152.86,-67.29"/>
</a>
</g>
</g>
<!-- Node4 -->
<g id="Node000004" class="node">
<title>Node4</title>
<g id="a_Node000004"><a xlink:href="../../d0/dc9/emoji__utils_8c.html#a853b78da7b6116949e96148e040669d5" target="_top" xlink:title="Determines the appropriate emoji for a given file based on its characteristics.">
<polygon fill="white" stroke="#666666" points="368.62,-127.75 303.88,-127.75 303.88,-107 368.62,-107 368.62,-127.75"/>
<text text-anchor="middle" x="336.25" y="-114.25" font-family="Helvetica,sans-Serif" font-size="10.00">get_emoji</text>
</a>
</g>
</g>
<!-- Node3&#45;&gt;Node4 -->
<g id="edge3_Node000003_Node000004" class="edge">
<title>Node3&#45;&gt;Node4</title>
<g id="a_edge3_Node000003_Node000004"><a xlink:title=" ">
<path fill="none" stroke="#63b8ff" d="M244.31,-104.97C259.96,-107.1 277.2,-109.45 292.42,-111.53"/>
<polygon fill="#63b8ff" stroke="#63b8ff" points="291.73,-114.97 302.11,-112.85 292.68,-108.03 291.73,-114.97"/>
</a>
</g>
</g>
<!-- Node5 -->
<g id="Node000005" class="node">
<title>Node5</title>
<g id="a_Node000005"><a xlink:href="../../d0/dc9/emoji__utils_8c.html#a5079b8c3657f088d68ae41fee9b299e3" target="_top" xlink:title="Checks the file content for specific patterns to determine the file type.">
<polygon fill="white" stroke="#666666" points="527.5,-203.75 420.75,-203.75 420.75,-183 527.5,-183 527.5,-203.75"/>
<text text-anchor="middle" x="474.12" y="-190.25" font-family="Helvetica,sans-Serif" font-size="10.00">check_file_content</text>
</a>
</g>
</g>
<!-- Node4&#45;&gt;Node5 -->
<g id="edge4_Node000004_Node000005" class="edge">
<title>Node4&#45;&gt;Node5</title>
<g id="a_edge4_Node000004_Node000005"><a xlink:title=" ">
<path fill="none" stroke="#63b8ff" d="M353.21,-128.16C369.75,-139.14 396.53,-156.35 420.75,-169.38 426.15,-172.28 431.96,-175.16 437.68,-177.88"/>
<polygon fill="#63b8ff" stroke="#63b8ff" points="435.85,-180.88 446.39,-181.9 438.78,-174.53 435.85,-180.88"/>
</a>
</g>
</g>
<!-- Node6 -->
<g id="Node000006" class="node">
<title>Node6</title>
<g id="a_Node000006"><a xlink:href="../../d0/dc9/emoji__utils_8c.html#a515d3420e13a8688464ad3b3c89c2ffb" target="_top" xlink:title="Safely duplicates a string, handling memory allocation errors.">
<polygon fill="white" stroke="#666666" points="636.5,-184.75 563.5,-184.75 563.5,-164 636.5,-164 636.5,-184.75"/>
<text text-anchor="middle" x="600" y="-171.25" font-family="Helvetica,sans-Serif" font-size="10.00">safe_strdup</text>
</a>
</g>
</g>
<!-- Node4&#45;&gt;Node6 -->
<g id="edge8_Node000004_Node000006" class="edge">
<title>Node4&#45;&gt;Node6</title>
<g id="a_edge8_Node000004_Node000006"><a xlink:title=" ">
<path fill="none" stroke="#63b8ff" d="M368.95,-124.69C384.54,-128.27 403.62,-132.6 420.75,-136.38 465.22,-146.17 516.03,-156.97 551.99,-164.54"/>
<polygon fill="#63b8ff" stroke="#63b8ff" points="551.13,-167.93 561.64,-166.57 552.57,-161.08 551.13,-167.93"/>
</a>
</g>
</g>
<!-- Node7 -->
<g id="Node000007" class="node">
<title>Node7</title>
<g id="a_Node000007"><a xlink:href="../../d0/dc9/emoji__utils_8c.html#adcfc0049feddf60eec27fe2572291a2e" target="_top" xlink:title="Checks if a file is executable.">
<polygon fill="white" stroke="#666666" points="515.5,-127.75 432.75,-127.75 432.75,-107 515.5,-107 515.5,-127.75"/>
<text text-anchor="middle" x="474.12" y="-114.25" font-family="Helvetica,sans-Serif" font-size="10.00">is_executable</text>
</a>
</g>
</g>
<!-- Node4&#45;&gt;Node7 -->
<g id="edge6_Node000004_Node000007" class="edge">
<title>Node4&#45;&gt;Node7</title>
<g id="a_edge6_Node000004_Node000007"><a xlink:title=" ">
<path fill="none" stroke="#63b8ff" d="M369.11,-117.38C384.54,-117.38 403.47,-117.38 420.94,-117.38"/>
<polygon fill="#63b8ff" stroke="#63b8ff" points="420.92,-120.88 430.92,-117.38 420.92,-113.88 420.92,-120.88"/>
</a>
</g>
</g>
<!-- Node8 -->
<g id="Node000008" class="node">
<title>Node8</title>
<g id="a_Node000008"><a xlink:href="../../d0/dc9/emoji__utils_8c.html#a3bfec7595ef6d300266b38d3a17b039e" target="_top" xlink:title="Checks if a file is a text file by examining its contents.">
<polygon fill="white" stroke="#666666" points="508.75,-88.75 439.5,-88.75 439.5,-68 508.75,-68 508.75,-88.75"/>
<text text-anchor="middle" x="474.12" y="-75.25" font-family="Helvetica,sans-Serif" font-size="10.00">is_text_file</text>
</a>
</g>
</g>
<!-- Node4&#45;&gt;Node8 -->
<g id="edge7_Node000004_Node000008" class="edge">
<title>Node4&#45;&gt;Node8</title>
<g id="a_edge7_Node000004_Node000008"><a xlink:title=" ">
<path fill="none" stroke="#63b8ff" d="M369.11,-108.23C386.68,-103.19 408.79,-96.84 428.1,-91.3"/>
<polygon fill="#63b8ff" stroke="#63b8ff" points="428.99,-94.68 437.64,-88.56 427.06,-87.96 428.99,-94.68"/>
</a>
</g>
</g>
<!-- Node5&#45;&gt;Node6 -->
<g id="edge5_Node000005_Node000006" class="edge">
<title>Node5&#45;&gt;Node6</title>
<g id="a_edge5_Node000005_Node000006"><a xlink:title=" ">
<path fill="none" stroke="#63b8ff" d="M527.66,-185.32C535.72,-184.08 544,-182.81 551.94,-181.59"/>
<polygon fill="#63b8ff" stroke="#63b8ff" points="552.4,-185.06 561.75,-180.09 551.34,-178.14 552.4,-185.06"/>
</a>
</g>
</g>
<!-- Node10 -->
<g id="Node000010" class="node">
<title>Node10</title>
<g id="a_Node000010"><a xlink:href="../../d1/db9/git__utils_8c.html#a1af8df0b83d4e26524cdb4371b7bd7a6" target="_top" xlink:title="Retrieves the Git status for all files in the current repository.">
<polygon fill="white" stroke="#666666" points="378.75,-59.75 293.75,-59.75 293.75,-39 378.75,-39 378.75,-59.75"/>
<text text-anchor="middle" x="336.25" y="-46.25" font-family="Helvetica,sans-Serif" font-size="10.00">get_git_status</text>
</a>
</g>
</g>
<!-- Node9&#45;&gt;Node10 -->
<g id="edge10_Node000009_Node000010" class="edge">
<title>Node9&#45;&gt;Node10</title>
<g id="a_edge10_Node000009_Node000010"><a xlink:title=" ">
<path fill="none" stroke="#63b8ff" d="M252.24,-49.38C262.11,-49.38 272.36,-49.38 282.14,-49.38"/>
<polygon fill="#63b8ff" stroke="#63b8ff" points="281.86,-52.88 291.86,-49.38 281.86,-45.88 281.86,-52.88"/>
</a>
</g>
</g>
<!-- Node12 -->
<g id="Node000012" class="node">
<title>Node12</title>
<g id="a_Node000012"><a xlink:href="../../d1/db9/git__utils_8c.html#a51ae0134feff92edfd5cf268cd0b1acf" target="_top" xlink:title="Checks if the current directory is part of a Git repository.">
<polygon fill="white" stroke="#666666" points="384.75,-20.75 287.75,-20.75 287.75,0 384.75,0 384.75,-20.75"/>
<text text-anchor="middle" x="336.25" y="-7.25" font-family="Helvetica,sans-Serif" font-size="10.00">is_git_repository</text>
</a>
</g>
</g>
<!-- Node9&#45;&gt;Node12 -->
<g id="edge12_Node000009_Node000012" class="edge">
<title>Node9&#45;&gt;Node12</title>
<g id="a_edge12_Node000009_Node000012"><a xlink:title=" ">
<path fill="none" stroke="#63b8ff" d="M234.79,-38.51C250.63,-34.07 269.15,-28.89 285.93,-24.19"/>
<polygon fill="#63b8ff" stroke="#63b8ff" points="286.53,-27.66 295.21,-21.59 284.64,-20.92 286.53,-27.66"/>
</a>
</g>
</g>
<!-- Node11 -->
<g id="Node000011" class="node">
<title>Node11</title>
<g id="a_Node000011"><a xlink:href="../../d1/db9/git__utils_8c.html#aa639b9b3bbea0da0a09fbad3ca69aa5d" target="_top" xlink:title="Parses a Git status string and returns a single character status code.">
<polygon fill="white" stroke="#666666" points="513.25,-49.75 435,-49.75 435,-29 513.25,-29 513.25,-49.75"/>
<text text-anchor="middle" x="474.12" y="-36.25" font-family="Helvetica,sans-Serif" font-size="10.00">parse_status</text>
</a>
</g>
</g>
<!-- Node10&#45;&gt;Node11 -->
<g id="edge11_Node000010_Node000011" class="edge">
<title>Node10&#45;&gt;Node11</title>
<g id="a_edge11_Node000010_Node000011"><a xlink:title=" ">
<path fill="none" stroke="#63b8ff" d="M379.13,-46.29C393.15,-45.26 408.93,-44.1 423.49,-43.03"/>
<polygon fill="#63b8ff" stroke="#63b8ff" points="423.63,-46.53 433.35,-42.3 423.12,-39.55 423.63,-46.53"/>
</a>
</g>
</g>
</g>
</svg>

<g id="navigator" transform="translate(0 0)" fill="#404254">
  <rect fill="#f2f5e9" fill-opacity="0.5" stroke="#606060" stroke-width=".5" x="0" y="0" width="60" height="60"/>
  <use id="zoomplus" xlink:href="#zoomPlus" x="17" y="9" onmousedown="handleZoom(evt,'in')"/>
  <use id="zoomminus" xlink:href="#zoomMin" x="42" y="9" onmousedown="handleZoom(evt,'out')"/>
  <use id="reset" xlink:href="#resetDef" x="30" y="36" onmousedown="handleReset()"/>
   <use id="arrowup" xlink:href="#arrowUp" x="0" y="0" onmousedown="handlePan(0,-1)"/>
  <use id="arrowright" xlink:href="#arrowRight" x="0" y="0" onmousedown="handlePan(1,0)"/>
  <use id="arrowdown" xlink:href="#arrowDown" x="0" y="0" onmousedown="handlePan(0,1)"/>
  <use id="arrowleft" xlink:href="#arrowLeft" x="0" y="0" onmousedown="handlePan(-1,0)"/>
</g>
<svg viewBox="0 0 15 15" width="100%" height="30px" preserveAspectRatio="xMaxYMin meet">
 <g id="arrow_out" transform="scale(0.3 0.3)">
  <a xlink:href="main_8c_acc392fbd2ea6b07ebcc2b9c089aae2ca_cgraph_org.svg" target="_base">
   <rect id="button" ry="5" rx="5" y="6" x="6" height="38" width="38"
        fill="#f2f5e9" fill-opacity="0.5" stroke="#606060" stroke-width="1.0"/>
   <path id="arrow"
     d="M 11.500037,31.436501 C 11.940474,20.09759 22.043105,11.32322 32.158766,21.979434 L 37.068811,17.246167 C 37.068811,17.246167 37.088388,32 37.088388,32 L 22.160133,31.978069 C 22.160133,31.978069 26.997745,27.140456 26.997745,27.140456 C 18.528582,18.264221 13.291696,25.230495 11.500037,31.436501 z"
     style="fill:#404040;"/>
  </a>
 </g>
</svg>

<style type='text/css'>
<![CDATA[
[data-mouse-over-selected='false'] { opacity: 0.7; }
[data-mouse-over-selected='true']  { opacity: 1.0; }
]]>
</style>
<script type="application/ecmascript"><![CDATA[
document.addEventListener('DOMContentLoaded', (event) => {
  highlightEdges();
  highlightAdjacentNodes();
});
]]></script>
</svg>
