<?xml version="1.0" encoding="UTF-8" standalone="no"?>
<!DOCTYPE svg PUBLIC "-//W3C//DTD SVG 1.1//EN"
 "http://www.w3.org/Graphics/SVG/1.1/DTD/svg11.dtd">
<!-- Generated by graphviz version 9.0.0 (20230911.1827)
 -->
<!-- Title: is_directory Pages: 1 -->
<svg width="301pt" height="80pt"
 viewBox="0.00 0.00 301.25 80.12" xmlns="http://www.w3.org/2000/svg" xmlns:xlink="http://www.w3.org/1999/xlink">
<g id="graph0" class="graph" transform="scale(1 1) rotate(0) translate(4 76.12)">
<title>is_directory</title>
<!-- Node1 -->
<g id="Node000001" class="node">
<title>Node1</title>
<g id="a_Node000001"><a xlink:title="Checks if a given path is a directory.">
<polygon fill="#999999" stroke="#666666" points="293.25,-42.75 220.25,-42.75 220.25,-22 293.25,-22 293.25,-42.75"/>
<text text-anchor="middle" x="256.75" y="-29.25" font-family="Helvetica,sans-Serif" font-size="10.00">is_directory</text>
</a>
</g>
</g>
<!-- Node2 -->
<g id="Node000002" class="node">
<title>Node2</title>
<g id="a_Node000002"><a xlink:href="../../d0/d29/main_8c.html#a116587b452eeb0a0e9f7d9602ba67ae0" target="_top" xlink:title="Checks if the targets are glob patterns or specific files.">
<polygon fill="white" stroke="#666666" points="184.25,-72.12 76.75,-72.12 76.75,-38.62 184.25,-38.62 184.25,-72.12"/>
<text text-anchor="start" x="84.75" y="-58.62" font-family="Helvetica,sans-Serif" font-size="10.00">is_glob_or_specific</text>
<text text-anchor="middle" x="130.5" y="-45.88" font-family="Helvetica,sans-Serif" font-size="10.00">_files</text>
</a>
</g>
</g>
<!-- Node1&#45;&gt;Node2 -->
<g id="edge1_Node000001_Node000002" class="edge">
<title>Node1&#45;&gt;Node2</title>
<g id="a_edge1_Node000001_Node000002"><a xlink:title=" ">
<path fill="none" stroke="#63b8ff" d="M208.57,-41.11C200.69,-42.57 192.47,-44.09 184.46,-45.57"/>
<polygon fill="#63b8ff" stroke="#63b8ff" points="209.13,-44.56 218.32,-39.3 207.85,-37.68 209.13,-44.56"/>
</a>
</g>
</g>
<!-- Node4 -->
<g id="Node000004" class="node">
<title>Node4</title>
<g id="a_Node000004"><a xlink:href="../../d0/d29/main_8c.html#ae7d3bb334fabeeccc7dfb05e7f968d47" target="_top" xlink:title="Processes a single target (directory, file, or pattern).">
<polygon fill="white" stroke="#666666" points="174.5,-20.75 86.5,-20.75 86.5,0 174.5,0 174.5,-20.75"/>
<text text-anchor="middle" x="130.5" y="-7.25" font-family="Helvetica,sans-Serif" font-size="10.00">process_target</text>
</a>
</g>
</g>
<!-- Node1&#45;&gt;Node4 -->
<g id="edge3_Node000001_Node000004" class="edge">
<title>Node1&#45;&gt;Node4</title>
<g id="a_edge3_Node000001_Node000004"><a xlink:title=" ">
<path fill="none" stroke="#63b8ff" d="M208.57,-24.02C197.5,-22.06 185.74,-19.98 174.84,-18.05"/>
<polygon fill="#63b8ff" stroke="#63b8ff" points="207.86,-27.45 218.32,-25.75 209.08,-20.56 207.86,-27.45"/>
</a>
</g>
</g>
<!-- Node3 -->
<g id="Node000003" class="node">
<title>Node3</title>
<g id="a_Node000003"><a xlink:href="../../d0/d29/main_8c.html#a0ddf1224851353fc92bfbff6f499fa97" target="_top" xlink:title="Main function of the facad program.">
<polygon fill="white" stroke="#666666" points="40.75,-42.75 0,-42.75 0,-22 40.75,-22 40.75,-42.75"/>
<text text-anchor="middle" x="20.38" y="-29.25" font-family="Helvetica,sans-Serif" font-size="10.00">main</text>
</a>
</g>
</g>
<!-- Node2&#45;&gt;Node3 -->
<g id="edge2_Node000002_Node000003" class="edge">
<title>Node2&#45;&gt;Node3</title>
<g id="a_edge2_Node000002_Node000003"><a xlink:title=" ">
<path fill="none" stroke="#63b8ff" d="M65.22,-41.7C56.49,-39.85 48.14,-38.07 41.11,-36.57"/>
<polygon fill="#63b8ff" stroke="#63b8ff" points="64.4,-45.1 74.91,-43.76 65.85,-38.26 64.4,-45.1"/>
</a>
</g>
</g>
<!-- Node4&#45;&gt;Node3 -->
<g id="edge4_Node000004_Node000003" class="edge">
<title>Node4&#45;&gt;Node3</title>
<g id="a_edge4_Node000004_Node000003"><a xlink:title=" ">
<path fill="none" stroke="#63b8ff" d="M75.02,-21.46C62.84,-23.94 50.69,-26.41 41.04,-28.37"/>
<polygon fill="#63b8ff" stroke="#63b8ff" points="75.56,-24.92 84.66,-19.5 74.16,-18.06 75.56,-24.92"/>
</a>
</g>
</g>
</g>
</svg>
