<?xml version="1.0" encoding="UTF-8" standalone="no"?>
<!DOCTYPE svg PUBLIC "-//W3C//DTD SVG 1.1//EN"
 "http://www.w3.org/Graphics/SVG/1.1/DTD/svg11.dtd">
<!-- Generated by graphviz version 9.0.0 (20230911.1827)
 -->
<!-- Title: process_target Pages: 1 -->
<!--zoomable 240 -->

<svg id="main" version="1.1" xmlns="http://www.w3.org/2000/svg" xmlns:xlink="http://www.w3.org/1999/xlink" xml:space="preserve" onload="init(evt)">
<style type="text/css"><![CDATA[
.node, .edge {opacity: 0.7;}
.node.selected, .edge.selected {opacity: 1;}
.edge:hover path { stroke: red; }
.edge:hover polygon { stroke: red; fill: red; }
]]></style>

<defs>
  <circle id="rim" cx="0" cy="0" r="7"/>
  <circle id="rim2" cx="0" cy="0" r="3.5"/>
  <g id="zoomPlus">
    <use xlink:href="#rim" fill="#404040"><set attributeName="fill" to="#808080" begin="zoomplus.mouseover" end="zoomplus.mouseout"/></use>
    <path d="M-4,0h8M0,-4v8" fill="none" stroke="white" stroke-width="1.5" pointer-events="none"/>
  </g>
  <g id="zoomMin">
    <use xlink:href="#rim" fill="#404040"><set attributeName="fill" to="#808080" begin="zoomminus.mouseover" end="zoomminus.mouseout"/></use>
    <path d="M-4,0h8" fill="none" stroke="white" stroke-width="1.5" pointer-events="none"/>
  </g>
  <g id="arrowUp" transform="translate(30 24)">
    <use xlink:href="#rim"/>
    <path pointer-events="none" fill="none" stroke="white" stroke-width="1.5" d="M0,-3.0v7 M-2.5,-0.5L0,-3.0L2.5,-0.5"/>
  </g>
  <g id="arrowRight" transform="rotate(90) translate(36 -43)">
    <use xlink:href="#rim"/>
    <path pointer-events="none" fill="none" stroke="white" stroke-width="1.5" d="M0,-3.0v7 M-2.5,-0.5L0,-3.0L2.5,-0.5"/>
  </g>
  <g id="arrowDown" transform="rotate(180) translate(-30 -48)">
    <use xlink:href="#rim"/>
    <path pointer-events="none" fill="none" stroke="white" stroke-width="1.5" d="M0,-3.0v7 M-2.5,-0.5L0,-3.0L2.5,-0.5"/>
  </g>
  <g id="arrowLeft" transform="rotate(270) translate(-36 17)">
    <use xlink:href="#rim"/>
    <path pointer-events="none" fill="none" stroke="white" stroke-width="1.5" d="M0,-3.0v7 M-2.5,-0.5L0,-3.0L2.5,-0.5"/>
  </g>
  <g id="resetDef">
    <use xlink:href="#rim2" fill="#404040"><set attributeName="fill" to="#808080" begin="reset.mouseover" end="reset.mouseout"/></use>
  </g>
</defs>
<script type="application/ecmascript">
var viewWidth = 806;
var viewHeight = 240;
var sectionId = 'dynsection-10';
</script>
<script type="application/ecmascript" xlink:href="../../svg.min.js"/>
<svg id="graph" class="graph">
<g id="viewport">
<title>process_target</title>
<!-- Node1 -->
<g id="Node000001" class="node">
<title>Node1</title>
<g id="a_Node000001"><a xlink:title="Processes a single target (directory, file, or pattern).">
<polygon fill="#999999" stroke="#666666" points="88,-116.75 0,-116.75 0,-96 88,-96 88,-116.75"/>
<text text-anchor="middle" x="44" y="-103.25" font-family="Helvetica,sans-Serif" font-size="10.00">process_target</text>
</a>
</g>
</g>
<!-- Node2 -->
<g id="Node000002" class="node">
<title>Node2</title>
<g id="a_Node000002"><a xlink:href="../../d0/d29/main_8c.html#a165f84d1d52e7a11077ff2b3ec8ba0c8" target="_top" xlink:title="Dynamically allocates or reallocates memory for directory entries.">
<polygon fill="white" stroke="#666666" points="403.5,-174.75 309.5,-174.75 309.5,-154 403.5,-154 403.5,-174.75"/>
<text text-anchor="middle" x="356.5" y="-161.25" font-family="Helvetica,sans-Serif" font-size="10.00">allocate_entries</text>
</a>
</g>
</g>
<!-- Node1&#45;&gt;Node2 -->
<g id="edge1_Node000001_Node000002" class="edge">
<title>Node1&#45;&gt;Node2</title>
<g id="a_edge1_Node000001_Node000002"><a xlink:title=" ">
<path fill="none" stroke="#63b8ff" d="M51.89,-117.2C63.96,-135.02 90.82,-169.88 124,-183.38 186.94,-208.97 267.31,-192.65 314.91,-178.49"/>
<polygon fill="#63b8ff" stroke="#63b8ff" points="315.73,-181.9 324.25,-175.6 313.66,-175.21 315.73,-181.9"/>
</a>
</g>
</g>
<!-- Node3 -->
<g id="Node000003" class="node">
<title>Node3</title>
<g id="a_Node000003"><a xlink:href="../../dd/d6c/file__card_8c.html#a8ac3f1a318ebad42a9d465b92e4aa598" target="_top" xlink:title="Creates a new file card based on the given path.">
<polygon fill="white" stroke="#666666" points="405.38,-135.75 307.62,-135.75 307.62,-115 405.38,-115 405.38,-135.75"/>
<text text-anchor="middle" x="356.5" y="-122.25" font-family="Helvetica,sans-Serif" font-size="10.00">create_file_entry</text>
</a>
</g>
</g>
<!-- Node1&#45;&gt;Node3 -->
<g id="edge2_Node000001_Node000003" class="edge">
<title>Node1&#45;&gt;Node3</title>
<g id="a_edge2_Node000001_Node000003"><a xlink:title=" ">
<path fill="none" stroke="#63b8ff" d="M88.3,-103.78C132.53,-101.74 203.11,-100.16 263.75,-106.38 276.02,-107.63 289.06,-109.81 301.35,-112.25"/>
<polygon fill="#63b8ff" stroke="#63b8ff" points="300.39,-115.63 310.9,-114.24 301.82,-108.78 300.39,-115.63"/>
</a>
</g>
</g>
<!-- Node9 -->
<g id="Node000009" class="node">
<title>Node9</title>
<g id="a_Node000009"><a xlink:href="../../d0/d29/main_8c.html#afd7cf5224b764819fb3a9463774482c5" target="_top" xlink:title="Checks if a given path is a directory.">
<polygon fill="white" stroke="#666666" points="230.38,-59.75 157.38,-59.75 157.38,-39 230.38,-39 230.38,-59.75"/>
<text text-anchor="middle" x="193.88" y="-46.25" font-family="Helvetica,sans-Serif" font-size="10.00">is_directory</text>
</a>
</g>
</g>
<!-- Node1&#45;&gt;Node9 -->
<g id="edge9_Node000001_Node000009" class="edge">
<title>Node1&#45;&gt;Node9</title>
<g id="a_edge9_Node000001_Node000009"><a xlink:title=" ">
<path fill="none" stroke="#63b8ff" d="M69.75,-95.58C85.24,-88.94 105.68,-80.39 124,-73.38 132.32,-70.19 141.26,-66.95 149.86,-63.92"/>
<polygon fill="#63b8ff" stroke="#63b8ff" points="150.77,-67.3 159.06,-60.71 148.47,-60.69 150.77,-67.3"/>
</a>
</g>
</g>
<!-- Node10 -->
<g id="Node000010" class="node">
<title>Node10</title>
<g id="a_Node000010"><a xlink:href="../../df/dad/args__parser_8c.html#ac7b851d3c3ad6d7a78c3e0aabb176d15" target="_top" xlink:title="Checks if a string is a glob pattern.">
<polygon fill="white" stroke="#666666" points="239.38,-20.75 148.38,-20.75 148.38,0 239.38,0 239.38,-20.75"/>
<text text-anchor="middle" x="193.88" y="-7.25" font-family="Helvetica,sans-Serif" font-size="10.00">is_glob_pattern</text>
</a>
</g>
</g>
<!-- Node1&#45;&gt;Node10 -->
<g id="edge10_Node000001_Node000010" class="edge">
<title>Node1&#45;&gt;Node10</title>
<g id="a_edge10_Node000001_Node000010"><a xlink:title=" ">
<path fill="none" stroke="#63b8ff" d="M53.25,-95.61C66.44,-79.16 93.85,-47.81 124,-30.38 128.3,-27.89 132.93,-25.69 137.69,-23.75"/>
<polygon fill="#63b8ff" stroke="#63b8ff" points="138.6,-27.15 146.8,-20.43 136.2,-20.57 138.6,-27.15"/>
</a>
</g>
</g>
<!-- Node11 -->
<g id="Node000011" class="node">
<title>Node11</title>
<g id="a_Node000011"><a xlink:href="../../d0/d29/main_8c.html#acc392fbd2ea6b07ebcc2b9c089aae2ca" target="_top" xlink:title="Processes directory entries and populates the entries array.">
<polygon fill="white" stroke="#666666" points="245,-135.75 142.75,-135.75 142.75,-115 245,-115 245,-135.75"/>
<text text-anchor="middle" x="193.88" y="-122.25" font-family="Helvetica,sans-Serif" font-size="10.00">process_directory</text>
</a>
</g>
</g>
<!-- Node1&#45;&gt;Node11 -->
<g id="edge11_Node000001_Node000011" class="edge">
<title>Node1&#45;&gt;Node11</title>
<g id="a_edge11_Node000001_Node000011"><a xlink:title=" ">
<path fill="none" stroke="#63b8ff" d="M88.17,-111.92C101.56,-113.64 116.58,-115.57 130.98,-117.42"/>
<polygon fill="#63b8ff" stroke="#63b8ff" points="130.48,-120.89 140.84,-118.69 131.37,-113.94 130.48,-120.89"/>
</a>
</g>
</g>
<!-- Node16 -->
<g id="Node000016" class="node">
<title>Node16</title>
<g id="a_Node000016"><a xlink:href="../../d0/d29/main_8c.html#a00c65357e9fe949388102f3090ea09c5" target="_top" xlink:title="Processes files or patterns and populates the entries array.">
<polygon fill="white" stroke="#666666" points="263.75,-174.75 124,-174.75 124,-154 263.75,-154 263.75,-174.75"/>
<text text-anchor="middle" x="193.88" y="-161.25" font-family="Helvetica,sans-Serif" font-size="10.00">process_files_or_patterns</text>
</a>
</g>
</g>
<!-- Node1&#45;&gt;Node16 -->
<g id="edge18_Node000001_Node000016" class="edge">
<title>Node1&#45;&gt;Node16</title>
<g id="a_edge18_Node000001_Node000016"><a xlink:title=" ">
<path fill="none" stroke="#63b8ff" d="M65.05,-117.16C80.78,-125.34 103.39,-136.49 124,-144.38 129.31,-146.41 134.93,-148.35 140.56,-150.18"/>
<polygon fill="#63b8ff" stroke="#63b8ff" points="139.32,-153.46 149.91,-153.08 141.39,-146.77 139.32,-153.46"/>
</a>
</g>
</g>
<!-- Node4 -->
<g id="Node000004" class="node">
<title>Node4</title>
<g id="a_Node000004"><a xlink:href="../../d0/dc9/emoji__utils_8c.html#a853b78da7b6116949e96148e040669d5" target="_top" xlink:title="Determines the appropriate emoji for a given file based on its characteristics.">
<polygon fill="white" stroke="#666666" points="530.12,-153.75 465.38,-153.75 465.38,-133 530.12,-133 530.12,-153.75"/>
<text text-anchor="middle" x="497.75" y="-140.25" font-family="Helvetica,sans-Serif" font-size="10.00">get_emoji</text>
</a>
</g>
</g>
<!-- Node3&#45;&gt;Node4 -->
<g id="edge3_Node000003_Node000004" class="edge">
<title>Node3&#45;&gt;Node4</title>
<g id="a_edge3_Node000003_Node000004"><a xlink:title=" ">
<path fill="none" stroke="#63b8ff" d="M405.81,-131.62C421.46,-133.64 438.7,-135.87 453.92,-137.84"/>
<polygon fill="#63b8ff" stroke="#63b8ff" points="453.24,-141.28 463.61,-139.09 454.14,-134.34 453.24,-141.28"/>
</a>
</g>
</g>
<!-- Node5 -->
<g id="Node000005" class="node">
<title>Node5</title>
<g id="a_Node000005"><a xlink:href="../../d0/dc9/emoji__utils_8c.html#a5079b8c3657f088d68ae41fee9b299e3" target="_top" xlink:title="Checks the file content for specific patterns to determine the file type.">
<polygon fill="white" stroke="#666666" points="689,-153.75 582.25,-153.75 582.25,-133 689,-133 689,-153.75"/>
<text text-anchor="middle" x="635.62" y="-140.25" font-family="Helvetica,sans-Serif" font-size="10.00">check_file_content</text>
</a>
</g>
</g>
<!-- Node4&#45;&gt;Node5 -->
<g id="edge4_Node000004_Node000005" class="edge">
<title>Node4&#45;&gt;Node5</title>
<g id="a_edge4_Node000004_Node000005"><a xlink:title=" ">
<path fill="none" stroke="#63b8ff" d="M530.61,-143.38C542.68,-143.38 556.89,-143.38 570.86,-143.38"/>
<polygon fill="#63b8ff" stroke="#63b8ff" points="570.45,-146.88 580.45,-143.38 570.45,-139.88 570.45,-146.88"/>
</a>
</g>
</g>
<!-- Node6 -->
<g id="Node000006" class="node">
<title>Node6</title>
<g id="a_Node000006"><a xlink:href="../../d0/dc9/emoji__utils_8c.html#a515d3420e13a8688464ad3b3c89c2ffb" target="_top" xlink:title="Safely duplicates a string, handling memory allocation errors.">
<polygon fill="white" stroke="#666666" points="798,-134.75 725,-134.75 725,-114 798,-114 798,-134.75"/>
<text text-anchor="middle" x="761.5" y="-121.25" font-family="Helvetica,sans-Serif" font-size="10.00">safe_strdup</text>
</a>
</g>
</g>
<!-- Node4&#45;&gt;Node6 -->
<g id="edge8_Node000004_Node000006" class="edge">
<title>Node4&#45;&gt;Node6</title>
<g id="a_edge8_Node000004_Node000006"><a xlink:title=" ">
<path fill="none" stroke="#63b8ff" d="M530.58,-134.37C546.04,-130.45 564.96,-126.32 582.25,-124.38 626.51,-119.4 677.34,-120.02 713.37,-121.52"/>
<polygon fill="#63b8ff" stroke="#63b8ff" points="712.86,-125 723.01,-121.96 713.18,-118 712.86,-125"/>
</a>
</g>
</g>
<!-- Node7 -->
<g id="Node000007" class="node">
<title>Node7</title>
<g id="a_Node000007"><a xlink:href="../../d0/dc9/emoji__utils_8c.html#adcfc0049feddf60eec27fe2572291a2e" target="_top" xlink:title="Checks if a file is executable.">
<polygon fill="white" stroke="#666666" points="677,-231.75 594.25,-231.75 594.25,-211 677,-211 677,-231.75"/>
<text text-anchor="middle" x="635.62" y="-218.25" font-family="Helvetica,sans-Serif" font-size="10.00">is_executable</text>
</a>
</g>
</g>
<!-- Node4&#45;&gt;Node7 -->
<g id="edge6_Node000004_Node000007" class="edge">
<title>Node4&#45;&gt;Node7</title>
<g id="a_edge6_Node000004_Node000007"><a xlink:title=" ">
<path fill="none" stroke="#63b8ff" d="M511.99,-154.09C527.93,-166.63 555.87,-187.44 582.25,-201.38 585.43,-203.06 588.79,-204.67 592.21,-206.2"/>
<polygon fill="#63b8ff" stroke="#63b8ff" points="590.54,-209.29 601.11,-209.94 593.24,-202.84 590.54,-209.29"/>
</a>
</g>
</g>
<!-- Node8 -->
<g id="Node000008" class="node">
<title>Node8</title>
<g id="a_Node000008"><a xlink:href="../../d0/dc9/emoji__utils_8c.html#a3bfec7595ef6d300266b38d3a17b039e" target="_top" xlink:title="Checks if a file is a text file by examining its contents.">
<polygon fill="white" stroke="#666666" points="670.25,-192.75 601,-192.75 601,-172 670.25,-172 670.25,-192.75"/>
<text text-anchor="middle" x="635.62" y="-179.25" font-family="Helvetica,sans-Serif" font-size="10.00">is_text_file</text>
</a>
</g>
</g>
<!-- Node4&#45;&gt;Node8 -->
<g id="edge7_Node000004_Node000008" class="edge">
<title>Node4&#45;&gt;Node8</title>
<g id="a_edge7_Node000004_Node000008"><a xlink:title=" ">
<path fill="none" stroke="#63b8ff" d="M530.61,-152.52C548.18,-157.56 570.29,-163.91 589.6,-169.45"/>
<polygon fill="#63b8ff" stroke="#63b8ff" points="588.56,-172.79 599.14,-172.19 590.49,-166.07 588.56,-172.79"/>
</a>
</g>
</g>
<!-- Node5&#45;&gt;Node6 -->
<g id="edge5_Node000005_Node000006" class="edge">
<title>Node5&#45;&gt;Node6</title>
<g id="a_edge5_Node000005_Node000006"><a xlink:title=" ">
<path fill="none" stroke="#63b8ff" d="M689.16,-135.32C697.22,-134.08 705.5,-132.81 713.44,-131.59"/>
<polygon fill="#63b8ff" stroke="#63b8ff" points="713.9,-135.06 723.25,-130.09 712.84,-128.14 713.9,-135.06"/>
</a>
</g>
</g>
<!-- Node11&#45;&gt;Node2 -->
<g id="edge12_Node000011_Node000002" class="edge">
<title>Node11&#45;&gt;Node2</title>
<g id="a_edge12_Node000011_Node000002"><a xlink:title=" ">
<path fill="none" stroke="#63b8ff" d="M239.62,-136.24C258.25,-140.76 280.08,-146.06 299.75,-150.84"/>
<polygon fill="#63b8ff" stroke="#63b8ff" points="298.7,-154.19 309.25,-153.14 300.36,-147.38 298.7,-154.19"/>
</a>
</g>
</g>
<!-- Node11&#45;&gt;Node3 -->
<g id="edge13_Node000011_Node000003" class="edge">
<title>Node11&#45;&gt;Node3</title>
<g id="a_edge13_Node000011_Node000003"><a xlink:title=" ">
<path fill="none" stroke="#63b8ff" d="M245.26,-125.38C261.33,-125.38 279.27,-125.38 295.93,-125.38"/>
<polygon fill="#63b8ff" stroke="#63b8ff" points="295.7,-128.88 305.7,-125.38 295.7,-121.88 295.7,-128.88"/>
</a>
</g>
</g>
<!-- Node12 -->
<g id="Node000012" class="node">
<title>Node12</title>
<g id="a_Node000012"><a xlink:href="../../df/d77/git__integration_8c.html#ac8420e6fdcd1a0373f840ecbe95a220a" target="_top" xlink:title="Integrates Git status information into file entries.">
<polygon fill="white" stroke="#666666" points="413.25,-87.75 299.75,-87.75 299.75,-67 413.25,-67 413.25,-87.75"/>
<text text-anchor="middle" x="356.5" y="-74.25" font-family="Helvetica,sans-Serif" font-size="10.00">integrate_git_status</text>
</a>
</g>
</g>
<!-- Node11&#45;&gt;Node12 -->
<g id="edge14_Node000011_Node000012" class="edge">
<title>Node11&#45;&gt;Node12</title>
<g id="a_edge14_Node000011_Node000012"><a xlink:title=" ">
<path fill="none" stroke="#63b8ff" d="M230.92,-114.6C253.78,-107.77 283.6,-98.86 308.33,-91.47"/>
<polygon fill="#63b8ff" stroke="#63b8ff" points="309.27,-94.84 317.85,-88.63 307.26,-88.14 309.27,-94.84"/>
</a>
</g>
</g>
<!-- Node13 -->
<g id="Node000013" class="node">
<title>Node13</title>
<g id="a_Node000013"><a xlink:href="../../d1/db9/git__utils_8c.html#a1af8df0b83d4e26524cdb4371b7bd7a6" target="_top" xlink:title="Retrieves the Git status for all files in the current repository.">
<polygon fill="white" stroke="#666666" points="540.25,-87.75 455.25,-87.75 455.25,-67 540.25,-67 540.25,-87.75"/>
<text text-anchor="middle" x="497.75" y="-74.25" font-family="Helvetica,sans-Serif" font-size="10.00">get_git_status</text>
</a>
</g>
</g>
<!-- Node12&#45;&gt;Node13 -->
<g id="edge15_Node000012_Node000013" class="edge">
<title>Node12&#45;&gt;Node13</title>
<g id="a_edge15_Node000012_Node000013"><a xlink:title=" ">
<path fill="none" stroke="#63b8ff" d="M413.74,-77.38C423.61,-77.38 433.86,-77.38 443.64,-77.38"/>
<polygon fill="#63b8ff" stroke="#63b8ff" points="443.36,-80.88 453.36,-77.38 443.36,-73.88 443.36,-80.88"/>
</a>
</g>
</g>
<!-- Node15 -->
<g id="Node000015" class="node">
<title>Node15</title>
<g id="a_Node000015"><a xlink:href="../../d1/db9/git__utils_8c.html#a51ae0134feff92edfd5cf268cd0b1acf" target="_top" xlink:title="Checks if the current directory is part of a Git repository.">
<polygon fill="white" stroke="#666666" points="546.25,-48.75 449.25,-48.75 449.25,-28 546.25,-28 546.25,-48.75"/>
<text text-anchor="middle" x="497.75" y="-35.25" font-family="Helvetica,sans-Serif" font-size="10.00">is_git_repository</text>
</a>
</g>
</g>
<!-- Node12&#45;&gt;Node15 -->
<g id="edge17_Node000012_Node000015" class="edge">
<title>Node12&#45;&gt;Node15</title>
<g id="a_edge17_Node000012_Node000015"><a xlink:title=" ">
<path fill="none" stroke="#63b8ff" d="M396.29,-66.51C412.13,-62.07 430.65,-56.89 447.43,-52.19"/>
<polygon fill="#63b8ff" stroke="#63b8ff" points="448.03,-55.66 456.71,-49.59 446.14,-48.92 448.03,-55.66"/>
</a>
</g>
</g>
<!-- Node14 -->
<g id="Node000014" class="node">
<title>Node14</title>
<g id="a_Node000014"><a xlink:href="../../d1/db9/git__utils_8c.html#aa639b9b3bbea0da0a09fbad3ca69aa5d" target="_top" xlink:title="Parses a Git status string and returns a single character status code.">
<polygon fill="white" stroke="#666666" points="674.75,-77.75 596.5,-77.75 596.5,-57 674.75,-57 674.75,-77.75"/>
<text text-anchor="middle" x="635.62" y="-64.25" font-family="Helvetica,sans-Serif" font-size="10.00">parse_status</text>
</a>
</g>
</g>
<!-- Node13&#45;&gt;Node14 -->
<g id="edge16_Node000013_Node000014" class="edge">
<title>Node13&#45;&gt;Node14</title>
<g id="a_edge16_Node000013_Node000014"><a xlink:title=" ">
<path fill="none" stroke="#63b8ff" d="M540.63,-74.29C554.65,-73.26 570.43,-72.1 584.99,-71.03"/>
<polygon fill="#63b8ff" stroke="#63b8ff" points="585.13,-74.53 594.85,-70.3 584.62,-67.55 585.13,-74.53"/>
</a>
</g>
</g>
<!-- Node16&#45;&gt;Node2 -->
<g id="edge19_Node000016_Node000002" class="edge">
<title>Node16&#45;&gt;Node2</title>
<g id="a_edge19_Node000016_Node000002"><a xlink:title=" ">
<path fill="none" stroke="#63b8ff" d="M263.93,-164.38C275.29,-164.38 286.95,-164.38 297.99,-164.38"/>
<polygon fill="#63b8ff" stroke="#63b8ff" points="297.72,-167.88 307.72,-164.38 297.72,-160.88 297.72,-167.88"/>
</a>
</g>
</g>
<!-- Node16&#45;&gt;Node3 -->
<g id="edge20_Node000016_Node000003" class="edge">
<title>Node16&#45;&gt;Node3</title>
<g id="a_edge20_Node000016_Node000003"><a xlink:title=" ">
<path fill="none" stroke="#63b8ff" d="M239.62,-153.51C258.25,-148.99 280.08,-143.69 299.75,-138.91"/>
<polygon fill="#63b8ff" stroke="#63b8ff" points="300.36,-142.37 309.25,-136.61 298.7,-135.56 300.36,-142.37"/>
</a>
</g>
</g>
</g>
</svg>

<g id="navigator" transform="translate(0 0)" fill="#404254">
  <rect fill="#f2f5e9" fill-opacity="0.5" stroke="#606060" stroke-width=".5" x="0" y="0" width="60" height="60"/>
  <use id="zoomplus" xlink:href="#zoomPlus" x="17" y="9" onmousedown="handleZoom(evt,'in')"/>
  <use id="zoomminus" xlink:href="#zoomMin" x="42" y="9" onmousedown="handleZoom(evt,'out')"/>
  <use id="reset" xlink:href="#resetDef" x="30" y="36" onmousedown="handleReset()"/>
   <use id="arrowup" xlink:href="#arrowUp" x="0" y="0" onmousedown="handlePan(0,-1)"/>
  <use id="arrowright" xlink:href="#arrowRight" x="0" y="0" onmousedown="handlePan(1,0)"/>
  <use id="arrowdown" xlink:href="#arrowDown" x="0" y="0" onmousedown="handlePan(0,1)"/>
  <use id="arrowleft" xlink:href="#arrowLeft" x="0" y="0" onmousedown="handlePan(-1,0)"/>
</g>
<svg viewBox="0 0 15 15" width="100%" height="30px" preserveAspectRatio="xMaxYMin meet">
 <g id="arrow_out" transform="scale(0.3 0.3)">
  <a xlink:href="main_8c_ae7d3bb334fabeeccc7dfb05e7f968d47_cgraph_org.svg" target="_base">
   <rect id="button" ry="5" rx="5" y="6" x="6" height="38" width="38"
        fill="#f2f5e9" fill-opacity="0.5" stroke="#606060" stroke-width="1.0"/>
   <path id="arrow"
     d="M 11.500037,31.436501 C 11.940474,20.09759 22.043105,11.32322 32.158766,21.979434 L 37.068811,17.246167 C 37.068811,17.246167 37.088388,32 37.088388,32 L 22.160133,31.978069 C 22.160133,31.978069 26.997745,27.140456 26.997745,27.140456 C 18.528582,18.264221 13.291696,25.230495 11.500037,31.436501 z"
     style="fill:#404040;"/>
  </a>
 </g>
</svg>

<style type='text/css'>
<![CDATA[
[data-mouse-over-selected='false'] { opacity: 0.7; }
[data-mouse-over-selected='true']  { opacity: 1.0; }
]]>
</style>
<script type="application/ecmascript"><![CDATA[
document.addEventListener('DOMContentLoaded', (event) => {
  highlightEdges();
  highlightAdjacentNodes();
});
]]></script>
</svg>
