<?xml version="1.0" encoding="UTF-8" standalone="no"?>
<!DOCTYPE svg PUBLIC "-//W3C//DTD SVG 1.1//EN"
 "http://www.w3.org/Graphics/SVG/1.1/DTD/svg11.dtd">
<!-- Generated by graphviz version 9.0.0 (20230911.1827)
 -->
<!-- Title: /home/honeyguide/Desktop/MyOpenSource/facad/src/git_integration.c Pages: 1 -->
<svg width="411pt" height="225pt"
 viewBox="0.00 0.00 411.38 224.50" xmlns="http://www.w3.org/2000/svg" xmlns:xlink="http://www.w3.org/1999/xlink">

<svg id="main" version="1.1" xmlns="http://www.w3.org/2000/svg" xmlns:xlink="http://www.w3.org/1999/xlink" xml:space="preserve" onload="init(evt)">
<style type="text/css"><![CDATA[
.node, .edge {opacity: 0.7;}
.node.selected, .edge.selected {opacity: 1;}
.edge:hover path { stroke: red; }
.edge:hover polygon { stroke: red; fill: red; }
]]></style>
<script type="application/ecmascript" xlink:href="../../svg.min.js"/>
<svg id="graph" class="graph">
<g id="graph0" class="graph" transform="scale(1 1) rotate(0) translate(4 220.5)">
<title>/home/honeyguide/Desktop/MyOpenSource/facad/src/git_integration.c</title>
<!-- Node1 -->
<g id="Node000001" class="node">
<title>Node1</title>
<g id="a_Node000001"><a xlink:title="Implementation of Git integration for file entries.">
<polygon fill="#999999" stroke="#666666" points="240.5,-216.5 90.25,-216.5 90.25,-170.25 240.5,-170.25 240.5,-216.5"/>
<text text-anchor="start" x="98.25" y="-203" font-family="Helvetica,sans-Serif" font-size="10.00">/home/honeyguide/Desktop</text>
<text text-anchor="start" x="98.25" y="-190.25" font-family="Helvetica,sans-Serif" font-size="10.00">/MyOpenSource/facad/src</text>
<text text-anchor="middle" x="165.38" y="-177.5" font-family="Helvetica,sans-Serif" font-size="10.00">/git_integration.c</text>
</a>
</g>
</g>
<!-- Node2 -->
<g id="Node000002" class="node">
<title>Node2</title>
<g id="a_Node000002"><a xlink:title=" ">
<polygon fill="#e0e0e0" stroke="#999999" points="52.75,-134.25 0,-134.25 0,-113.5 52.75,-113.5 52.75,-134.25"/>
<text text-anchor="middle" x="26.38" y="-120.75" font-family="Helvetica,sans-Serif" font-size="10.00">string.h</text>
</a>
</g>
</g>
<!-- Node1&#45;&gt;Node2 -->
<g id="edge1_Node000001_Node000002" class="edge">
<title>Node1&#45;&gt;Node2</title>
<g id="a_edge1_Node000001_Node000002"><a xlink:title=" ">
<path fill="none" stroke="#63b8ff" d="M119.09,-169.9C98.59,-159.94 75.04,-148.51 56.81,-139.65"/>
<polygon fill="#63b8ff" stroke="#63b8ff" points="58.37,-136.52 47.85,-135.3 55.31,-142.82 58.37,-136.52"/>
</a>
</g>
</g>
<!-- Node3 -->
<g id="Node000003" class="node">
<title>Node3</title>
<g id="a_Node000003"><a xlink:title=" ">
<polygon fill="#e0e0e0" stroke="#999999" points="122.38,-134.25 70.38,-134.25 70.38,-113.5 122.38,-113.5 122.38,-134.25"/>
<text text-anchor="middle" x="96.38" y="-120.75" font-family="Helvetica,sans-Serif" font-size="10.00">stdlib.h</text>
</a>
</g>
</g>
<!-- Node1&#45;&gt;Node3 -->
<g id="edge2_Node000001_Node000003" class="edge">
<title>Node1&#45;&gt;Node3</title>
<g id="a_edge2_Node000001_Node000003"><a xlink:title=" ">
<path fill="none" stroke="#63b8ff" d="M142.4,-169.9C133.32,-161.02 123.04,-150.96 114.5,-142.61"/>
<polygon fill="#63b8ff" stroke="#63b8ff" points="117.04,-140.19 107.44,-135.7 112.14,-145.19 117.04,-140.19"/>
</a>
</g>
</g>
<!-- Node4 -->
<g id="Node000004" class="node">
<title>Node4</title>
<g id="a_Node000004"><a xlink:title=" ">
<polygon fill="#e0e0e0" stroke="#999999" points="189.88,-134.25 140.88,-134.25 140.88,-113.5 189.88,-113.5 189.88,-134.25"/>
<text text-anchor="middle" x="165.38" y="-120.75" font-family="Helvetica,sans-Serif" font-size="10.00">stdio.h</text>
</a>
</g>
</g>
<!-- Node1&#45;&gt;Node4 -->
<g id="edge3_Node000001_Node000004" class="edge">
<title>Node1&#45;&gt;Node4</title>
<g id="a_edge3_Node000001_Node000004"><a xlink:title=" ">
<path fill="none" stroke="#63b8ff" d="M165.38,-169.9C165.38,-162.23 165.38,-153.69 165.38,-146.13"/>
<polygon fill="#63b8ff" stroke="#63b8ff" points="168.88,-146.15 165.38,-136.15 161.88,-146.15 168.88,-146.15"/>
</a>
</g>
</g>
<!-- Node5 -->
<g id="Node000005" class="node">
<title>Node5</title>
<g id="a_Node000005"><a xlink:title=" ">
<polygon fill="#e0e0e0" stroke="#999999" points="262.88,-134.25 207.88,-134.25 207.88,-113.5 262.88,-113.5 262.88,-134.25"/>
<text text-anchor="middle" x="235.38" y="-120.75" font-family="Helvetica,sans-Serif" font-size="10.00">libgen.h</text>
</a>
</g>
</g>
<!-- Node1&#45;&gt;Node5 -->
<g id="edge4_Node000001_Node000005" class="edge">
<title>Node1&#45;&gt;Node5</title>
<g id="a_edge4_Node000001_Node000005"><a xlink:title=" ">
<path fill="none" stroke="#63b8ff" d="M188.68,-169.9C197.89,-161.02 208.32,-150.96 216.99,-142.61"/>
<polygon fill="#63b8ff" stroke="#63b8ff" points="219.39,-145.15 224.16,-135.69 214.53,-140.11 219.39,-145.15"/>
</a>
</g>
</g>
<!-- Node6 -->
<g id="Node000006" class="node">
<title>Node6</title>
<g id="a_Node000006"><a xlink:href="../../d1/dc4/git__integration_8h.html" target="_top" xlink:title="Header file for Git integration functionality.">
<polygon fill="white" stroke="#666666" points="377.5,-134.25 281.25,-134.25 281.25,-113.5 377.5,-113.5 377.5,-134.25"/>
<text text-anchor="middle" x="329.38" y="-120.75" font-family="Helvetica,sans-Serif" font-size="10.00">git_integration.h</text>
</a>
</g>
</g>
<!-- Node1&#45;&gt;Node6 -->
<g id="edge5_Node000001_Node000006" class="edge">
<title>Node1&#45;&gt;Node6</title>
<g id="a_edge5_Node000001_Node000006"><a xlink:title=" ">
<path fill="none" stroke="#63b8ff" d="M219.98,-169.9C244.85,-159.66 273.52,-147.86 295.27,-138.91"/>
<polygon fill="#63b8ff" stroke="#63b8ff" points="296.33,-142.26 304.25,-135.22 293.67,-135.79 296.33,-142.26"/>
</a>
</g>
</g>
<!-- Node7 -->
<g id="Node000007" class="node">
<title>Node7</title>
<g id="a_Node000007"><a xlink:href="../../d5/d36/file__card_8h.html" target="_top" xlink:title="Header file for file entry handling functions and structures.">
<polygon fill="white" stroke="#666666" points="321.5,-77.5 255.25,-77.5 255.25,-56.75 321.5,-56.75 321.5,-77.5"/>
<text text-anchor="middle" x="288.38" y="-64" font-family="Helvetica,sans-Serif" font-size="10.00">file_card.h</text>
</a>
</g>
</g>
<!-- Node6&#45;&gt;Node7 -->
<g id="edge6_Node000006_Node000007" class="edge">
<title>Node6&#45;&gt;Node7</title>
<g id="a_edge6_Node000006_Node000007"><a xlink:title=" ">
<path fill="none" stroke="#63b8ff" d="M322.05,-113.09C316.62,-105.85 309.07,-95.76 302.49,-86.97"/>
<polygon fill="#63b8ff" stroke="#63b8ff" points="305.34,-84.95 296.55,-79.04 299.74,-89.14 305.34,-84.95"/>
</a>
</g>
</g>
<!-- Node8 -->
<g id="Node000008" class="node">
<title>Node8</title>
<g id="a_Node000008"><a xlink:href="../../db/d45/git__utils_8h.html" target="_top" xlink:title="Header file for Git utility functions used in facad.">
<polygon fill="white" stroke="#666666" points="403.38,-77.5 339.38,-77.5 339.38,-56.75 403.38,-56.75 403.38,-77.5"/>
<text text-anchor="middle" x="371.38" y="-64" font-family="Helvetica,sans-Serif" font-size="10.00">git_utils.h</text>
</a>
</g>
</g>
<!-- Node6&#45;&gt;Node8 -->
<g id="edge7_Node000006_Node000008" class="edge">
<title>Node6&#45;&gt;Node8</title>
<g id="a_edge7_Node000006_Node000008"><a xlink:title=" ">
<path fill="none" stroke="#63b8ff" d="M336.88,-113.09C342.5,-105.77 350.34,-95.54 357.13,-86.69"/>
<polygon fill="#63b8ff" stroke="#63b8ff" points="359.7,-89.09 363.01,-79.03 354.15,-84.83 359.7,-89.09"/>
</a>
</g>
</g>
<!-- Node9 -->
<g id="Node000009" class="node">
<title>Node9</title>
<g id="a_Node000009"><a xlink:title=" ">
<polygon fill="#e0e0e0" stroke="#999999" points="401.88,-20.75 340.88,-20.75 340.88,0 401.88,0 401.88,-20.75"/>
<text text-anchor="middle" x="371.38" y="-7.25" font-family="Helvetica,sans-Serif" font-size="10.00">stdbool.h</text>
</a>
</g>
</g>
<!-- Node8&#45;&gt;Node9 -->
<g id="edge8_Node000008_Node000009" class="edge">
<title>Node8&#45;&gt;Node9</title>
<g id="a_edge8_Node000008_Node000009"><a xlink:title=" ">
<path fill="none" stroke="#63b8ff" d="M371.38,-56.34C371.38,-49.72 371.38,-40.72 371.38,-32.52"/>
<polygon fill="#63b8ff" stroke="#63b8ff" points="374.88,-32.59 371.38,-22.59 367.88,-32.59 374.88,-32.59"/>
</a>
</g>
</g>
</g>
</svg>
</svg>

<style type='text/css'>
<![CDATA[
[data-mouse-over-selected='false'] { opacity: 0.7; }
[data-mouse-over-selected='true']  { opacity: 1.0; }
]]>
</style>
<script type="application/ecmascript"><![CDATA[
document.addEventListener('DOMContentLoaded', (event) => {
  highlightEdges();
  highlightAdjacentNodes();
});
]]></script>
</svg>
