<?xml version="1.0" encoding="UTF-8" standalone="no"?>
<!DOCTYPE svg PUBLIC "-//W3C//DTD SVG 1.1//EN"
 "http://www.w3.org/Graphics/SVG/1.1/DTD/svg11.dtd">
<!-- Generated by graphviz version 9.0.0 (20230911.1827)
 -->
<!-- Title: create_file_entry Pages: 1 -->
<svg width="482pt" height="105pt"
 viewBox="0.00 0.00 482.25 104.75" xmlns="http://www.w3.org/2000/svg" xmlns:xlink="http://www.w3.org/1999/xlink">
<g id="graph0" class="graph" transform="scale(1 1) rotate(0) translate(4 100.75)">
<title>create_file_entry</title>
<!-- Node1 -->
<g id="Node000001" class="node">
<title>Node1</title>
<g id="a_Node000001"><a xlink:title="Creates a file entry based on the given path.">
<polygon fill="#999999" stroke="#666666" points="474.25,-58.75 376.5,-58.75 376.5,-38 474.25,-38 474.25,-58.75"/>
<text text-anchor="middle" x="425.38" y="-45.25" font-family="Helvetica,sans-Serif" font-size="10.00">create_file_entry</text>
</a>
</g>
</g>
<!-- Node2 -->
<g id="Node000002" class="node">
<title>Node2</title>
<g id="a_Node000002"><a xlink:href="../../d0/d29/main_8c.html#acc392fbd2ea6b07ebcc2b9c089aae2ca" target="_top" xlink:title="Processes directory entries and populates the entries array.">
<polygon fill="white" stroke="#666666" points="321.75,-96.75 219.5,-96.75 219.5,-76 321.75,-76 321.75,-96.75"/>
<text text-anchor="middle" x="270.62" y="-83.25" font-family="Helvetica,sans-Serif" font-size="10.00">process_directory</text>
</a>
</g>
</g>
<!-- Node1&#45;&gt;Node2 -->
<g id="edge1_Node000001_Node000002" class="edge">
<title>Node1&#45;&gt;Node2</title>
<g id="a_edge1_Node000001_Node000002"><a xlink:title=" ">
<path fill="none" stroke="#63b8ff" d="M370.06,-61.89C352.03,-66.37 332.2,-71.31 315.1,-75.56"/>
<polygon fill="#63b8ff" stroke="#63b8ff" points="370.68,-65.34 379.54,-59.53 368.99,-58.55 370.68,-65.34"/>
</a>
</g>
</g>
<!-- Node4 -->
<g id="Node000004" class="node">
<title>Node4</title>
<g id="a_Node000004"><a xlink:href="../../d0/d29/main_8c.html#ae7d3bb334fabeeccc7dfb05e7f968d47" target="_top" xlink:title="Processes a single target (directory, file, or pattern).">
<polygon fill="white" stroke="#666666" points="164.75,-58.75 76.75,-58.75 76.75,-38 164.75,-38 164.75,-58.75"/>
<text text-anchor="middle" x="120.75" y="-45.25" font-family="Helvetica,sans-Serif" font-size="10.00">process_target</text>
</a>
</g>
</g>
<!-- Node1&#45;&gt;Node4 -->
<g id="edge7_Node000001_Node000004" class="edge">
<title>Node1&#45;&gt;Node4</title>
<g id="a_edge7_Node000001_Node000004"><a xlink:title=" ">
<path fill="none" stroke="#63b8ff" d="M364.73,-48.38C305.88,-48.38 217.34,-48.38 164.96,-48.38"/>
<polygon fill="#63b8ff" stroke="#63b8ff" points="364.58,-51.88 374.57,-48.38 364.57,-44.88 364.58,-51.88"/>
</a>
</g>
</g>
<!-- Node5 -->
<g id="Node000005" class="node">
<title>Node5</title>
<g id="a_Node000005"><a xlink:href="../../d0/d29/main_8c.html#a00c65357e9fe949388102f3090ea09c5" target="_top" xlink:title="Processes files or patterns and populates the entries array.">
<polygon fill="white" stroke="#666666" points="340.5,-20.75 200.75,-20.75 200.75,0 340.5,0 340.5,-20.75"/>
<text text-anchor="middle" x="270.62" y="-7.25" font-family="Helvetica,sans-Serif" font-size="10.00">process_files_or_patterns</text>
</a>
</g>
</g>
<!-- Node1&#45;&gt;Node5 -->
<g id="edge5_Node000001_Node000005" class="edge">
<title>Node1&#45;&gt;Node5</title>
<g id="a_edge5_Node000001_Node000005"><a xlink:title=" ">
<path fill="none" stroke="#63b8ff" d="M370.06,-34.86C352.03,-30.38 332.2,-25.44 315.1,-21.19"/>
<polygon fill="#63b8ff" stroke="#63b8ff" points="368.99,-38.2 379.54,-37.22 370.68,-31.41 368.99,-38.2"/>
</a>
</g>
</g>
<!-- Node3 -->
<g id="Node000003" class="node">
<title>Node3</title>
<g id="a_Node000003"><a xlink:href="../../d0/d29/main_8c.html#a0ddf1224851353fc92bfbff6f499fa97" target="_top" xlink:title="Main function of the facad program.">
<polygon fill="white" stroke="#666666" points="40.75,-77.75 0,-77.75 0,-57 40.75,-57 40.75,-77.75"/>
<text text-anchor="middle" x="20.38" y="-64.25" font-family="Helvetica,sans-Serif" font-size="10.00">main</text>
</a>
</g>
</g>
<!-- Node2&#45;&gt;Node3 -->
<g id="edge2_Node000002_Node000003" class="edge">
<title>Node2&#45;&gt;Node3</title>
<g id="a_edge2_Node000002_Node000003"><a xlink:title=" ">
<path fill="none" stroke="#63b8ff" d="M207.78,-81.64C153.16,-77.46 76.81,-71.62 41.16,-68.89"/>
<polygon fill="#63b8ff" stroke="#63b8ff" points="207.34,-85.12 217.58,-82.39 207.88,-78.14 207.34,-85.12"/>
</a>
</g>
</g>
<!-- Node2&#45;&gt;Node4 -->
<g id="edge3_Node000002_Node000004" class="edge">
<title>Node2&#45;&gt;Node4</title>
<g id="a_edge3_Node000002_Node000004"><a xlink:title=" ">
<path fill="none" stroke="#63b8ff" d="M216.55,-72.74C199.22,-68.28 180.24,-63.4 163.83,-59.19"/>
<polygon fill="#63b8ff" stroke="#63b8ff" points="215.62,-76.11 226.18,-75.21 217.37,-69.33 215.62,-76.11"/>
</a>
</g>
</g>
<!-- Node4&#45;&gt;Node3 -->
<g id="edge4_Node000004_Node000003" class="edge">
<title>Node4&#45;&gt;Node3</title>
<g id="a_edge4_Node000004_Node000003"><a xlink:title=" ">
<path fill="none" stroke="#63b8ff" d="M65.07,-58.94C56.55,-60.58 48.25,-62.18 41.21,-63.54"/>
<polygon fill="#63b8ff" stroke="#63b8ff" points="65.67,-62.38 74.83,-57.05 64.35,-55.51 65.67,-62.38"/>
</a>
</g>
</g>
<!-- Node5&#45;&gt;Node4 -->
<g id="edge6_Node000005_Node000004" class="edge">
<title>Node5&#45;&gt;Node4</title>
<g id="a_edge6_Node000005_Node000004"><a xlink:title=" ">
<path fill="none" stroke="#63b8ff" d="M216.55,-24.01C199.22,-28.47 180.24,-33.35 163.83,-37.56"/>
<polygon fill="#63b8ff" stroke="#63b8ff" points="217.37,-27.42 226.18,-21.54 215.62,-20.64 217.37,-27.42"/>
</a>
</g>
</g>
</g>
</svg>
