<?xml version="1.0" encoding="UTF-8" standalone="no"?>
<!DOCTYPE svg PUBLIC "-//W3C//DTD SVG 1.1//EN"
 "http://www.w3.org/Graphics/SVG/1.1/DTD/svg11.dtd">
<!-- Generated by graphviz version 9.0.0 (20230911.1827)
 -->
<!-- Title: create_file_entry Pages: 1 -->
<svg width="458pt" height="144pt"
 viewBox="0.00 0.00 458.25 143.75" xmlns="http://www.w3.org/2000/svg" xmlns:xlink="http://www.w3.org/1999/xlink">

<svg id="main" version="1.1" xmlns="http://www.w3.org/2000/svg" xmlns:xlink="http://www.w3.org/1999/xlink" xml:space="preserve" onload="init(evt)">
<style type="text/css"><![CDATA[
.node, .edge {opacity: 0.7;}
.node.selected, .edge.selected {opacity: 1;}
.edge:hover path { stroke: red; }
.edge:hover polygon { stroke: red; fill: red; }
]]></style>
<script type="application/ecmascript" xlink:href="../../svg.min.js"/>
<svg id="graph" class="graph">
<g id="graph0" class="graph" transform="scale(1 1) rotate(0) translate(4 139.75)">
<title>create_file_entry</title>
<!-- Node1 -->
<g id="Node000001" class="node">
<title>Node1</title>
<g id="a_Node000001"><a xlink:title="Creates a file entry based on the given path.">
<polygon fill="#999999" stroke="#666666" points="97.75,-78.75 0,-78.75 0,-58 97.75,-58 97.75,-78.75"/>
<text text-anchor="middle" x="48.88" y="-65.25" font-family="Helvetica,sans-Serif" font-size="10.00">create_file_entry</text>
</a>
</g>
</g>
<!-- Node2 -->
<g id="Node000002" class="node">
<title>Node2</title>
<g id="a_Node000002"><a xlink:href="../../d0/dc9/emoji__utils_8c.html#a853b78da7b6116949e96148e040669d5" target="_top" xlink:title="Determines the appropriate emoji for a given file based on its characteristics.">
<polygon fill="white" stroke="#666666" points="198.5,-78.75 133.75,-78.75 133.75,-58 198.5,-58 198.5,-78.75"/>
<text text-anchor="middle" x="166.12" y="-65.25" font-family="Helvetica,sans-Serif" font-size="10.00">get_emoji</text>
</a>
</g>
</g>
<!-- Node1&#45;&gt;Node2 -->
<g id="edge1_Node000001_Node000002" class="edge">
<title>Node1&#45;&gt;Node2</title>
<g id="a_edge1_Node000001_Node000002"><a xlink:title=" ">
<path fill="none" stroke="#63b8ff" d="M98.08,-68.38C106.03,-68.38 114.22,-68.38 122.03,-68.38"/>
<polygon fill="#63b8ff" stroke="#63b8ff" points="122,-71.88 132,-68.38 122,-64.88 122,-71.88"/>
</a>
</g>
</g>
<!-- Node3 -->
<g id="Node000003" class="node">
<title>Node3</title>
<g id="a_Node000003"><a xlink:href="../../d0/dc9/emoji__utils_8c.html#a5079b8c3657f088d68ae41fee9b299e3" target="_top" xlink:title="Checks the file content for specific patterns to determine the file type.">
<polygon fill="white" stroke="#666666" points="341.25,-135.75 234.5,-135.75 234.5,-115 341.25,-115 341.25,-135.75"/>
<text text-anchor="middle" x="287.88" y="-122.25" font-family="Helvetica,sans-Serif" font-size="10.00">check_file_content</text>
</a>
</g>
</g>
<!-- Node2&#45;&gt;Node3 -->
<g id="edge2_Node000002_Node000003" class="edge">
<title>Node2&#45;&gt;Node3</title>
<g id="a_edge2_Node000002_Node000003"><a xlink:title=" ">
<path fill="none" stroke="#63b8ff" d="M188.9,-79.22C202.06,-85.73 219.2,-94.12 234.5,-101.38 240.26,-104.11 246.4,-106.96 252.37,-109.72"/>
<polygon fill="#63b8ff" stroke="#63b8ff" points="250.9,-112.89 261.45,-113.88 253.82,-106.53 250.9,-112.89"/>
</a>
</g>
</g>
<!-- Node4 -->
<g id="Node000004" class="node">
<title>Node4</title>
<g id="a_Node000004"><a xlink:href="../../d0/dc9/emoji__utils_8c.html#a515d3420e13a8688464ad3b3c89c2ffb" target="_top" xlink:title="Safely duplicates a string, handling memory allocation errors.">
<polygon fill="white" stroke="#666666" points="450.25,-116.75 377.25,-116.75 377.25,-96 450.25,-96 450.25,-116.75"/>
<text text-anchor="middle" x="413.75" y="-103.25" font-family="Helvetica,sans-Serif" font-size="10.00">safe_strdup</text>
</a>
</g>
</g>
<!-- Node2&#45;&gt;Node4 -->
<g id="edge6_Node000002_Node000004" class="edge">
<title>Node2&#45;&gt;Node4</title>
<g id="a_edge6_Node000002_Node000004"><a xlink:title=" ">
<path fill="none" stroke="#63b8ff" d="M198.73,-73.27C241.08,-79.82 316.56,-91.49 365.62,-99.08"/>
<polygon fill="#63b8ff" stroke="#63b8ff" points="364.97,-102.52 375.39,-100.59 366.04,-95.61 364.97,-102.52"/>
</a>
</g>
</g>
<!-- Node5 -->
<g id="Node000005" class="node">
<title>Node5</title>
<g id="a_Node000005"><a xlink:href="../../d0/dc9/emoji__utils_8c.html#adcfc0049feddf60eec27fe2572291a2e" target="_top" xlink:title="Checks if a file is executable.">
<polygon fill="white" stroke="#666666" points="329.25,-59.75 246.5,-59.75 246.5,-39 329.25,-39 329.25,-59.75"/>
<text text-anchor="middle" x="287.88" y="-46.25" font-family="Helvetica,sans-Serif" font-size="10.00">is_executable</text>
</a>
</g>
</g>
<!-- Node2&#45;&gt;Node5 -->
<g id="edge4_Node000002_Node000005" class="edge">
<title>Node2&#45;&gt;Node5</title>
<g id="a_edge4_Node000002_Node000005"><a xlink:title=" ">
<path fill="none" stroke="#63b8ff" d="M198.9,-63.33C210.04,-61.57 222.86,-59.53 235.21,-57.57"/>
<polygon fill="#63b8ff" stroke="#63b8ff" points="235.52,-61.07 244.85,-56.04 234.43,-54.15 235.52,-61.07"/>
</a>
</g>
</g>
<!-- Node6 -->
<g id="Node000006" class="node">
<title>Node6</title>
<g id="a_Node000006"><a xlink:href="../../d0/dc9/emoji__utils_8c.html#a3bfec7595ef6d300266b38d3a17b039e" target="_top" xlink:title="Checks if a file is a text file by examining its contents.">
<polygon fill="white" stroke="#666666" points="322.5,-20.75 253.25,-20.75 253.25,0 322.5,0 322.5,-20.75"/>
<text text-anchor="middle" x="287.88" y="-7.25" font-family="Helvetica,sans-Serif" font-size="10.00">is_text_file</text>
</a>
</g>
</g>
<!-- Node2&#45;&gt;Node6 -->
<g id="edge5_Node000002_Node000006" class="edge">
<title>Node2&#45;&gt;Node6</title>
<g id="a_edge5_Node000002_Node000006"><a xlink:title=" ">
<path fill="none" stroke="#63b8ff" d="M184.48,-57.64C197.87,-49.59 217,-38.6 234.5,-30.38 238.2,-28.64 242.09,-26.93 246.01,-25.3"/>
<polygon fill="#63b8ff" stroke="#63b8ff" points="246.98,-28.68 254.96,-21.71 244.38,-22.18 246.98,-28.68"/>
</a>
</g>
</g>
<!-- Node3&#45;&gt;Node4 -->
<g id="edge3_Node000003_Node000004" class="edge">
<title>Node3&#45;&gt;Node4</title>
<g id="a_edge3_Node000003_Node000004"><a xlink:title=" ">
<path fill="none" stroke="#63b8ff" d="M341.41,-117.32C349.47,-116.08 357.75,-114.81 365.69,-113.59"/>
<polygon fill="#63b8ff" stroke="#63b8ff" points="366.15,-117.06 375.5,-112.09 365.09,-110.14 366.15,-117.06"/>
</a>
</g>
</g>
</g>
</svg>
</svg>

<style type='text/css'>
<![CDATA[
[data-mouse-over-selected='false'] { opacity: 0.7; }
[data-mouse-over-selected='true']  { opacity: 1.0; }
]]>
</style>
<script type="application/ecmascript"><![CDATA[
document.addEventListener('DOMContentLoaded', (event) => {
  highlightEdges();
  highlightAdjacentNodes();
});
]]></script>
</svg>
