<?xml version="1.0" encoding="UTF-8" standalone="no"?>
<!DOCTYPE svg PUBLIC "-//W3C//DTD SVG 1.1//EN"
 "http://www.w3.org/Graphics/SVG/1.1/DTD/svg11.dtd">
<!-- Generated by graphviz version 9.0.0 (20230911.1827)
 -->
<!-- Title: /home/honeyguide/Desktop/MyOpenSource/facad/src/git_utils.c Pages: 1 -->
<svg width="354pt" height="168pt"
 viewBox="0.00 0.00 353.50 167.75" xmlns="http://www.w3.org/2000/svg" xmlns:xlink="http://www.w3.org/1999/xlink">

<svg id="main" version="1.1" xmlns="http://www.w3.org/2000/svg" xmlns:xlink="http://www.w3.org/1999/xlink" xml:space="preserve" onload="init(evt)">
<style type="text/css"><![CDATA[
.node, .edge {opacity: 0.7;}
.node.selected, .edge.selected {opacity: 1;}
.edge:hover path { stroke: red; }
.edge:hover polygon { stroke: red; fill: red; }
]]></style>
<script type="application/ecmascript" xlink:href="../../svg.min.js"/>
<svg id="graph" class="graph">
<g id="graph0" class="graph" transform="scale(1 1) rotate(0) translate(4 163.75)">
<title>/home/honeyguide/Desktop/MyOpenSource/facad/src/git_utils.c</title>
<!-- Node1 -->
<g id="Node000001" class="node">
<title>Node1</title>
<g id="a_Node000001"><a xlink:title="Implementation of Git utility functions for facad.">
<polygon fill="#999999" stroke="#666666" points="238.62,-159.75 88.38,-159.75 88.38,-113.5 238.62,-113.5 238.62,-159.75"/>
<text text-anchor="start" x="96.38" y="-146.25" font-family="Helvetica,sans-Serif" font-size="10.00">/home/honeyguide/Desktop</text>
<text text-anchor="start" x="96.38" y="-133.5" font-family="Helvetica,sans-Serif" font-size="10.00">/MyOpenSource/facad/src</text>
<text text-anchor="middle" x="163.5" y="-120.75" font-family="Helvetica,sans-Serif" font-size="10.00">/git_utils.c</text>
</a>
</g>
</g>
<!-- Node2 -->
<g id="Node000002" class="node">
<title>Node2</title>
<g id="a_Node000002"><a xlink:title=" ">
<polygon fill="#e0e0e0" stroke="#999999" points="49,-77.5 0,-77.5 0,-56.75 49,-56.75 49,-77.5"/>
<text text-anchor="middle" x="24.5" y="-64" font-family="Helvetica,sans-Serif" font-size="10.00">stdio.h</text>
</a>
</g>
</g>
<!-- Node1&#45;&gt;Node2 -->
<g id="edge1_Node000001_Node000002" class="edge">
<title>Node1&#45;&gt;Node2</title>
<g id="a_edge1_Node000001_Node000002"><a xlink:title=" ">
<path fill="none" stroke="#63b8ff" d="M117.22,-113.15C96.71,-103.19 73.17,-91.76 54.93,-82.9"/>
<polygon fill="#63b8ff" stroke="#63b8ff" points="56.5,-79.77 45.97,-78.55 53.44,-86.07 56.5,-79.77"/>
</a>
</g>
</g>
<!-- Node3 -->
<g id="Node000003" class="node">
<title>Node3</title>
<g id="a_Node000003"><a xlink:title=" ">
<polygon fill="#e0e0e0" stroke="#999999" points="119.5,-77.5 67.5,-77.5 67.5,-56.75 119.5,-56.75 119.5,-77.5"/>
<text text-anchor="middle" x="93.5" y="-64" font-family="Helvetica,sans-Serif" font-size="10.00">stdlib.h</text>
</a>
</g>
</g>
<!-- Node1&#45;&gt;Node3 -->
<g id="edge2_Node000001_Node000003" class="edge">
<title>Node1&#45;&gt;Node3</title>
<g id="a_edge2_Node000001_Node000003"><a xlink:title=" ">
<path fill="none" stroke="#63b8ff" d="M140.19,-113.15C130.98,-104.27 120.55,-94.21 111.89,-85.86"/>
<polygon fill="#63b8ff" stroke="#63b8ff" points="114.34,-83.36 104.72,-78.94 109.49,-88.4 114.34,-83.36"/>
</a>
</g>
</g>
<!-- Node4 -->
<g id="Node000004" class="node">
<title>Node4</title>
<g id="a_Node000004"><a xlink:title=" ">
<polygon fill="#e0e0e0" stroke="#999999" points="189.88,-77.5 137.12,-77.5 137.12,-56.75 189.88,-56.75 189.88,-77.5"/>
<text text-anchor="middle" x="163.5" y="-64" font-family="Helvetica,sans-Serif" font-size="10.00">string.h</text>
</a>
</g>
</g>
<!-- Node1&#45;&gt;Node4 -->
<g id="edge3_Node000001_Node000004" class="edge">
<title>Node1&#45;&gt;Node4</title>
<g id="a_edge3_Node000001_Node000004"><a xlink:title=" ">
<path fill="none" stroke="#63b8ff" d="M163.5,-113.15C163.5,-105.48 163.5,-96.94 163.5,-89.38"/>
<polygon fill="#63b8ff" stroke="#63b8ff" points="167,-89.4 163.5,-79.4 160,-89.4 167,-89.4"/>
</a>
</g>
</g>
<!-- Node5 -->
<g id="Node000005" class="node">
<title>Node5</title>
<g id="a_Node000005"><a xlink:title=" ">
<polygon fill="#e0e0e0" stroke="#999999" points="263,-77.5 208,-77.5 208,-56.75 263,-56.75 263,-77.5"/>
<text text-anchor="middle" x="235.5" y="-64" font-family="Helvetica,sans-Serif" font-size="10.00">unistd.h</text>
</a>
</g>
</g>
<!-- Node1&#45;&gt;Node5 -->
<g id="edge4_Node000001_Node000005" class="edge">
<title>Node1&#45;&gt;Node5</title>
<g id="a_edge4_Node000001_Node000005"><a xlink:title=" ">
<path fill="none" stroke="#63b8ff" d="M187.47,-113.15C197.05,-104.17 207.9,-94 216.87,-85.59"/>
<polygon fill="#63b8ff" stroke="#63b8ff" points="219.08,-88.32 223.98,-78.93 214.29,-83.21 219.08,-88.32"/>
</a>
</g>
</g>
<!-- Node6 -->
<g id="Node000006" class="node">
<title>Node6</title>
<g id="a_Node000006"><a xlink:href="../../db/d45/git__utils_8h.html" target="_top" xlink:title="Header file for Git utility functions used in facad.">
<polygon fill="white" stroke="#666666" points="345.5,-77.5 281.5,-77.5 281.5,-56.75 345.5,-56.75 345.5,-77.5"/>
<text text-anchor="middle" x="313.5" y="-64" font-family="Helvetica,sans-Serif" font-size="10.00">git_utils.h</text>
</a>
</g>
</g>
<!-- Node1&#45;&gt;Node6 -->
<g id="edge5_Node000001_Node000006" class="edge">
<title>Node1&#45;&gt;Node6</title>
<g id="a_edge5_Node000001_Node000006"><a xlink:title=" ">
<path fill="none" stroke="#63b8ff" d="M213.45,-113.15C235.88,-103.05 261.7,-91.44 281.49,-82.53"/>
<polygon fill="#63b8ff" stroke="#63b8ff" points="282.74,-85.81 290.42,-78.51 279.86,-79.42 282.74,-85.81"/>
</a>
</g>
</g>
<!-- Node7 -->
<g id="Node000007" class="node">
<title>Node7</title>
<g id="a_Node000007"><a xlink:title=" ">
<polygon fill="#e0e0e0" stroke="#999999" points="344,-20.75 283,-20.75 283,0 344,0 344,-20.75"/>
<text text-anchor="middle" x="313.5" y="-7.25" font-family="Helvetica,sans-Serif" font-size="10.00">stdbool.h</text>
</a>
</g>
</g>
<!-- Node6&#45;&gt;Node7 -->
<g id="edge6_Node000006_Node000007" class="edge">
<title>Node6&#45;&gt;Node7</title>
<g id="a_edge6_Node000006_Node000007"><a xlink:title=" ">
<path fill="none" stroke="#63b8ff" d="M313.5,-56.34C313.5,-49.72 313.5,-40.72 313.5,-32.52"/>
<polygon fill="#63b8ff" stroke="#63b8ff" points="317,-32.59 313.5,-22.59 310,-32.59 317,-32.59"/>
</a>
</g>
</g>
</g>
</svg>
</svg>

<style type='text/css'>
<![CDATA[
[data-mouse-over-selected='false'] { opacity: 0.7; }
[data-mouse-over-selected='true']  { opacity: 1.0; }
]]>
</style>
<script type="application/ecmascript"><![CDATA[
document.addEventListener('DOMContentLoaded', (event) => {
  highlightEdges();
  highlightAdjacentNodes();
});
]]></script>
</svg>
