<?xml version="1.0" encoding="UTF-8" standalone="no"?>
<!DOCTYPE svg PUBLIC "-//W3C//DTD SVG 1.1//EN"
 "http://www.w3.org/Graphics/SVG/1.1/DTD/svg11.dtd">
<!-- Generated by graphviz version 9.0.0 (20230911.1827)
 -->
<!-- Title: /home/honeyguide/Desktop/MyOpenSource/facad/src/emoji_utils.h Pages: 1 -->
<svg width="830pt" height="137pt"
 viewBox="0.00 0.00 830.25 136.50" xmlns="http://www.w3.org/2000/svg" xmlns:xlink="http://www.w3.org/1999/xlink">
<g id="graph0" class="graph" transform="scale(1 1) rotate(0) translate(4 132.5)">
<title>/home/honeyguide/Desktop/MyOpenSource/facad/src/emoji_utils.h</title>
<!-- Node1 -->
<g id="Node000001" class="node">
<title>Node1</title>
<g id="a_Node000001"><a xlink:title="Utility functions for assigning emojis to files and directories.">
<polygon fill="#999999" stroke="#666666" points="486.25,-128.5 336,-128.5 336,-82.25 486.25,-82.25 486.25,-128.5"/>
<text text-anchor="start" x="344" y="-115" font-family="Helvetica,sans-Serif" font-size="10.00">/home/honeyguide/Desktop</text>
<text text-anchor="start" x="344" y="-102.25" font-family="Helvetica,sans-Serif" font-size="10.00">/MyOpenSource/facad/src</text>
<text text-anchor="middle" x="411.12" y="-89.5" font-family="Helvetica,sans-Serif" font-size="10.00">/emoji_utils.h</text>
</a>
</g>
</g>
<!-- Node2 -->
<g id="Node000002" class="node">
<title>Node2</title>
<g id="a_Node000002"><a xlink:href="../../de/db5/dev__dir__utils_8c.html" target="_top" xlink:title="Utility functions for handling the /dev directory.">
<polygon fill="white" stroke="#666666" points="150.25,-46.25 0,-46.25 0,0 150.25,0 150.25,-46.25"/>
<text text-anchor="start" x="8" y="-32.75" font-family="Helvetica,sans-Serif" font-size="10.00">/home/honeyguide/Desktop</text>
<text text-anchor="start" x="8" y="-20" font-family="Helvetica,sans-Serif" font-size="10.00">/MyOpenSource/facad/src</text>
<text text-anchor="middle" x="75.12" y="-7.25" font-family="Helvetica,sans-Serif" font-size="10.00">/dev_dir_utils.c</text>
</a>
</g>
</g>
<!-- Node1&#45;&gt;Node2 -->
<g id="edge1_Node000001_Node000002" class="edge">
<title>Node1&#45;&gt;Node2</title>
<g id="a_edge1_Node000001_Node000002"><a xlink:title=" ">
<path fill="none" stroke="#63b8ff" d="M324.59,-85.11C275.89,-74.09 214.02,-59.81 159.12,-46.25 156.34,-45.56 153.51,-44.86 150.65,-44.14"/>
<polygon fill="#63b8ff" stroke="#63b8ff" points="323.72,-88.5 334.25,-87.29 325.26,-81.67 323.72,-88.5"/>
</a>
</g>
</g>
<!-- Node3 -->
<g id="Node000003" class="node">
<title>Node3</title>
<g id="a_Node000003"><a xlink:href="../../d8/d55/dir__analytics_8c.html" target="_top" xlink:title="Implementation of directory analytics functionality.">
<polygon fill="white" stroke="#666666" points="318.25,-46.25 168,-46.25 168,0 318.25,0 318.25,-46.25"/>
<text text-anchor="start" x="176" y="-32.75" font-family="Helvetica,sans-Serif" font-size="10.00">/home/honeyguide/Desktop</text>
<text text-anchor="start" x="176" y="-20" font-family="Helvetica,sans-Serif" font-size="10.00">/MyOpenSource/facad/src</text>
<text text-anchor="middle" x="243.12" y="-7.25" font-family="Helvetica,sans-Serif" font-size="10.00">/dir_analytics.c</text>
</a>
</g>
</g>
<!-- Node1&#45;&gt;Node3 -->
<g id="edge2_Node000001_Node000003" class="edge">
<title>Node1&#45;&gt;Node3</title>
<g id="a_edge2_Node000001_Node000003"><a xlink:title=" ">
<path fill="none" stroke="#63b8ff" d="M353.65,-76.92C333,-67.06 309.98,-56.06 290.31,-46.66"/>
<polygon fill="#63b8ff" stroke="#63b8ff" points="351.98,-80 362.51,-81.15 355,-73.69 351.98,-80"/>
</a>
</g>
</g>
<!-- Node4 -->
<g id="Node000004" class="node">
<title>Node4</title>
<g id="a_Node000004"><a xlink:href="../../d0/dc9/emoji__utils_8c.html" target="_top" xlink:title="Implementation of emoji utility functions for file representation.">
<polygon fill="white" stroke="#666666" points="486.25,-46.25 336,-46.25 336,0 486.25,0 486.25,-46.25"/>
<text text-anchor="start" x="344" y="-32.75" font-family="Helvetica,sans-Serif" font-size="10.00">/home/honeyguide/Desktop</text>
<text text-anchor="start" x="344" y="-20" font-family="Helvetica,sans-Serif" font-size="10.00">/MyOpenSource/facad/src</text>
<text text-anchor="middle" x="411.12" y="-7.25" font-family="Helvetica,sans-Serif" font-size="10.00">/emoji_utils.c</text>
</a>
</g>
</g>
<!-- Node1&#45;&gt;Node4 -->
<g id="edge3_Node000001_Node000004" class="edge">
<title>Node1&#45;&gt;Node4</title>
<g id="a_edge3_Node000001_Node000004"><a xlink:title=" ">
<path fill="none" stroke="#63b8ff" d="M411.12,-70.59C411.12,-62.5 411.12,-54.07 411.12,-46.64"/>
<polygon fill="#63b8ff" stroke="#63b8ff" points="407.63,-70.51 411.13,-80.51 414.63,-70.51 407.63,-70.51"/>
</a>
</g>
</g>
<!-- Node5 -->
<g id="Node000005" class="node">
<title>Node5</title>
<g id="a_Node000005"><a xlink:href="../../dd/d6c/file__card_8c.html" target="_top" xlink:title="Implementation of file card handling functions.">
<polygon fill="white" stroke="#666666" points="654.25,-46.25 504,-46.25 504,0 654.25,0 654.25,-46.25"/>
<text text-anchor="start" x="512" y="-32.75" font-family="Helvetica,sans-Serif" font-size="10.00">/home/honeyguide/Desktop</text>
<text text-anchor="start" x="512" y="-20" font-family="Helvetica,sans-Serif" font-size="10.00">/MyOpenSource/facad/src</text>
<text text-anchor="middle" x="579.12" y="-7.25" font-family="Helvetica,sans-Serif" font-size="10.00">/file_card.c</text>
</a>
</g>
</g>
<!-- Node1&#45;&gt;Node5 -->
<g id="edge4_Node000001_Node000005" class="edge">
<title>Node1&#45;&gt;Node5</title>
<g id="a_edge4_Node000001_Node000005"><a xlink:title=" ">
<path fill="none" stroke="#63b8ff" d="M468.6,-76.92C489.25,-67.06 512.27,-56.06 531.94,-46.66"/>
<polygon fill="#63b8ff" stroke="#63b8ff" points="467.25,-73.69 459.74,-81.15 470.27,-80 467.25,-73.69"/>
</a>
</g>
</g>
<!-- Node6 -->
<g id="Node000006" class="node">
<title>Node6</title>
<g id="a_Node000006"><a xlink:href="../../d6/d95/longlisting_8c.html" target="_top" xlink:title="Implementation of detailed directory listing functionality.">
<polygon fill="white" stroke="#666666" points="822.25,-46.25 672,-46.25 672,0 822.25,0 822.25,-46.25"/>
<text text-anchor="start" x="680" y="-32.75" font-family="Helvetica,sans-Serif" font-size="10.00">/home/honeyguide/Desktop</text>
<text text-anchor="start" x="680" y="-20" font-family="Helvetica,sans-Serif" font-size="10.00">/MyOpenSource/facad/src</text>
<text text-anchor="middle" x="747.12" y="-7.25" font-family="Helvetica,sans-Serif" font-size="10.00">/longlisting.c</text>
</a>
</g>
</g>
<!-- Node1&#45;&gt;Node6 -->
<g id="edge5_Node000001_Node000006" class="edge">
<title>Node1&#45;&gt;Node6</title>
<g id="a_edge5_Node000001_Node000006"><a xlink:title=" ">
<path fill="none" stroke="#63b8ff" d="M497.66,-85.11C546.36,-74.09 608.23,-59.81 663.12,-46.25 665.91,-45.56 668.74,-44.86 671.6,-44.14"/>
<polygon fill="#63b8ff" stroke="#63b8ff" points="496.99,-81.67 488,-87.29 498.53,-88.5 496.99,-81.67"/>
</a>
</g>
</g>
</g>
</svg>
