<?xml version="1.0" encoding="UTF-8" standalone="no"?>
<!DOCTYPE svg PUBLIC "-//W3C//DTD SVG 1.1//EN"
 "http://www.w3.org/Graphics/SVG/1.1/DTD/svg11.dtd">
<!-- Generated by graphviz version 9.0.0 (20230911.1827)
 -->
<!-- Title: is_git_repository Pages: 1 -->
<svg width="594pt" height="65pt"
 viewBox="0.00 0.00 593.50 65.39" xmlns="http://www.w3.org/2000/svg" xmlns:xlink="http://www.w3.org/1999/xlink">
<g id="graph0" class="graph" transform="scale(1 1) rotate(0) translate(4 61.39)">
<title>is_git_repository</title>
<!-- Node1 -->
<g id="Node000001" class="node">
<title>Node1</title>
<g id="a_Node000001"><a xlink:title="Checks if the current directory is part of a Git repository.">
<polygon fill="#999999" stroke="#666666" points="585.5,-25.49 488.5,-25.49 488.5,-4.74 585.5,-4.74 585.5,-25.49"/>
<text text-anchor="middle" x="537" y="-11.99" font-family="Helvetica,sans-Serif" font-size="10.00">is_git_repository</text>
</a>
</g>
</g>
<!-- Node2 -->
<g id="Node000002" class="node">
<title>Node2</title>
<g id="a_Node000002"><a xlink:href="../../df/d77/git__integration_8c.html#ac8420e6fdcd1a0373f840ecbe95a220a" target="_top" xlink:title="Integrates Git status information into file entries.">
<polygon fill="white" stroke="#666666" points="452.5,-44.49 339,-44.49 339,-23.74 452.5,-23.74 452.5,-44.49"/>
<text text-anchor="middle" x="395.75" y="-30.99" font-family="Helvetica,sans-Serif" font-size="10.00">integrate_git_status</text>
</a>
</g>
</g>
<!-- Node1&#45;&gt;Node2 -->
<g id="edge1_Node000001_Node000002" class="edge">
<title>Node1&#45;&gt;Node2</title>
<g id="a_edge1_Node000001_Node000002"><a xlink:title=" ">
<path fill="none" stroke="#63b8ff" d="M476.7,-23.2C468.81,-24.28 460.74,-25.38 452.91,-26.45"/>
<polygon fill="#63b8ff" stroke="#63b8ff" points="477.14,-26.67 486.58,-21.85 476.2,-19.74 477.14,-26.67"/>
</a>
</g>
</g>
<!-- Node4 -->
<g id="Node000004" class="node">
<title>Node4</title>
<g id="a_Node000004"><a xlink:href="../../d0/d29/main_8c.html#a0ddf1224851353fc92bfbff6f499fa97" target="_top" xlink:title="Main function of the facad program.">
<polygon fill="white" stroke="#666666" points="40.75,-44.49 0,-44.49 0,-23.74 40.75,-23.74 40.75,-44.49"/>
<text text-anchor="middle" x="20.38" y="-30.99" font-family="Helvetica,sans-Serif" font-size="10.00">main</text>
</a>
</g>
</g>
<!-- Node1&#45;&gt;Node4 -->
<g id="edge6_Node000001_Node000004" class="edge">
<title>Node1&#45;&gt;Node4</title>
<g id="a_edge6_Node000001_Node000004"><a xlink:title=" ">
<path fill="none" stroke="#63b8ff" d="M476.97,-8.95C389.05,-1.16 218.81,8.58 76.75,-15.11 64.62,-17.13 51.58,-21.49 41.21,-25.52"/>
<polygon fill="#63b8ff" stroke="#63b8ff" points="476.52,-12.42 486.8,-9.85 477.16,-5.45 476.52,-12.42"/>
</a>
</g>
</g>
<!-- Node3 -->
<g id="Node000003" class="node">
<title>Node3</title>
<g id="a_Node000003"><a xlink:href="../../d0/d29/main_8c.html#acc392fbd2ea6b07ebcc2b9c089aae2ca" target="_top" xlink:title="Processes directory entries and populates the entries array.">
<polygon fill="white" stroke="#666666" points="303,-44.49 200.75,-44.49 200.75,-23.74 303,-23.74 303,-44.49"/>
<text text-anchor="middle" x="251.88" y="-30.99" font-family="Helvetica,sans-Serif" font-size="10.00">process_directory</text>
</a>
</g>
</g>
<!-- Node2&#45;&gt;Node3 -->
<g id="edge2_Node000002_Node000003" class="edge">
<title>Node2&#45;&gt;Node3</title>
<g id="a_edge2_Node000002_Node000003"><a xlink:title=" ">
<path fill="none" stroke="#63b8ff" d="M327.39,-34.11C319.34,-34.11 311.23,-34.11 303.48,-34.11"/>
<polygon fill="#63b8ff" stroke="#63b8ff" points="327.16,-37.61 337.16,-34.11 327.16,-30.61 327.16,-37.61"/>
</a>
</g>
</g>
<!-- Node3&#45;&gt;Node4 -->
<g id="edge3_Node000003_Node000004" class="edge">
<title>Node3&#45;&gt;Node4</title>
<g id="a_edge3_Node000003_Node000004"><a xlink:title=" ">
<path fill="none" stroke="#63b8ff" d="M199.37,-47.38C188.04,-49.76 176.05,-51.88 164.75,-53.11 125.87,-57.35 115.33,-59.54 76.75,-53.11 64.62,-51.09 51.58,-46.73 41.21,-42.7"/>
<polygon fill="#63b8ff" stroke="#63b8ff" points="199.95,-50.84 208.95,-45.26 198.43,-44 199.95,-50.84"/>
</a>
</g>
</g>
<!-- Node5 -->
<g id="Node000005" class="node">
<title>Node5</title>
<g id="a_Node000005"><a xlink:href="../../d0/d29/main_8c.html#ae7d3bb334fabeeccc7dfb05e7f968d47" target="_top" xlink:title="Processes a single target (directory, file, or pattern).">
<polygon fill="white" stroke="#666666" points="164.75,-44.49 76.75,-44.49 76.75,-23.74 164.75,-23.74 164.75,-44.49"/>
<text text-anchor="middle" x="120.75" y="-30.99" font-family="Helvetica,sans-Serif" font-size="10.00">process_target</text>
</a>
</g>
</g>
<!-- Node3&#45;&gt;Node5 -->
<g id="edge4_Node000003_Node000005" class="edge">
<title>Node3&#45;&gt;Node5</title>
<g id="a_edge4_Node000003_Node000005"><a xlink:title=" ">
<path fill="none" stroke="#63b8ff" d="M189.14,-34.11C180.97,-34.11 172.75,-34.11 164.99,-34.11"/>
<polygon fill="#63b8ff" stroke="#63b8ff" points="189.07,-37.61 199.07,-34.11 189.07,-30.61 189.07,-37.61"/>
</a>
</g>
</g>
<!-- Node5&#45;&gt;Node4 -->
<g id="edge5_Node000005_Node000004" class="edge">
<title>Node5&#45;&gt;Node4</title>
<g id="a_edge5_Node000005_Node000004"><a xlink:title=" ">
<path fill="none" stroke="#63b8ff" d="M65.07,-34.11C56.55,-34.11 48.25,-34.11 41.21,-34.11"/>
<polygon fill="#63b8ff" stroke="#63b8ff" points="64.8,-37.61 74.8,-34.11 64.8,-30.61 64.8,-37.61"/>
</a>
</g>
</g>
</g>
</svg>
