<?xml version="1.0" encoding="UTF-8" standalone="no"?>
<!DOCTYPE svg PUBLIC "-//W3C//DTD SVG 1.1//EN"
 "http://www.w3.org/Graphics/SVG/1.1/DTD/svg11.dtd">
<!-- Generated by graphviz version 9.0.0 (20230911.1827)
 -->
<!-- Title: parse_status Pages: 1 -->
<svg width="696pt" height="65pt"
 viewBox="0.00 0.00 695.75 65.24" xmlns="http://www.w3.org/2000/svg" xmlns:xlink="http://www.w3.org/1999/xlink">
<g id="graph0" class="graph" transform="scale(1 1) rotate(0) translate(4 61.24)">
<title>parse_status</title>
<!-- Node1 -->
<g id="Node000001" class="node">
<title>Node1</title>
<g id="a_Node000001"><a xlink:title="Parses a Git status string and returns a single character status code.">
<polygon fill="#999999" stroke="#666666" points="687.75,-25.34 609.5,-25.34 609.5,-4.59 687.75,-4.59 687.75,-25.34"/>
<text text-anchor="middle" x="648.62" y="-11.84" font-family="Helvetica,sans-Serif" font-size="10.00">parse_status</text>
</a>
</g>
</g>
<!-- Node2 -->
<g id="Node000002" class="node">
<title>Node2</title>
<g id="a_Node000002"><a xlink:href="../../d1/db9/git__utils_8c.html#a1af8df0b83d4e26524cdb4371b7bd7a6" target="_top" xlink:title="Retrieves the Git status for all files in the current repository.">
<polygon fill="white" stroke="#666666" points="573.5,-25.34 488.5,-25.34 488.5,-4.59 573.5,-4.59 573.5,-25.34"/>
<text text-anchor="middle" x="531" y="-11.84" font-family="Helvetica,sans-Serif" font-size="10.00">get_git_status</text>
</a>
</g>
</g>
<!-- Node1&#45;&gt;Node2 -->
<g id="edge1_Node000001_Node000002" class="edge">
<title>Node1&#45;&gt;Node2</title>
<g id="a_edge1_Node000001_Node000002"><a xlink:title=" ">
<path fill="none" stroke="#63b8ff" d="M597.71,-14.96C589.78,-14.96 581.64,-14.96 573.91,-14.96"/>
<polygon fill="#63b8ff" stroke="#63b8ff" points="597.61,-18.46 607.61,-14.96 597.61,-11.46 597.61,-18.46"/>
</a>
</g>
</g>
<!-- Node3 -->
<g id="Node000003" class="node">
<title>Node3</title>
<g id="a_Node000003"><a xlink:href="../../df/d77/git__integration_8c.html#ac8420e6fdcd1a0373f840ecbe95a220a" target="_top" xlink:title="Integrates Git status information into file entries.">
<polygon fill="white" stroke="#666666" points="452.5,-44.34 339,-44.34 339,-23.59 452.5,-23.59 452.5,-44.34"/>
<text text-anchor="middle" x="395.75" y="-30.84" font-family="Helvetica,sans-Serif" font-size="10.00">integrate_git_status</text>
</a>
</g>
</g>
<!-- Node2&#45;&gt;Node3 -->
<g id="edge2_Node000002_Node000003" class="edge">
<title>Node2&#45;&gt;Node3</title>
<g id="a_edge2_Node000002_Node000003"><a xlink:title=" ">
<path fill="none" stroke="#63b8ff" d="M477.06,-22.51C469.01,-23.66 460.68,-24.85 452.57,-26"/>
<polygon fill="#63b8ff" stroke="#63b8ff" points="477.3,-26.01 486.71,-21.14 476.31,-19.08 477.3,-26.01"/>
</a>
</g>
</g>
<!-- Node5 -->
<g id="Node000005" class="node">
<title>Node5</title>
<g id="a_Node000005"><a xlink:href="../../d0/d29/main_8c.html#a0ddf1224851353fc92bfbff6f499fa97" target="_top" xlink:title="Main function of the facad program.">
<polygon fill="white" stroke="#666666" points="40.75,-44.34 0,-44.34 0,-23.59 40.75,-23.59 40.75,-44.34"/>
<text text-anchor="middle" x="20.38" y="-30.84" font-family="Helvetica,sans-Serif" font-size="10.00">main</text>
</a>
</g>
</g>
<!-- Node2&#45;&gt;Node5 -->
<g id="edge7_Node000002_Node000005" class="edge">
<title>Node2&#45;&gt;Node5</title>
<g id="a_edge7_Node000002_Node000005"><a xlink:title=" ">
<path fill="none" stroke="#63b8ff" d="M476.63,-9.32C391.4,-1.57 219.64,8.87 76.75,-14.96 64.62,-16.99 51.58,-21.34 41.21,-25.37"/>
<polygon fill="#63b8ff" stroke="#63b8ff" points="476.28,-12.8 486.56,-10.25 476.93,-5.83 476.28,-12.8"/>
</a>
</g>
</g>
<!-- Node4 -->
<g id="Node000004" class="node">
<title>Node4</title>
<g id="a_Node000004"><a xlink:href="../../d0/d29/main_8c.html#acc392fbd2ea6b07ebcc2b9c089aae2ca" target="_top" xlink:title="Processes directory entries and populates the entries array.">
<polygon fill="white" stroke="#666666" points="303,-44.34 200.75,-44.34 200.75,-23.59 303,-23.59 303,-44.34"/>
<text text-anchor="middle" x="251.88" y="-30.84" font-family="Helvetica,sans-Serif" font-size="10.00">process_directory</text>
</a>
</g>
</g>
<!-- Node3&#45;&gt;Node4 -->
<g id="edge3_Node000003_Node000004" class="edge">
<title>Node3&#45;&gt;Node4</title>
<g id="a_edge3_Node000003_Node000004"><a xlink:title=" ">
<path fill="none" stroke="#63b8ff" d="M327.39,-33.96C319.34,-33.96 311.23,-33.96 303.48,-33.96"/>
<polygon fill="#63b8ff" stroke="#63b8ff" points="327.16,-37.46 337.16,-33.96 327.16,-30.46 327.16,-37.46"/>
</a>
</g>
</g>
<!-- Node4&#45;&gt;Node5 -->
<g id="edge4_Node000004_Node000005" class="edge">
<title>Node4&#45;&gt;Node5</title>
<g id="a_edge4_Node000004_Node000005"><a xlink:title=" ">
<path fill="none" stroke="#63b8ff" d="M199.37,-47.23C188.04,-49.62 176.05,-51.73 164.75,-52.96 125.87,-57.2 115.33,-59.4 76.75,-52.96 64.62,-50.94 51.58,-46.58 41.21,-42.55"/>
<polygon fill="#63b8ff" stroke="#63b8ff" points="199.95,-50.69 208.95,-45.11 198.43,-43.86 199.95,-50.69"/>
</a>
</g>
</g>
<!-- Node6 -->
<g id="Node000006" class="node">
<title>Node6</title>
<g id="a_Node000006"><a xlink:href="../../d0/d29/main_8c.html#ae7d3bb334fabeeccc7dfb05e7f968d47" target="_top" xlink:title="Processes a single target (directory, file, or pattern).">
<polygon fill="white" stroke="#666666" points="164.75,-44.34 76.75,-44.34 76.75,-23.59 164.75,-23.59 164.75,-44.34"/>
<text text-anchor="middle" x="120.75" y="-30.84" font-family="Helvetica,sans-Serif" font-size="10.00">process_target</text>
</a>
</g>
</g>
<!-- Node4&#45;&gt;Node6 -->
<g id="edge5_Node000004_Node000006" class="edge">
<title>Node4&#45;&gt;Node6</title>
<g id="a_edge5_Node000004_Node000006"><a xlink:title=" ">
<path fill="none" stroke="#63b8ff" d="M189.14,-33.96C180.97,-33.96 172.75,-33.96 164.99,-33.96"/>
<polygon fill="#63b8ff" stroke="#63b8ff" points="189.07,-37.46 199.07,-33.96 189.07,-30.46 189.07,-37.46"/>
</a>
</g>
</g>
<!-- Node6&#45;&gt;Node5 -->
<g id="edge6_Node000006_Node000005" class="edge">
<title>Node6&#45;&gt;Node5</title>
<g id="a_edge6_Node000006_Node000005"><a xlink:title=" ">
<path fill="none" stroke="#63b8ff" d="M65.07,-33.96C56.55,-33.96 48.25,-33.96 41.21,-33.96"/>
<polygon fill="#63b8ff" stroke="#63b8ff" points="64.8,-37.46 74.8,-33.96 64.8,-30.46 64.8,-37.46"/>
</a>
</g>
</g>
</g>
</svg>
