<?xml version="1.0" encoding="UTF-8" standalone="no"?>
<!DOCTYPE svg PUBLIC "-//W3C//DTD SVG 1.1//EN"
 "http://www.w3.org/Graphics/SVG/1.1/DTD/svg11.dtd">
<!-- Generated by graphviz version 9.0.0 (20230911.1827)
 -->
<!-- Title: /home/honeyguide/Desktop/MyOpenSource/facad/src/longlisting.c Pages: 1 -->
<svg width="1008pt" height="111pt"
 viewBox="0.00 0.00 1008.00 111.00" xmlns="http://www.w3.org/2000/svg" xmlns:xlink="http://www.w3.org/1999/xlink">
<g id="graph0" class="graph" transform="scale(1 1) rotate(0) translate(4 107)">
<title>/home/honeyguide/Desktop/MyOpenSource/facad/src/longlisting.c</title>
<!-- Node1 -->
<g id="Node000001" class="node">
<title>Node1</title>
<g id="a_Node000001"><a xlink:title="Implementation of detailed directory listing functionality.">
<polygon fill="#999999" stroke="#666666" points="553.62,-103 403.38,-103 403.38,-56.75 553.62,-56.75 553.62,-103"/>
<text text-anchor="start" x="411.38" y="-89.5" font-family="Helvetica,sans-Serif" font-size="10.00">/home/honeyguide/Desktop</text>
<text text-anchor="start" x="411.38" y="-76.75" font-family="Helvetica,sans-Serif" font-size="10.00">/MyOpenSource/facad/src</text>
<text text-anchor="middle" x="478.5" y="-64" font-family="Helvetica,sans-Serif" font-size="10.00">/longlisting.c</text>
</a>
</g>
</g>
<!-- Node2 -->
<g id="Node000002" class="node">
<title>Node2</title>
<g id="a_Node000002"><a xlink:title=" ">
<polygon fill="#e0e0e0" stroke="#999999" points="49,-20.75 0,-20.75 0,0 49,0 49,-20.75"/>
<text text-anchor="middle" x="24.5" y="-7.25" font-family="Helvetica,sans-Serif" font-size="10.00">stdio.h</text>
</a>
</g>
</g>
<!-- Node1&#45;&gt;Node2 -->
<g id="edge1_Node000001_Node000002" class="edge">
<title>Node1&#45;&gt;Node2</title>
<g id="a_edge1_Node000001_Node000002"><a xlink:title=" ">
<path fill="none" stroke="#63b8ff" d="M402.88,-71.44C320.79,-62.69 185.74,-46.31 60.24,-20.86"/>
<polygon fill="#63b8ff" stroke="#63b8ff" points="61.27,-17.5 50.77,-18.92 59.87,-24.36 61.27,-17.5"/>
</a>
</g>
</g>
<!-- Node3 -->
<g id="Node000003" class="node">
<title>Node3</title>
<g id="a_Node000003"><a xlink:title=" ">
<polygon fill="#e0e0e0" stroke="#999999" points="119.5,-20.75 67.5,-20.75 67.5,0 119.5,0 119.5,-20.75"/>
<text text-anchor="middle" x="93.5" y="-7.25" font-family="Helvetica,sans-Serif" font-size="10.00">stdlib.h</text>
</a>
</g>
</g>
<!-- Node1&#45;&gt;Node3 -->
<g id="edge2_Node000001_Node000003" class="edge">
<title>Node1&#45;&gt;Node3</title>
<g id="a_edge2_Node000001_Node000003"><a xlink:title=" ">
<path fill="none" stroke="#63b8ff" d="M403,-68.5C334.41,-58.59 230.27,-42.31 130.95,-21.12"/>
<polygon fill="#63b8ff" stroke="#63b8ff" points="131.8,-17.72 121.29,-19.03 130.32,-24.56 131.8,-17.72"/>
</a>
</g>
</g>
<!-- Node4 -->
<g id="Node000004" class="node">
<title>Node4</title>
<g id="a_Node000004"><a xlink:title=" ">
<polygon fill="#e0e0e0" stroke="#999999" points="189.88,-20.75 137.12,-20.75 137.12,0 189.88,0 189.88,-20.75"/>
<text text-anchor="middle" x="163.5" y="-7.25" font-family="Helvetica,sans-Serif" font-size="10.00">string.h</text>
</a>
</g>
</g>
<!-- Node1&#45;&gt;Node4 -->
<g id="edge3_Node000001_Node000004" class="edge">
<title>Node1&#45;&gt;Node4</title>
<g id="a_edge3_Node000001_Node000004"><a xlink:title=" ">
<path fill="none" stroke="#63b8ff" d="M403.08,-64.43C349.22,-53.83 274.82,-38.63 201.08,-21.27"/>
<polygon fill="#63b8ff" stroke="#63b8ff" points="202.22,-17.95 191.69,-19.05 200.61,-24.76 202.22,-17.95"/>
</a>
</g>
</g>
<!-- Node5 -->
<g id="Node000005" class="node">
<title>Node5</title>
<g id="a_Node000005"><a xlink:title=" ">
<polygon fill="#e0e0e0" stroke="#999999" points="271.12,-20.75 207.88,-20.75 207.88,0 271.12,0 271.12,-20.75"/>
<text text-anchor="middle" x="239.5" y="-7.25" font-family="Helvetica,sans-Serif" font-size="10.00">sys/stat.h</text>
</a>
</g>
</g>
<!-- Node1&#45;&gt;Node5 -->
<g id="edge4_Node000001_Node000005" class="edge">
<title>Node1&#45;&gt;Node5</title>
<g id="a_edge4_Node000001_Node000005"><a xlink:title=" ">
<path fill="none" stroke="#63b8ff" d="M402.88,-57.52C363.07,-46.27 315.72,-32.9 282.27,-23.45"/>
<polygon fill="#63b8ff" stroke="#63b8ff" points="283.52,-20.17 272.94,-20.82 281.61,-26.91 283.52,-20.17"/>
</a>
</g>
</g>
<!-- Node6 -->
<g id="Node000006" class="node">
<title>Node6</title>
<g id="a_Node000006"><a xlink:title=" ">
<polygon fill="#e0e0e0" stroke="#999999" points="342.25,-20.75 288.75,-20.75 288.75,0 342.25,0 342.25,-20.75"/>
<text text-anchor="middle" x="315.5" y="-7.25" font-family="Helvetica,sans-Serif" font-size="10.00">dirent.h</text>
</a>
</g>
</g>
<!-- Node1&#45;&gt;Node6 -->
<g id="edge5_Node000001_Node000006" class="edge">
<title>Node1&#45;&gt;Node6</title>
<g id="a_edge5_Node000001_Node000006"><a xlink:title=" ">
<path fill="none" stroke="#63b8ff" d="M424.22,-56.4C399.62,-46.21 371.27,-34.47 349.69,-25.53"/>
<polygon fill="#63b8ff" stroke="#63b8ff" points="351.06,-22.31 340.48,-21.72 348.38,-28.78 351.06,-22.31"/>
</a>
</g>
</g>
<!-- Node7 -->
<g id="Node000007" class="node">
<title>Node7</title>
<g id="a_Node000007"><a xlink:title=" ">
<polygon fill="#e0e0e0" stroke="#999999" points="408.25,-20.75 360.75,-20.75 360.75,0 408.25,0 408.25,-20.75"/>
<text text-anchor="middle" x="384.5" y="-7.25" font-family="Helvetica,sans-Serif" font-size="10.00">time.h</text>
</a>
</g>
</g>
<!-- Node1&#45;&gt;Node7 -->
<g id="edge6_Node000001_Node000007" class="edge">
<title>Node1&#45;&gt;Node7</title>
<g id="a_edge6_Node000001_Node000007"><a xlink:title=" ">
<path fill="none" stroke="#63b8ff" d="M447.2,-56.4C434.18,-47.05 419.35,-36.4 407.38,-27.8"/>
<polygon fill="#63b8ff" stroke="#63b8ff" points="409.49,-25.01 399.33,-22.02 405.41,-30.7 409.49,-25.01"/>
</a>
</g>
</g>
<!-- Node8 -->
<g id="Node000008" class="node">
<title>Node8</title>
<g id="a_Node000008"><a xlink:title=" ">
<polygon fill="#e0e0e0" stroke="#999999" points="471.12,-20.75 425.88,-20.75 425.88,0 471.12,0 471.12,-20.75"/>
<text text-anchor="middle" x="448.5" y="-7.25" font-family="Helvetica,sans-Serif" font-size="10.00">pwd.h</text>
</a>
</g>
</g>
<!-- Node1&#45;&gt;Node8 -->
<g id="edge7_Node000001_Node000008" class="edge">
<title>Node1&#45;&gt;Node8</title>
<g id="a_edge7_Node000001_Node000008"><a xlink:title=" ">
<path fill="none" stroke="#63b8ff" d="M468.51,-56.4C464.94,-48.36 460.94,-39.36 457.46,-31.52"/>
<polygon fill="#63b8ff" stroke="#63b8ff" points="460.71,-30.24 453.45,-22.52 454.32,-33.08 460.71,-30.24"/>
</a>
</g>
</g>
<!-- Node9 -->
<g id="Node000009" class="node">
<title>Node9</title>
<g id="a_Node000009"><a xlink:title=" ">
<polygon fill="#e0e0e0" stroke="#999999" points="529.88,-20.75 489.12,-20.75 489.12,0 529.88,0 529.88,-20.75"/>
<text text-anchor="middle" x="509.5" y="-7.25" font-family="Helvetica,sans-Serif" font-size="10.00">grp.h</text>
</a>
</g>
</g>
<!-- Node1&#45;&gt;Node9 -->
<g id="edge8_Node000001_Node000009" class="edge">
<title>Node1&#45;&gt;Node9</title>
<g id="a_edge8_Node000001_Node000009"><a xlink:title=" ">
<path fill="none" stroke="#63b8ff" d="M488.82,-56.4C492.51,-48.36 496.65,-39.36 500.25,-31.52"/>
<polygon fill="#63b8ff" stroke="#63b8ff" points="503.39,-33.06 504.38,-22.52 497.03,-30.14 503.39,-33.06"/>
</a>
</g>
</g>
<!-- Node10 -->
<g id="Node000010" class="node">
<title>Node10</title>
<g id="a_Node000010"><a xlink:title=" ">
<polygon fill="#e0e0e0" stroke="#999999" points="602.62,-20.75 548.38,-20.75 548.38,0 602.62,0 602.62,-20.75"/>
<text text-anchor="middle" x="575.5" y="-7.25" font-family="Helvetica,sans-Serif" font-size="10.00">locale.h</text>
</a>
</g>
</g>
<!-- Node1&#45;&gt;Node10 -->
<g id="edge9_Node000001_Node000010" class="edge">
<title>Node1&#45;&gt;Node10</title>
<g id="a_edge9_Node000001_Node000010"><a xlink:title=" ">
<path fill="none" stroke="#63b8ff" d="M510.8,-56.4C524.37,-46.96 539.85,-36.19 552.26,-27.55"/>
<polygon fill="#63b8ff" stroke="#63b8ff" points="554.02,-30.59 560.22,-22.01 550.02,-24.84 554.02,-30.59"/>
</a>
</g>
</g>
<!-- Node11 -->
<g id="Node000011" class="node">
<title>Node11</title>
<g id="a_Node000011"><a xlink:title=" ">
<polygon fill="#e0e0e0" stroke="#999999" points="670.75,-20.75 620.25,-20.75 620.25,0 670.75,0 670.75,-20.75"/>
<text text-anchor="middle" x="645.5" y="-7.25" font-family="Helvetica,sans-Serif" font-size="10.00">errno.h</text>
</a>
</g>
</g>
<!-- Node1&#45;&gt;Node11 -->
<g id="edge10_Node000001_Node000011" class="edge">
<title>Node1&#45;&gt;Node11</title>
<g id="a_edge10_Node000001_Node000011"><a xlink:title=" ">
<path fill="none" stroke="#63b8ff" d="M534.11,-56.4C559.43,-46.16 588.63,-34.36 610.77,-25.41"/>
<polygon fill="#63b8ff" stroke="#63b8ff" points="611.98,-28.7 619.94,-21.71 609.35,-22.21 611.98,-28.7"/>
</a>
</g>
</g>
<!-- Node12 -->
<g id="Node000012" class="node">
<title>Node12</title>
<g id="a_Node000012"><a xlink:title=" ">
<polygon fill="#e0e0e0" stroke="#999999" points="744,-20.75 689,-20.75 689,0 744,0 744,-20.75"/>
<text text-anchor="middle" x="716.5" y="-7.25" font-family="Helvetica,sans-Serif" font-size="10.00">unistd.h</text>
</a>
</g>
</g>
<!-- Node1&#45;&gt;Node12 -->
<g id="edge11_Node000001_Node000012" class="edge">
<title>Node1&#45;&gt;Node12</title>
<g id="a_edge11_Node000001_Node000012"><a xlink:title=" ">
<path fill="none" stroke="#63b8ff" d="M553.8,-57.52C595.04,-45.82 644.4,-31.82 677.86,-22.34"/>
<polygon fill="#63b8ff" stroke="#63b8ff" points="678.44,-25.81 687.1,-19.71 676.53,-19.07 678.44,-25.81"/>
</a>
</g>
</g>
<!-- Node13 -->
<g id="Node000013" class="node">
<title>Node13</title>
<g id="a_Node000013"><a xlink:title=" ">
<polygon fill="#e0e0e0" stroke="#999999" points="808.5,-20.75 762.5,-20.75 762.5,0 808.5,0 808.5,-20.75"/>
<text text-anchor="middle" x="785.5" y="-7.25" font-family="Helvetica,sans-Serif" font-size="10.00">glob.h</text>
</a>
</g>
</g>
<!-- Node1&#45;&gt;Node13 -->
<g id="edge12_Node000001_Node000013" class="edge">
<title>Node1&#45;&gt;Node13</title>
<g id="a_edge12_Node000001_Node000013"><a xlink:title=" ">
<path fill="none" stroke="#63b8ff" d="M553.85,-64.57C606.61,-54.18 678.94,-39.19 751.04,-21.23"/>
<polygon fill="#63b8ff" stroke="#63b8ff" points="751.82,-24.64 760.67,-18.81 750.12,-17.86 751.82,-24.64"/>
</a>
</g>
</g>
<!-- Node14 -->
<g id="Node000014" class="node">
<title>Node14</title>
<g id="a_Node000014"><a xlink:href="../../d9/d9a/longlisting_8h.html" target="_top" xlink:title=" ">
<polygon fill="white" stroke="#666666" points="902.5,-20.75 826.5,-20.75 826.5,0 902.5,0 902.5,-20.75"/>
<text text-anchor="middle" x="864.5" y="-7.25" font-family="Helvetica,sans-Serif" font-size="10.00">longlisting.h</text>
</a>
</g>
</g>
<!-- Node1&#45;&gt;Node14 -->
<g id="edge13_Node000001_Node000014" class="edge">
<title>Node1&#45;&gt;Node14</title>
<g id="a_edge13_Node000001_Node000014"><a xlink:title=" ">
<path fill="none" stroke="#63b8ff" d="M554,-66.53C620.22,-55.57 719.39,-38.82 815.01,-21.18"/>
<polygon fill="#63b8ff" stroke="#63b8ff" points="815.36,-24.67 824.55,-19.41 814.08,-17.79 815.36,-24.67"/>
</a>
</g>
</g>
<!-- Node15 -->
<g id="Node000015" class="node">
<title>Node15</title>
<g id="a_Node000015"><a xlink:href="../../d7/d97/emoji__utils_8h.html" target="_top" xlink:title="Utility functions for assigning emojis to files and directories.">
<polygon fill="white" stroke="#666666" points="1000,-20.75 921,-20.75 921,0 1000,0 1000,-20.75"/>
<text text-anchor="middle" x="960.5" y="-7.25" font-family="Helvetica,sans-Serif" font-size="10.00">emoji_utils.h</text>
</a>
</g>
</g>
<!-- Node1&#45;&gt;Node15 -->
<g id="edge14_Node000001_Node000015" class="edge">
<title>Node1&#45;&gt;Node15</title>
<g id="a_edge14_Node000001_Node000015"><a xlink:title=" ">
<path fill="none" stroke="#63b8ff" d="M553.78,-70.06C637.94,-59.91 778.53,-42.09 909.65,-20.97"/>
<polygon fill="#63b8ff" stroke="#63b8ff" points="909.88,-24.48 919.19,-19.43 908.76,-17.57 909.88,-24.48"/>
</a>
</g>
</g>
</g>
</svg>
