<?xml version="1.0" encoding="UTF-8" standalone="no"?>
<!DOCTYPE svg PUBLIC "-//W3C//DTD SVG 1.1//EN"
 "http://www.w3.org/Graphics/SVG/1.1/DTD/svg11.dtd">
<!-- Generated by graphviz version 9.0.0 (20230911.1827)
 -->
<!-- Title: print_dir_analytics Pages: 1 -->
<svg width="263pt" height="239pt"
 viewBox="0.00 0.00 262.75 238.75" xmlns="http://www.w3.org/2000/svg" xmlns:xlink="http://www.w3.org/1999/xlink">

<svg id="main" version="1.1" xmlns="http://www.w3.org/2000/svg" xmlns:xlink="http://www.w3.org/1999/xlink" xml:space="preserve" onload="init(evt)">
<style type="text/css"><![CDATA[
.node, .edge {opacity: 0.7;}
.node.selected, .edge.selected {opacity: 1;}
.edge:hover path { stroke: red; }
.edge:hover polygon { stroke: red; fill: red; }
]]></style>
<script type="application/ecmascript" xlink:href="../../svg.min.js"/>
<svg id="graph" class="graph">
<g id="graph0" class="graph" transform="scale(1 1) rotate(0) translate(4 234.75)">
<title>print_dir_analytics</title>
<!-- Node1 -->
<g id="Node000001" class="node">
<title>Node1</title>
<g id="a_Node000001"><a xlink:title="Prints detailed analytics about a directory.">
<polygon fill="#999999" stroke="#666666" points="106,-116.75 0,-116.75 0,-96 106,-96 106,-116.75"/>
<text text-anchor="middle" x="53" y="-103.25" font-family="Helvetica,sans-Serif" font-size="10.00">print_dir_analytics</text>
</a>
</g>
</g>
<!-- Node2 -->
<g id="Node000002" class="node">
<title>Node2</title>
<g id="a_Node000002"><a xlink:href="../../d8/d55/dir__analytics_8c.html#a247c94a71c4183e613d8a5329615c165" target="_top" xlink:title="Calculates the total size of a directory and its contents.">
<polygon fill="white" stroke="#666666" points="254.75,-212.75 142,-212.75 142,-192 254.75,-192 254.75,-212.75"/>
<text text-anchor="middle" x="198.38" y="-199.25" font-family="Helvetica,sans-Serif" font-size="10.00">calculate_total_size</text>
</a>
</g>
</g>
<!-- Node1&#45;&gt;Node2 -->
<g id="edge1_Node000001_Node000002" class="edge">
<title>Node1&#45;&gt;Node2</title>
<g id="a_edge1_Node000001_Node000002"><a xlink:title=" ">
<path fill="none" stroke="#63b8ff" d="M63.86,-117.1C79.19,-133.23 110.29,-163.82 142,-182.38 144.81,-184.02 147.78,-185.57 150.83,-187.01"/>
<polygon fill="#63b8ff" stroke="#63b8ff" points="149.39,-190.2 159.96,-190.94 152.16,-183.77 149.39,-190.2"/>
</a>
</g>
</g>
<!-- Node3 -->
<g id="Node000003" class="node">
<title>Node3</title>
<g id="a_Node000003"><a xlink:href="../../d8/d55/dir__analytics_8c.html#a65261c711a51d2667c1726615395d524" target="_top" xlink:title="Recursively finds the largest file in a directory and its subdirectories.">
<polygon fill="white" stroke="#666666" points="245,-155.75 151.75,-155.75 151.75,-135 245,-135 245,-155.75"/>
<text text-anchor="middle" x="198.38" y="-142.25" font-family="Helvetica,sans-Serif" font-size="10.00">find_largest_file</text>
</a>
</g>
</g>
<!-- Node1&#45;&gt;Node3 -->
<g id="edge3_Node000001_Node000003" class="edge">
<title>Node1&#45;&gt;Node3</title>
<g id="a_edge3_Node000001_Node000003"><a xlink:title=" ">
<path fill="none" stroke="#63b8ff" d="M93.94,-117.24C110.25,-121.68 129.31,-126.86 146.6,-131.56"/>
<polygon fill="#63b8ff" stroke="#63b8ff" points="145.62,-134.92 156.19,-134.17 147.46,-128.17 145.62,-134.92"/>
</a>
</g>
</g>
<!-- Node4 -->
<g id="Node000004" class="node">
<title>Node4</title>
<g id="a_Node000004"><a xlink:href="../../d8/d55/dir__analytics_8c.html#a33a98d6f57285ecc9ccbd6c2f2b4fd9d" target="_top" xlink:title="Formats a file size into a human&#45;readable string.">
<polygon fill="white" stroke="#666666" points="235.25,-116.75 161.5,-116.75 161.5,-96 235.25,-96 235.25,-116.75"/>
<text text-anchor="middle" x="198.38" y="-103.25" font-family="Helvetica,sans-Serif" font-size="10.00">format_size</text>
</a>
</g>
</g>
<!-- Node1&#45;&gt;Node4 -->
<g id="edge5_Node000001_Node000004" class="edge">
<title>Node1&#45;&gt;Node4</title>
<g id="a_edge5_Node000001_Node000004"><a xlink:title=" ">
<path fill="none" stroke="#63b8ff" d="M106.17,-106.38C120.43,-106.38 135.81,-106.38 149.8,-106.38"/>
<polygon fill="#63b8ff" stroke="#63b8ff" points="149.66,-109.88 159.66,-106.38 149.66,-102.88 149.66,-109.88"/>
</a>
</g>
</g>
<!-- Node5 -->
<g id="Node000005" class="node">
<title>Node5</title>
<g id="a_Node000005"><a xlink:href="../../d8/d55/dir__analytics_8c.html#af2d4fbcabe2bb660a865a1a3beb3ee18" target="_top" xlink:title="Formats a time_t value into a human&#45;readable string.">
<polygon fill="white" stroke="#666666" points="236.75,-77.75 160,-77.75 160,-57 236.75,-57 236.75,-77.75"/>
<text text-anchor="middle" x="198.38" y="-64.25" font-family="Helvetica,sans-Serif" font-size="10.00">format_time</text>
</a>
</g>
</g>
<!-- Node1&#45;&gt;Node5 -->
<g id="edge6_Node000001_Node000005" class="edge">
<title>Node1&#45;&gt;Node5</title>
<g id="a_edge6_Node000001_Node000005"><a xlink:title=" ">
<path fill="none" stroke="#63b8ff" d="M93.94,-95.51C110.87,-90.9 130.77,-85.49 148.57,-80.65"/>
<polygon fill="#63b8ff" stroke="#63b8ff" points="149.43,-84.04 158.16,-78.04 147.59,-77.29 149.43,-84.04"/>
</a>
</g>
</g>
<!-- Node6 -->
<g id="Node000006" class="node">
<title>Node6</title>
<g id="a_Node000006"><a xlink:href="../../d8/d55/dir__analytics_8c.html#a8ed5df60e8023eb58017d81b7642b2d4" target="_top" xlink:title="Recursively scans a directory to find its maximum depth.">
<polygon fill="white" stroke="#666666" points="251.75,-20.75 145,-20.75 145,0 251.75,0 251.75,-20.75"/>
<text text-anchor="middle" x="198.38" y="-7.25" font-family="Helvetica,sans-Serif" font-size="10.00">recursive_dir_scan</text>
</a>
</g>
</g>
<!-- Node1&#45;&gt;Node6 -->
<g id="edge7_Node000001_Node000006" class="edge">
<title>Node1&#45;&gt;Node6</title>
<g id="a_edge7_Node000001_Node000006"><a xlink:title=" ">
<path fill="none" stroke="#63b8ff" d="M70.17,-95.55C95.04,-78.9 142.88,-46.86 172.28,-27.18"/>
<polygon fill="#63b8ff" stroke="#63b8ff" points="173.86,-30.33 180.23,-21.86 169.97,-24.51 173.86,-30.33"/>
</a>
</g>
</g>
<!-- Node2&#45;&gt;Node2 -->
<g id="edge2_Node000002_Node000002" class="edge">
<title>Node2&#45;&gt;Node2</title>
<g id="a_edge2_Node000002_Node000002"><a xlink:title=" ">
<path fill="none" stroke="#63b8ff" d="M174.95,-213.15C165.58,-221.81 173.39,-230.75 198.38,-230.75 212.04,-230.75 220.57,-228.08 223.96,-224.24"/>
<polygon fill="#63b8ff" stroke="#63b8ff" points="227.43,-223.78 222.09,-214.63 220.56,-225.12 227.43,-223.78"/>
</a>
</g>
</g>
<!-- Node3&#45;&gt;Node3 -->
<g id="edge4_Node000003_Node000003" class="edge">
<title>Node3&#45;&gt;Node3</title>
<g id="a_edge4_Node000003_Node000003"><a xlink:title=" ">
<path fill="none" stroke="#63b8ff" d="M174.95,-156.15C165.58,-164.81 173.39,-173.75 198.38,-173.75 212.04,-173.75 220.57,-171.08 223.96,-167.24"/>
<polygon fill="#63b8ff" stroke="#63b8ff" points="227.43,-166.78 222.09,-157.63 220.56,-168.12 227.43,-166.78"/>
</a>
</g>
</g>
<!-- Node6&#45;&gt;Node6 -->
<g id="edge8_Node000006_Node000006" class="edge">
<title>Node6&#45;&gt;Node6</title>
<g id="a_edge8_Node000006_Node000006"><a xlink:title=" ">
<path fill="none" stroke="#63b8ff" d="M174.95,-21.15C165.58,-29.81 173.39,-38.75 198.38,-38.75 212.04,-38.75 220.57,-36.08 223.96,-32.24"/>
<polygon fill="#63b8ff" stroke="#63b8ff" points="227.43,-31.78 222.09,-22.63 220.56,-33.12 227.43,-31.78"/>
</a>
</g>
</g>
</g>
</svg>
</svg>

<style type='text/css'>
<![CDATA[
[data-mouse-over-selected='false'] { opacity: 0.7; }
[data-mouse-over-selected='true']  { opacity: 1.0; }
]]>
</style>
<script type="application/ecmascript"><![CDATA[
document.addEventListener('DOMContentLoaded', (event) => {
  highlightEdges();
  highlightAdjacentNodes();
});
]]></script>
</svg>
