<?xml version="1.0" encoding="UTF-8" standalone="no"?>
<!DOCTYPE svg PUBLIC "-//W3C//DTD SVG 1.1//EN"
 "http://www.w3.org/Graphics/SVG/1.1/DTD/svg11.dtd">
<!-- Generated by graphviz version 9.0.0 (20230911.1827)
 -->
<!-- Title: /home/honeyguide/Desktop/MyOpenSource/facad/src/dir_config.c Pages: 1 -->
<svg width="159pt" height="111pt"
 viewBox="0.00 0.00 159.25 111.00" xmlns="http://www.w3.org/2000/svg" xmlns:xlink="http://www.w3.org/1999/xlink">
<g id="graph0" class="graph" transform="scale(1 1) rotate(0) translate(4 107)">
<title>/home/honeyguide/Desktop/MyOpenSource/facad/src/dir_config.c</title>
<!-- Node1 -->
<g id="Node000001" class="node">
<title>Node1</title>
<g id="a_Node000001"><a xlink:title="Implementation of directory configuration functions.">
<polygon fill="#999999" stroke="#666666" points="151.25,-103 1,-103 1,-56.75 151.25,-56.75 151.25,-103"/>
<text text-anchor="start" x="9" y="-89.5" font-family="Helvetica,sans-Serif" font-size="10.00">/home/honeyguide/Desktop</text>
<text text-anchor="start" x="9" y="-76.75" font-family="Helvetica,sans-Serif" font-size="10.00">/MyOpenSource/facad/src</text>
<text text-anchor="middle" x="76.12" y="-64" font-family="Helvetica,sans-Serif" font-size="10.00">/dir_config.c</text>
</a>
</g>
</g>
<!-- Node2 -->
<g id="Node000002" class="node">
<title>Node2</title>
<g id="a_Node000002"><a xlink:href="../../d4/d6f/dir__config_8h.html" target="_top" xlink:title="Header file for directory&#45;specific configurations.">
<polygon fill="white" stroke="#666666" points="72.25,-20.75 0,-20.75 0,0 72.25,0 72.25,-20.75"/>
<text text-anchor="middle" x="36.12" y="-7.25" font-family="Helvetica,sans-Serif" font-size="10.00">dir_config.h</text>
</a>
</g>
</g>
<!-- Node1&#45;&gt;Node2 -->
<g id="edge1_Node000001_Node000002" class="edge">
<title>Node1&#45;&gt;Node2</title>
<g id="a_edge1_Node000001_Node000002"><a xlink:title=" ">
<path fill="none" stroke="#63b8ff" d="M62.81,-56.4C57.93,-48.17 52.46,-38.94 47.74,-30.98"/>
<polygon fill="#63b8ff" stroke="#63b8ff" points="50.79,-29.26 42.68,-22.44 44.77,-32.83 50.79,-29.26"/>
</a>
</g>
</g>
<!-- Node3 -->
<g id="Node000003" class="node">
<title>Node3</title>
<g id="a_Node000003"><a xlink:title=" ">
<polygon fill="#e0e0e0" stroke="#999999" points="143.5,-20.75 90.75,-20.75 90.75,0 143.5,0 143.5,-20.75"/>
<text text-anchor="middle" x="117.12" y="-7.25" font-family="Helvetica,sans-Serif" font-size="10.00">string.h</text>
</a>
</g>
</g>
<!-- Node1&#45;&gt;Node3 -->
<g id="edge2_Node000001_Node000003" class="edge">
<title>Node1&#45;&gt;Node3</title>
<g id="a_edge2_Node000001_Node000003"><a xlink:title=" ">
<path fill="none" stroke="#63b8ff" d="M89.78,-56.4C94.77,-48.17 100.38,-38.94 105.22,-30.98"/>
<polygon fill="#63b8ff" stroke="#63b8ff" points="108.21,-32.8 110.41,-22.43 102.22,-29.16 108.21,-32.8"/>
</a>
</g>
</g>
</g>
</svg>
