<?xml version="1.0" encoding="UTF-8" standalone="no"?>
<!DOCTYPE svg PUBLIC "-//W3C//DTD SVG 1.1//EN"
 "http://www.w3.org/Graphics/SVG/1.1/DTD/svg11.dtd">
<!-- Generated by graphviz version 9.0.0 (20230911.1827)
 -->
<!-- Title: format_time Pages: 1 -->
<svg width="304pt" height="29pt"
 viewBox="0.00 0.00 303.50 28.75" xmlns="http://www.w3.org/2000/svg" xmlns:xlink="http://www.w3.org/1999/xlink">
<g id="graph0" class="graph" transform="scale(1 1) rotate(0) translate(4 24.75)">
<title>format_time</title>
<!-- Node1 -->
<g id="Node000001" class="node">
<title>Node1</title>
<g id="a_Node000001"><a xlink:title="Formats a time_t value into a human&#45;readable string.">
<polygon fill="#999999" stroke="#666666" points="295.5,-20.75 218.75,-20.75 218.75,0 295.5,0 295.5,-20.75"/>
<text text-anchor="middle" x="257.12" y="-7.25" font-family="Helvetica,sans-Serif" font-size="10.00">format_time</text>
</a>
</g>
</g>
<!-- Node2 -->
<g id="Node000002" class="node">
<title>Node2</title>
<g id="a_Node000002"><a xlink:href="../../d8/d55/dir__analytics_8c.html#ab481a931e3944eefb982e2666223d3d5" target="_top" xlink:title="Prints detailed analytics about a directory.">
<polygon fill="white" stroke="#666666" points="182.75,-20.75 76.75,-20.75 76.75,0 182.75,0 182.75,-20.75"/>
<text text-anchor="middle" x="129.75" y="-7.25" font-family="Helvetica,sans-Serif" font-size="10.00">print_dir_analytics</text>
</a>
</g>
</g>
<!-- Node1&#45;&gt;Node2 -->
<g id="edge1_Node000001_Node000002" class="edge">
<title>Node1&#45;&gt;Node2</title>
<g id="a_edge1_Node000001_Node000002"><a xlink:title=" ">
<path fill="none" stroke="#63b8ff" d="M207.23,-10.38C199.34,-10.38 191.14,-10.38 183.17,-10.38"/>
<polygon fill="#63b8ff" stroke="#63b8ff" points="206.99,-13.88 216.99,-10.38 206.99,-6.88 206.99,-13.88"/>
</a>
</g>
</g>
<!-- Node3 -->
<g id="Node000003" class="node">
<title>Node3</title>
<g id="a_Node000003"><a xlink:href="../../d0/d29/main_8c.html#a0ddf1224851353fc92bfbff6f499fa97" target="_top" xlink:title="Main function of the facad program.">
<polygon fill="white" stroke="#666666" points="40.75,-20.75 0,-20.75 0,0 40.75,0 40.75,-20.75"/>
<text text-anchor="middle" x="20.38" y="-7.25" font-family="Helvetica,sans-Serif" font-size="10.00">main</text>
</a>
</g>
</g>
<!-- Node2&#45;&gt;Node3 -->
<g id="edge2_Node000002_Node000003" class="edge">
<title>Node2&#45;&gt;Node3</title>
<g id="a_edge2_Node000002_Node000003"><a xlink:title=" ">
<path fill="none" stroke="#63b8ff" d="M64.89,-10.38C56.29,-10.38 48.06,-10.38 41.11,-10.38"/>
<polygon fill="#63b8ff" stroke="#63b8ff" points="64.81,-13.88 74.81,-10.38 64.81,-6.88 64.81,-13.88"/>
</a>
</g>
</g>
</g>
</svg>
