<?xml version="1.0" encoding="UTF-8" standalone="no"?>
<!DOCTYPE svg PUBLIC "-//W3C//DTD SVG 1.1//EN"
 "http://www.w3.org/Graphics/SVG/1.1/DTD/svg11.dtd">
<!-- Generated by graphviz version 9.0.0 (20230911.1827)
 -->
<!-- Title: calculate_total_size Pages: 1 -->
<svg width="340pt" height="47pt"
 viewBox="0.00 0.00 339.50 46.75" xmlns="http://www.w3.org/2000/svg" xmlns:xlink="http://www.w3.org/1999/xlink">
<g id="graph0" class="graph" transform="scale(1 1) rotate(0) translate(4 42.75)">
<title>calculate_total_size</title>
<!-- Node1 -->
<g id="Node000001" class="node">
<title>Node1</title>
<g id="a_Node000001"><a xlink:title="Calculates the total size of a directory and its contents.">
<polygon fill="#999999" stroke="#666666" points="331.5,-20.75 218.75,-20.75 218.75,0 331.5,0 331.5,-20.75"/>
<text text-anchor="middle" x="275.12" y="-7.25" font-family="Helvetica,sans-Serif" font-size="10.00">calculate_total_size</text>
</a>
</g>
</g>
<!-- Node1&#45;&gt;Node1 -->
<g id="edge1_Node000001_Node000001" class="edge">
<title>Node1&#45;&gt;Node1</title>
<g id="a_edge1_Node000001_Node000001"><a xlink:title=" ">
<path fill="none" stroke="#63b8ff" d="M300.71,-32.24C297.32,-36.08 288.79,-38.75 275.12,-38.75 250.14,-38.75 242.33,-29.81 251.7,-21.15"/>
<polygon fill="#63b8ff" stroke="#63b8ff" points="304.18,-31.78 298.84,-22.63 297.31,-33.12 304.18,-31.78"/>
</a>
</g>
</g>
<!-- Node2 -->
<g id="Node000002" class="node">
<title>Node2</title>
<g id="a_Node000002"><a xlink:href="../../d8/d55/dir__analytics_8c.html#ab481a931e3944eefb982e2666223d3d5" target="_top" xlink:title="Prints detailed analytics about a directory.">
<polygon fill="white" stroke="#666666" points="182.75,-20.75 76.75,-20.75 76.75,0 182.75,0 182.75,-20.75"/>
<text text-anchor="middle" x="129.75" y="-7.25" font-family="Helvetica,sans-Serif" font-size="10.00">print_dir_analytics</text>
</a>
</g>
</g>
<!-- Node1&#45;&gt;Node2 -->
<g id="edge2_Node000001_Node000002" class="edge">
<title>Node1&#45;&gt;Node2</title>
<g id="a_edge2_Node000001_Node000002"><a xlink:title=" ">
<path fill="none" stroke="#63b8ff" d="M206.96,-10.38C198.89,-10.38 190.74,-10.38 182.92,-10.38"/>
<polygon fill="#63b8ff" stroke="#63b8ff" points="206.77,-13.88 216.77,-10.38 206.77,-6.88 206.77,-13.88"/>
</a>
</g>
</g>
<!-- Node3 -->
<g id="Node000003" class="node">
<title>Node3</title>
<g id="a_Node000003"><a xlink:href="../../d0/d29/main_8c.html#a0ddf1224851353fc92bfbff6f499fa97" target="_top" xlink:title="Main function of the facad program.">
<polygon fill="white" stroke="#666666" points="40.75,-20.75 0,-20.75 0,0 40.75,0 40.75,-20.75"/>
<text text-anchor="middle" x="20.38" y="-7.25" font-family="Helvetica,sans-Serif" font-size="10.00">main</text>
</a>
</g>
</g>
<!-- Node2&#45;&gt;Node3 -->
<g id="edge3_Node000002_Node000003" class="edge">
<title>Node2&#45;&gt;Node3</title>
<g id="a_edge3_Node000002_Node000003"><a xlink:title=" ">
<path fill="none" stroke="#63b8ff" d="M64.89,-10.38C56.29,-10.38 48.06,-10.38 41.11,-10.38"/>
<polygon fill="#63b8ff" stroke="#63b8ff" points="64.81,-13.88 74.81,-10.38 64.81,-6.88 64.81,-13.88"/>
</a>
</g>
</g>
</g>
</svg>
