<?xml version="1.0" encoding="UTF-8" standalone="no"?>
<!DOCTYPE svg PUBLIC "-//W3C//DTD SVG 1.1//EN"
 "http://www.w3.org/Graphics/SVG/1.1/DTD/svg11.dtd">
<!-- Generated by graphviz version 9.0.0 (20230911.1827)
 -->
<!-- Title: /home/honeyguide/Desktop/MyOpenSource/facad/src/file_card.h Pages: 1 -->
<svg width="809pt" height="219pt"
 viewBox="0.00 0.00 809.25 218.75" xmlns="http://www.w3.org/2000/svg" xmlns:xlink="http://www.w3.org/1999/xlink">
<g id="graph0" class="graph" transform="scale(1 1) rotate(0) translate(4 214.75)">
<title>/home/honeyguide/Desktop/MyOpenSource/facad/src/file_card.h</title>
<!-- Node1 -->
<g id="Node000001" class="node">
<title>Node1</title>
<g id="a_Node000001"><a xlink:title="Header file for file entry handling functions and structures.">
<polygon fill="#999999" stroke="#666666" points="511.25,-210.75 361,-210.75 361,-164.5 511.25,-164.5 511.25,-210.75"/>
<text text-anchor="start" x="369" y="-197.25" font-family="Helvetica,sans-Serif" font-size="10.00">/home/honeyguide/Desktop</text>
<text text-anchor="start" x="369" y="-184.5" font-family="Helvetica,sans-Serif" font-size="10.00">/MyOpenSource/facad/src</text>
<text text-anchor="middle" x="436.12" y="-171.75" font-family="Helvetica,sans-Serif" font-size="10.00">/file_card.h</text>
</a>
</g>
</g>
<!-- Node2 -->
<g id="Node000002" class="node">
<title>Node2</title>
<g id="a_Node000002"><a xlink:href="../../db/d03/dev__dir__utils_8h.html" target="_top" xlink:title="Utility functions for handling the /dev directory.">
<polygon fill="white" stroke="#666666" points="221.25,-128.5 71,-128.5 71,-82.25 221.25,-82.25 221.25,-128.5"/>
<text text-anchor="start" x="79" y="-115" font-family="Helvetica,sans-Serif" font-size="10.00">/home/honeyguide/Desktop</text>
<text text-anchor="start" x="79" y="-102.25" font-family="Helvetica,sans-Serif" font-size="10.00">/MyOpenSource/facad/src</text>
<text text-anchor="middle" x="146.12" y="-89.5" font-family="Helvetica,sans-Serif" font-size="10.00">/dev_dir_utils.h</text>
</a>
</g>
</g>
<!-- Node1&#45;&gt;Node2 -->
<g id="edge1_Node000001_Node000002" class="edge">
<title>Node1&#45;&gt;Node2</title>
<g id="a_edge1_Node000001_Node000002"><a xlink:title=" ">
<path fill="none" stroke="#63b8ff" d="M349.69,-162.71C309,-151.45 260.91,-138.14 221.69,-127.28"/>
<polygon fill="#63b8ff" stroke="#63b8ff" points="348.66,-166.05 359.23,-165.35 350.52,-159.31 348.66,-166.05"/>
</a>
</g>
</g>
<!-- Node4 -->
<g id="Node000004" class="node">
<title>Node4</title>
<g id="a_Node000004"><a xlink:href="../../d0/d29/main_8c.html" target="_top" xlink:title="Main entry point for the facad directory listing tool.">
<polygon fill="white" stroke="#666666" points="344,-39.88 168.25,-39.88 168.25,-6.38 344,-6.38 344,-39.88"/>
<text text-anchor="start" x="176.25" y="-26.38" font-family="Helvetica,sans-Serif" font-size="10.00">/home/honeyguide/Desktop</text>
<text text-anchor="middle" x="256.12" y="-13.62" font-family="Helvetica,sans-Serif" font-size="10.00">/MyOpenSource/facad/src/main.c</text>
</a>
</g>
</g>
<!-- Node1&#45;&gt;Node4 -->
<g id="edge12_Node000001_Node000004" class="edge">
<title>Node1&#45;&gt;Node4</title>
<g id="a_edge12_Node000001_Node000004"><a xlink:title=" ">
<path fill="none" stroke="#63b8ff" d="M349.81,-175.91C319.56,-167.76 288.16,-153.48 268.12,-128.5 247.81,-103.17 249.94,-62.61 253.13,-40.24"/>
<polygon fill="#63b8ff" stroke="#63b8ff" points="348.86,-179.28 359.41,-178.28 350.54,-172.48 348.86,-179.28"/>
</a>
</g>
</g>
<!-- Node5 -->
<g id="Node000005" class="node">
<title>Node5</title>
<g id="a_Node000005"><a xlink:href="../../d2/dda/display__utils_8c.html" target="_top" xlink:title="Implementation of display utilities for file entries.">
<polygon fill="white" stroke="#666666" points="692.25,-46.25 542,-46.25 542,0 692.25,0 692.25,-46.25"/>
<text text-anchor="start" x="550" y="-32.75" font-family="Helvetica,sans-Serif" font-size="10.00">/home/honeyguide/Desktop</text>
<text text-anchor="start" x="550" y="-20" font-family="Helvetica,sans-Serif" font-size="10.00">/MyOpenSource/facad/src</text>
<text text-anchor="middle" x="617.12" y="-7.25" font-family="Helvetica,sans-Serif" font-size="10.00">/display_utils.c</text>
</a>
</g>
</g>
<!-- Node1&#45;&gt;Node5 -->
<g id="edge4_Node000001_Node000005" class="edge">
<title>Node1&#45;&gt;Node5</title>
<g id="a_edge4_Node000001_Node000005"><a xlink:title=" ">
<path fill="none" stroke="#63b8ff" d="M522.71,-175.7C552.82,-167.52 584.06,-153.28 604.12,-128.5 622.74,-105.51 623,-69.82 620.69,-46.71"/>
<polygon fill="#63b8ff" stroke="#63b8ff" points="522.01,-172.27 513.15,-178.08 523.7,-179.06 522.01,-172.27"/>
</a>
</g>
</g>
<!-- Node6 -->
<g id="Node000006" class="node">
<title>Node6</title>
<g id="a_Node000006"><a xlink:href="../../d3/df8/display__utils_8h.html" target="_top" xlink:title=" ">
<polygon fill="white" stroke="#666666" points="595.25,-128.5 445,-128.5 445,-82.25 595.25,-82.25 595.25,-128.5"/>
<text text-anchor="start" x="453" y="-115" font-family="Helvetica,sans-Serif" font-size="10.00">/home/honeyguide/Desktop</text>
<text text-anchor="start" x="453" y="-102.25" font-family="Helvetica,sans-Serif" font-size="10.00">/MyOpenSource/facad/src</text>
<text text-anchor="middle" x="520.12" y="-89.5" font-family="Helvetica,sans-Serif" font-size="10.00">/display_utils.h</text>
</a>
</g>
</g>
<!-- Node1&#45;&gt;Node6 -->
<g id="edge5_Node000001_Node000006" class="edge">
<title>Node1&#45;&gt;Node6</title>
<g id="a_edge5_Node000001_Node000006"><a xlink:title=" ">
<path fill="none" stroke="#63b8ff" d="M467.68,-156.47C477.26,-147.33 487.61,-137.44 496.56,-128.89"/>
<polygon fill="#63b8ff" stroke="#63b8ff" points="465.43,-153.79 460.62,-163.23 470.27,-158.85 465.43,-153.79"/>
</a>
</g>
</g>
<!-- Node7 -->
<g id="Node000007" class="node">
<title>Node7</title>
<g id="a_Node000007"><a xlink:href="../../dd/d6c/file__card_8c.html" target="_top" xlink:title="Implementation of file card handling functions.">
<polygon fill="white" stroke="#666666" points="801.25,-128.5 651,-128.5 651,-82.25 801.25,-82.25 801.25,-128.5"/>
<text text-anchor="start" x="659" y="-115" font-family="Helvetica,sans-Serif" font-size="10.00">/home/honeyguide/Desktop</text>
<text text-anchor="start" x="659" y="-102.25" font-family="Helvetica,sans-Serif" font-size="10.00">/MyOpenSource/facad/src</text>
<text text-anchor="middle" x="726.12" y="-89.5" font-family="Helvetica,sans-Serif" font-size="10.00">/file_card.c</text>
</a>
</g>
</g>
<!-- Node1&#45;&gt;Node7 -->
<g id="edge8_Node000001_Node000007" class="edge">
<title>Node1&#45;&gt;Node7</title>
<g id="a_edge8_Node000001_Node000007"><a xlink:title=" ">
<path fill="none" stroke="#63b8ff" d="M522.56,-162.71C563.25,-151.45 611.34,-138.14 650.56,-127.28"/>
<polygon fill="#63b8ff" stroke="#63b8ff" points="521.73,-159.31 513.02,-165.35 523.59,-166.05 521.73,-159.31"/>
</a>
</g>
</g>
<!-- Node8 -->
<g id="Node000008" class="node">
<title>Node8</title>
<g id="a_Node000008"><a xlink:href="../../d1/dc4/git__integration_8h.html" target="_top" xlink:title="Header file for Git integration functionality.">
<polygon fill="white" stroke="#666666" points="427.25,-128.5 277,-128.5 277,-82.25 427.25,-82.25 427.25,-128.5"/>
<text text-anchor="start" x="285" y="-115" font-family="Helvetica,sans-Serif" font-size="10.00">/home/honeyguide/Desktop</text>
<text text-anchor="start" x="285" y="-102.25" font-family="Helvetica,sans-Serif" font-size="10.00">/MyOpenSource/facad/src</text>
<text text-anchor="middle" x="352.12" y="-89.5" font-family="Helvetica,sans-Serif" font-size="10.00">/git_integration.h</text>
</a>
</g>
</g>
<!-- Node1&#45;&gt;Node8 -->
<g id="edge9_Node000001_Node000008" class="edge">
<title>Node1&#45;&gt;Node8</title>
<g id="a_edge9_Node000001_Node000008"><a xlink:title=" ">
<path fill="none" stroke="#63b8ff" d="M404.57,-156.47C394.99,-147.33 384.64,-137.44 375.69,-128.89"/>
<polygon fill="#63b8ff" stroke="#63b8ff" points="401.98,-158.85 411.63,-163.23 406.82,-153.79 401.98,-158.85"/>
</a>
</g>
</g>
<!-- Node3 -->
<g id="Node000003" class="node">
<title>Node3</title>
<g id="a_Node000003"><a xlink:href="../../de/db5/dev__dir__utils_8c.html" target="_top" xlink:title="Utility functions for handling the /dev directory.">
<polygon fill="white" stroke="#666666" points="150.25,-46.25 0,-46.25 0,0 150.25,0 150.25,-46.25"/>
<text text-anchor="start" x="8" y="-32.75" font-family="Helvetica,sans-Serif" font-size="10.00">/home/honeyguide/Desktop</text>
<text text-anchor="start" x="8" y="-20" font-family="Helvetica,sans-Serif" font-size="10.00">/MyOpenSource/facad/src</text>
<text text-anchor="middle" x="75.12" y="-7.25" font-family="Helvetica,sans-Serif" font-size="10.00">/dev_dir_utils.c</text>
</a>
</g>
</g>
<!-- Node2&#45;&gt;Node3 -->
<g id="edge2_Node000002_Node000003" class="edge">
<title>Node2&#45;&gt;Node3</title>
<g id="a_edge2_Node000002_Node000003"><a xlink:title=" ">
<path fill="none" stroke="#63b8ff" d="M118.96,-73.67C111,-64.68 102.46,-55.02 95.04,-46.64"/>
<polygon fill="#63b8ff" stroke="#63b8ff" points="116.1,-75.72 125.34,-80.89 121.34,-71.08 116.1,-75.72"/>
</a>
</g>
</g>
<!-- Node2&#45;&gt;Node4 -->
<g id="edge3_Node000002_Node000004" class="edge">
<title>Node2&#45;&gt;Node4</title>
<g id="a_edge3_Node000002_Node000004"><a xlink:title=" ">
<path fill="none" stroke="#63b8ff" d="M186.31,-75.06C202.46,-63.27 220.46,-50.15 234.13,-40.17"/>
<polygon fill="#63b8ff" stroke="#63b8ff" points="184.3,-72.19 178.28,-80.92 188.42,-77.85 184.3,-72.19"/>
</a>
</g>
</g>
<!-- Node6&#45;&gt;Node4 -->
<g id="edge7_Node000006_Node000004" class="edge">
<title>Node6&#45;&gt;Node4</title>
<g id="a_edge7_Node000006_Node000004"><a xlink:title=" ">
<path fill="none" stroke="#63b8ff" d="M434.99,-78.5C393.68,-65.94 345.33,-51.24 309.32,-40.3"/>
<polygon fill="#63b8ff" stroke="#63b8ff" points="433.85,-81.81 444.44,-81.37 435.89,-75.11 433.85,-81.81"/>
</a>
</g>
</g>
<!-- Node6&#45;&gt;Node5 -->
<g id="edge6_Node000006_Node000005" class="edge">
<title>Node6&#45;&gt;Node5</title>
<g id="a_edge6_Node000006_Node000005"><a xlink:title=" ">
<path fill="none" stroke="#63b8ff" d="M556.15,-74.57C567.37,-65.29 579.55,-55.21 590.05,-46.52"/>
<polygon fill="#63b8ff" stroke="#63b8ff" points="554.04,-71.77 548.57,-80.84 558.51,-77.16 554.04,-71.77"/>
</a>
</g>
</g>
<!-- Node8&#45;&gt;Node4 -->
<g id="edge11_Node000008_Node000004" class="edge">
<title>Node8&#45;&gt;Node4</title>
<g id="a_edge11_Node000008_Node000004"><a xlink:title=" ">
<path fill="none" stroke="#63b8ff" d="M316.66,-74.73C302.66,-63.03 287.14,-50.05 275.32,-40.17"/>
<polygon fill="#63b8ff" stroke="#63b8ff" points="314.05,-77.11 323.97,-80.84 318.54,-71.74 314.05,-77.11"/>
</a>
</g>
</g>
<!-- Node9 -->
<g id="Node000009" class="node">
<title>Node9</title>
<g id="a_Node000009"><a xlink:href="../../df/d77/git__integration_8c.html" target="_top" xlink:title="Implementation of Git integration for file entries.">
<polygon fill="white" stroke="#666666" points="512.25,-46.25 362,-46.25 362,0 512.25,0 512.25,-46.25"/>
<text text-anchor="start" x="370" y="-32.75" font-family="Helvetica,sans-Serif" font-size="10.00">/home/honeyguide/Desktop</text>
<text text-anchor="start" x="370" y="-20" font-family="Helvetica,sans-Serif" font-size="10.00">/MyOpenSource/facad/src</text>
<text text-anchor="middle" x="437.12" y="-7.25" font-family="Helvetica,sans-Serif" font-size="10.00">/git_integration.c</text>
</a>
</g>
</g>
<!-- Node8&#45;&gt;Node9 -->
<g id="edge10_Node000008_Node000009" class="edge">
<title>Node8&#45;&gt;Node9</title>
<g id="a_edge10_Node000008_Node000009"><a xlink:title=" ">
<path fill="none" stroke="#63b8ff" d="M384.06,-74.22C393.75,-65.08 404.22,-55.19 413.28,-46.64"/>
<polygon fill="#63b8ff" stroke="#63b8ff" points="381.77,-71.57 376.9,-80.98 386.58,-76.66 381.77,-71.57"/>
</a>
</g>
</g>
</g>
</svg>
