<?xml version="1.0" encoding="UTF-8" standalone="no"?>
<!DOCTYPE svg PUBLIC "-//W3C//DTD SVG 1.1//EN"
 "http://www.w3.org/Graphics/SVG/1.1/DTD/svg11.dtd">
<!-- Generated by graphviz version 9.0.0 (20230911.1827)
 -->
<!-- Title: /home/honeyguide/Desktop/MyOpenSource/facad/src/main.c Pages: 1 -->
<!--zoomable 212 -->

<svg id="main" version="1.1" xmlns="http://www.w3.org/2000/svg" xmlns:xlink="http://www.w3.org/1999/xlink" xml:space="preserve" onload="init(evt)">
<style type="text/css"><![CDATA[
.node, .edge {opacity: 0.7;}
.node.selected, .edge.selected {opacity: 1;}
.edge:hover path { stroke: red; }
.edge:hover polygon { stroke: red; fill: red; }
]]></style>

<defs>
  <circle id="rim" cx="0" cy="0" r="7"/>
  <circle id="rim2" cx="0" cy="0" r="3.5"/>
  <g id="zoomPlus">
    <use xlink:href="#rim" fill="#404040"><set attributeName="fill" to="#808080" begin="zoomplus.mouseover" end="zoomplus.mouseout"/></use>
    <path d="M-4,0h8M0,-4v8" fill="none" stroke="white" stroke-width="1.5" pointer-events="none"/>
  </g>
  <g id="zoomMin">
    <use xlink:href="#rim" fill="#404040"><set attributeName="fill" to="#808080" begin="zoomminus.mouseover" end="zoomminus.mouseout"/></use>
    <path d="M-4,0h8" fill="none" stroke="white" stroke-width="1.5" pointer-events="none"/>
  </g>
  <g id="arrowUp" transform="translate(30 24)">
    <use xlink:href="#rim"/>
    <path pointer-events="none" fill="none" stroke="white" stroke-width="1.5" d="M0,-3.0v7 M-2.5,-0.5L0,-3.0L2.5,-0.5"/>
  </g>
  <g id="arrowRight" transform="rotate(90) translate(36 -43)">
    <use xlink:href="#rim"/>
    <path pointer-events="none" fill="none" stroke="white" stroke-width="1.5" d="M0,-3.0v7 M-2.5,-0.5L0,-3.0L2.5,-0.5"/>
  </g>
  <g id="arrowDown" transform="rotate(180) translate(-30 -48)">
    <use xlink:href="#rim"/>
    <path pointer-events="none" fill="none" stroke="white" stroke-width="1.5" d="M0,-3.0v7 M-2.5,-0.5L0,-3.0L2.5,-0.5"/>
  </g>
  <g id="arrowLeft" transform="rotate(270) translate(-36 17)">
    <use xlink:href="#rim"/>
    <path pointer-events="none" fill="none" stroke="white" stroke-width="1.5" d="M0,-3.0v7 M-2.5,-0.5L0,-3.0L2.5,-0.5"/>
  </g>
  <g id="resetDef">
    <use xlink:href="#rim2" fill="#404040"><set attributeName="fill" to="#808080" begin="reset.mouseover" end="reset.mouseout"/></use>
  </g>
</defs>
<script type="application/ecmascript">
var viewWidth = 1386;
var viewHeight = 212;
var sectionId = 'dynsection-0';
</script>
<script type="application/ecmascript" xlink:href="../../svg.min.js"/>
<svg id="graph" class="graph">
<g id="viewport">
<title>/home/honeyguide/Desktop/MyOpenSource/facad/src/main.c</title>
<!-- Node1 -->
<g id="Node000001" class="node">
<title>Node1</title>
<g id="a_Node000001"><a xlink:title="Main entry point for the facad directory listing tool.">
<polygon fill="#999999" stroke="#666666" points="735.38,-203.75 559.62,-203.75 559.62,-170.25 735.38,-170.25 735.38,-203.75"/>
<text text-anchor="start" x="567.62" y="-190.25" font-family="Helvetica,sans-Serif" font-size="10.00">/home/honeyguide/Desktop</text>
<text text-anchor="middle" x="647.5" y="-177.5" font-family="Helvetica,sans-Serif" font-size="10.00">/MyOpenSource/facad/src/main.c</text>
</a>
</g>
</g>
<!-- Node2 -->
<g id="Node000002" class="node">
<title>Node2</title>
<g id="a_Node000002"><a xlink:title=" ">
<polygon fill="#e0e0e0" stroke="#999999" points="49,-134.25 0,-134.25 0,-113.5 49,-113.5 49,-134.25"/>
<text text-anchor="middle" x="24.5" y="-120.75" font-family="Helvetica,sans-Serif" font-size="10.00">stdio.h</text>
</a>
</g>
</g>
<!-- Node1&#45;&gt;Node2 -->
<g id="edge1_Node000001_Node000002" class="edge">
<title>Node1&#45;&gt;Node2</title>
<g id="a_edge1_Node000001_Node000002"><a xlink:title=" ">
<path fill="none" stroke="#63b8ff" d="M559.52,-183.25C446.13,-178.59 242.87,-166.48 60.42,-134.26"/>
<polygon fill="#63b8ff" stroke="#63b8ff" points="61.21,-130.85 50.75,-132.53 59.98,-137.74 61.21,-130.85"/>
</a>
</g>
</g>
<!-- Node3 -->
<g id="Node000003" class="node">
<title>Node3</title>
<g id="a_Node000003"><a xlink:title=" ">
<polygon fill="#e0e0e0" stroke="#999999" points="117.75,-134.25 67.25,-134.25 67.25,-113.5 117.75,-113.5 117.75,-134.25"/>
<text text-anchor="middle" x="92.5" y="-120.75" font-family="Helvetica,sans-Serif" font-size="10.00">errno.h</text>
</a>
</g>
</g>
<!-- Node1&#45;&gt;Node3 -->
<g id="edge2_Node000001_Node000003" class="edge">
<title>Node1&#45;&gt;Node3</title>
<g id="a_edge2_Node000001_Node000003"><a xlink:title=" ">
<path fill="none" stroke="#63b8ff" d="M559.28,-181.82C457.59,-175.97 285.38,-162.91 129.23,-134.48"/>
<polygon fill="#63b8ff" stroke="#63b8ff" points="129.97,-131.06 119.5,-132.69 128.7,-137.95 129.97,-131.06"/>
</a>
</g>
</g>
<!-- Node4 -->
<g id="Node000004" class="node">
<title>Node4</title>
<g id="a_Node000004"><a xlink:title=" ">
<polygon fill="#e0e0e0" stroke="#999999" points="187.5,-134.25 135.5,-134.25 135.5,-113.5 187.5,-113.5 187.5,-134.25"/>
<text text-anchor="middle" x="161.5" y="-120.75" font-family="Helvetica,sans-Serif" font-size="10.00">stdlib.h</text>
</a>
</g>
</g>
<!-- Node1&#45;&gt;Node4 -->
<g id="edge3_Node000001_Node000004" class="edge">
<title>Node1&#45;&gt;Node4</title>
<g id="a_edge3_Node000001_Node000004"><a xlink:title=" ">
<path fill="none" stroke="#63b8ff" d="M559.2,-179.74C470.35,-172.56 329.32,-158.78 198.76,-134.44"/>
<polygon fill="#63b8ff" stroke="#63b8ff" points="199.74,-131.06 189.26,-132.64 198.44,-137.94 199.74,-131.06"/>
</a>
</g>
</g>
<!-- Node5 -->
<g id="Node000005" class="node">
<title>Node5</title>
<g id="a_Node000005"><a xlink:title=" ">
<polygon fill="#e0e0e0" stroke="#999999" points="257.88,-134.25 205.12,-134.25 205.12,-113.5 257.88,-113.5 257.88,-134.25"/>
<text text-anchor="middle" x="231.5" y="-120.75" font-family="Helvetica,sans-Serif" font-size="10.00">string.h</text>
</a>
</g>
</g>
<!-- Node1&#45;&gt;Node5 -->
<g id="edge4_Node000001_Node000005" class="edge">
<title>Node1&#45;&gt;Node5</title>
<g id="a_edge4_Node000001_Node000005"><a xlink:title=" ">
<path fill="none" stroke="#63b8ff" d="M559.2,-177.22C484.29,-169.03 373.84,-155.23 269.25,-134.61"/>
<polygon fill="#63b8ff" stroke="#63b8ff" points="270.15,-131.22 259.65,-132.69 268.77,-138.08 270.15,-131.22"/>
</a>
</g>
</g>
<!-- Node6 -->
<g id="Node000006" class="node">
<title>Node6</title>
<g id="a_Node000006"><a xlink:title=" ">
<polygon fill="#e0e0e0" stroke="#999999" points="331,-134.25 276,-134.25 276,-113.5 331,-113.5 331,-134.25"/>
<text text-anchor="middle" x="303.5" y="-120.75" font-family="Helvetica,sans-Serif" font-size="10.00">unistd.h</text>
</a>
</g>
</g>
<!-- Node1&#45;&gt;Node6 -->
<g id="edge5_Node000001_Node000006" class="edge">
<title>Node1&#45;&gt;Node6</title>
<g id="a_edge5_Node000001_Node000006"><a xlink:title=" ">
<path fill="none" stroke="#63b8ff" d="M559.15,-173.27C500.14,-164.28 420.6,-151.22 342.38,-134.74"/>
<polygon fill="#63b8ff" stroke="#63b8ff" points="343.34,-131.36 332.83,-132.7 341.88,-138.21 343.34,-131.36"/>
</a>
</g>
</g>
<!-- Node7 -->
<g id="Node000007" class="node">
<title>Node7</title>
<g id="a_Node000007"><a xlink:title=" ">
<polygon fill="#e0e0e0" stroke="#999999" points="402.25,-134.25 348.75,-134.25 348.75,-113.5 402.25,-113.5 402.25,-134.25"/>
<text text-anchor="middle" x="375.5" y="-120.75" font-family="Helvetica,sans-Serif" font-size="10.00">dirent.h</text>
</a>
</g>
</g>
<!-- Node1&#45;&gt;Node7 -->
<g id="edge6_Node000001_Node000007" class="edge">
<title>Node1&#45;&gt;Node7</title>
<g id="a_edge6_Node000001_Node000007"><a xlink:title=" ">
<path fill="none" stroke="#63b8ff" d="M570,-169.8C526.66,-160.55 471.39,-148.46 413.77,-134.73"/>
<polygon fill="#63b8ff" stroke="#63b8ff" points="414.61,-131.33 404.07,-132.4 412.98,-138.14 414.61,-131.33"/>
</a>
</g>
</g>
<!-- Node8 -->
<g id="Node000008" class="node">
<title>Node8</title>
<g id="a_Node000008"><a xlink:title=" ">
<polygon fill="#e0e0e0" stroke="#999999" points="486.25,-134.25 420.75,-134.25 420.75,-113.5 486.25,-113.5 486.25,-134.25"/>
<text text-anchor="middle" x="453.5" y="-120.75" font-family="Helvetica,sans-Serif" font-size="10.00">fnmatch.h</text>
</a>
</g>
</g>
<!-- Node1&#45;&gt;Node8 -->
<g id="edge7_Node000001_Node000008" class="edge">
<title>Node1&#45;&gt;Node8</title>
<g id="a_edge7_Node000001_Node000008"><a xlink:title=" ">
<path fill="none" stroke="#63b8ff" d="M596.02,-169.78C564.57,-159.87 524.86,-147.36 495.34,-138.06"/>
<polygon fill="#63b8ff" stroke="#63b8ff" points="496.61,-134.79 486.02,-135.12 494.5,-141.46 496.61,-134.79"/>
</a>
</g>
</g>
<!-- Node9 -->
<g id="Node000009" class="node">
<title>Node9</title>
<g id="a_Node000009"><a xlink:title=" ">
<polygon fill="#e0e0e0" stroke="#999999" points="567.12,-134.25 503.88,-134.25 503.88,-113.5 567.12,-113.5 567.12,-134.25"/>
<text text-anchor="middle" x="535.5" y="-120.75" font-family="Helvetica,sans-Serif" font-size="10.00">sys/stat.h</text>
</a>
</g>
</g>
<!-- Node1&#45;&gt;Node9 -->
<g id="edge8_Node000001_Node000009" class="edge">
<title>Node1&#45;&gt;Node9</title>
<g id="a_edge8_Node000001_Node000009"><a xlink:title=" ">
<path fill="none" stroke="#63b8ff" d="M617.78,-169.78C600.82,-160.52 579.7,-149 563.11,-139.94"/>
<polygon fill="#63b8ff" stroke="#63b8ff" points="565.22,-137.11 554.77,-135.39 561.87,-143.25 565.22,-137.11"/>
</a>
</g>
</g>
<!-- Node10 -->
<g id="Node000010" class="node">
<title>Node10</title>
<g id="a_Node000010"><a xlink:title=" ">
<polygon fill="#e0e0e0" stroke="#999999" points="650.25,-134.25 584.75,-134.25 584.75,-113.5 650.25,-113.5 650.25,-134.25"/>
<text text-anchor="middle" x="617.5" y="-120.75" font-family="Helvetica,sans-Serif" font-size="10.00">sys/ioctl.h</text>
</a>
</g>
</g>
<!-- Node1&#45;&gt;Node10 -->
<g id="edge9_Node000001_Node000010" class="edge">
<title>Node1&#45;&gt;Node10</title>
<g id="a_edge9_Node000001_Node000010"><a xlink:title=" ">
<path fill="none" stroke="#63b8ff" d="M639.62,-169.94C635.85,-162.26 631.29,-152.98 627.3,-144.84"/>
<polygon fill="#63b8ff" stroke="#63b8ff" points="630.55,-143.51 623,-136.08 624.26,-146.59 630.55,-143.51"/>
</a>
</g>
</g>
<!-- Node11 -->
<g id="Node000011" class="node">
<title>Node11</title>
<g id="a_Node000011"><a xlink:href="../../db/d45/git__utils_8h.html" target="_top" xlink:title="Header file for Git utility functions used in facad.">
<polygon fill="white" stroke="#666666" points="801.5,-77.5 737.5,-77.5 737.5,-56.75 801.5,-56.75 801.5,-77.5"/>
<text text-anchor="middle" x="769.5" y="-64" font-family="Helvetica,sans-Serif" font-size="10.00">git_utils.h</text>
</a>
</g>
</g>
<!-- Node1&#45;&gt;Node11 -->
<g id="edge10_Node000001_Node000011" class="edge">
<title>Node1&#45;&gt;Node11</title>
<g id="a_edge10_Node000001_Node000011"><a xlink:title=" ">
<path fill="none" stroke="#63b8ff" d="M664.21,-169.86C687.01,-147.83 727.72,-108.5 751.28,-85.73"/>
<polygon fill="#63b8ff" stroke="#63b8ff" points="753.55,-88.4 758.31,-78.94 748.68,-83.37 753.55,-88.4"/>
</a>
</g>
</g>
<!-- Node13 -->
<g id="Node000013" class="node">
<title>Node13</title>
<g id="a_Node000013"><a xlink:href="../../d5/d36/file__card_8h.html" target="_top" xlink:title="Header file for file entry handling functions and structures.">
<polygon fill="white" stroke="#666666" points="936.62,-77.5 870.38,-77.5 870.38,-56.75 936.62,-56.75 936.62,-77.5"/>
<text text-anchor="middle" x="903.5" y="-64" font-family="Helvetica,sans-Serif" font-size="10.00">file_card.h</text>
</a>
</g>
</g>
<!-- Node1&#45;&gt;Node13 -->
<g id="edge12_Node000001_Node000013" class="edge">
<title>Node1&#45;&gt;Node13</title>
<g id="a_edge12_Node000001_Node000013"><a xlink:title=" ">
<path fill="none" stroke="#63b8ff" d="M735.66,-175.87C772.97,-168.54 815.56,-155.93 849.5,-134.25 867.79,-122.57 882.83,-102.61 892.35,-87.67"/>
<polygon fill="#63b8ff" stroke="#63b8ff" points="895.31,-89.53 897.49,-79.16 889.32,-85.91 895.31,-89.53"/>
</a>
</g>
</g>
<!-- Node14 -->
<g id="Node000014" class="node">
<title>Node14</title>
<g id="a_Node000014"><a xlink:href="../../d4/d6f/dir__config_8h.html" target="_top" xlink:title="Header file for directory&#45;specific configurations.">
<polygon fill="white" stroke="#666666" points="1178.62,-134.25 1106.38,-134.25 1106.38,-113.5 1178.62,-113.5 1178.62,-134.25"/>
<text text-anchor="middle" x="1142.5" y="-120.75" font-family="Helvetica,sans-Serif" font-size="10.00">dir_config.h</text>
</a>
</g>
</g>
<!-- Node1&#45;&gt;Node14 -->
<g id="edge13_Node000001_Node000014" class="edge">
<title>Node1&#45;&gt;Node14</title>
<g id="a_edge13_Node000001_Node000014"><a xlink:title=" ">
<path fill="none" stroke="#63b8ff" d="M735.78,-178.24C824.26,-169.92 964.58,-155.24 1095.21,-134.5"/>
<polygon fill="#63b8ff" stroke="#63b8ff" points="1095.39,-138.01 1104.71,-132.97 1094.28,-131.1 1095.39,-138.01"/>
</a>
</g>
</g>
<!-- Node15 -->
<g id="Node000015" class="node">
<title>Node15</title>
<g id="a_Node000015"><a xlink:href="../../da/d7e/args__parser_8h.html" target="_top" xlink:title="Header file for command&#45;line argument parsing in facad.">
<polygon fill="white" stroke="#666666" points="719.12,-77.5 637.88,-77.5 637.88,-56.75 719.12,-56.75 719.12,-77.5"/>
<text text-anchor="middle" x="678.5" y="-64" font-family="Helvetica,sans-Serif" font-size="10.00">args_parser.h</text>
</a>
</g>
</g>
<!-- Node1&#45;&gt;Node15 -->
<g id="edge14_Node000001_Node000015" class="edge">
<title>Node1&#45;&gt;Node15</title>
<g id="a_edge14_Node000001_Node000015"><a xlink:title=" ">
<path fill="none" stroke="#63b8ff" d="M651.68,-170.1C657.2,-149.12 666.93,-112.12 673.03,-88.93"/>
<polygon fill="#63b8ff" stroke="#63b8ff" points="676.38,-89.96 675.54,-79.4 669.61,-88.18 676.38,-89.96"/>
</a>
</g>
</g>
<!-- Node16 -->
<g id="Node000016" class="node">
<title>Node16</title>
<g id="a_Node000016"><a xlink:href="../../d9/d9a/longlisting_8h.html" target="_top" xlink:title=" ">
<polygon fill="white" stroke="#666666" points="1272.5,-134.25 1196.5,-134.25 1196.5,-113.5 1272.5,-113.5 1272.5,-134.25"/>
<text text-anchor="middle" x="1234.5" y="-120.75" font-family="Helvetica,sans-Serif" font-size="10.00">longlisting.h</text>
</a>
</g>
</g>
<!-- Node1&#45;&gt;Node16 -->
<g id="edge16_Node000001_Node000016" class="edge">
<title>Node1&#45;&gt;Node16</title>
<g id="a_edge16_Node000001_Node000016"><a xlink:title=" ">
<path fill="none" stroke="#63b8ff" d="M735.75,-180.3C840.54,-172.91 1020.78,-158.25 1184.8,-134.52"/>
<polygon fill="#63b8ff" stroke="#63b8ff" points="1185.2,-138 1194.58,-133.09 1184.18,-131.07 1185.2,-138"/>
</a>
</g>
</g>
<!-- Node17 -->
<g id="Node000017" class="node">
<title>Node17</title>
<g id="a_Node000017"><a xlink:href="../../da/dca/dir__analytics_8h.html" target="_top" xlink:title="Header file for directory analysis functionality.">
<polygon fill="white" stroke="#666666" points="1378.12,-134.25 1290.88,-134.25 1290.88,-113.5 1378.12,-113.5 1378.12,-134.25"/>
<text text-anchor="middle" x="1334.5" y="-120.75" font-family="Helvetica,sans-Serif" font-size="10.00">dir_analytics.h</text>
</a>
</g>
</g>
<!-- Node1&#45;&gt;Node17 -->
<g id="edge17_Node000001_Node000017" class="edge">
<title>Node1&#45;&gt;Node17</title>
<g id="a_edge17_Node000001_Node000017"><a xlink:title=" ">
<path fill="none" stroke="#63b8ff" d="M735.72,-181.41C856.17,-174.57 1079.03,-159.83 1279.26,-134.42"/>
<polygon fill="#63b8ff" stroke="#63b8ff" points="1279.61,-137.9 1289.09,-133.16 1278.72,-130.96 1279.61,-137.9"/>
</a>
</g>
</g>
<!-- Node18 -->
<g id="Node000018" class="node">
<title>Node18</title>
<g id="a_Node000018"><a xlink:href="../../d3/df8/display__utils_8h.html" target="_top" xlink:title=" ">
<polygon fill="white" stroke="#666666" points="982.75,-134.25 896.25,-134.25 896.25,-113.5 982.75,-113.5 982.75,-134.25"/>
<text text-anchor="middle" x="939.5" y="-120.75" font-family="Helvetica,sans-Serif" font-size="10.00">display_utils.h</text>
</a>
</g>
</g>
<!-- Node1&#45;&gt;Node18 -->
<g id="edge18_Node000001_Node000018" class="edge">
<title>Node1&#45;&gt;Node18</title>
<g id="a_edge18_Node000001_Node000018"><a xlink:title=" ">
<path fill="none" stroke="#63b8ff" d="M724.98,-169.78C775.45,-159.22 840.04,-145.7 885.1,-136.26"/>
<polygon fill="#63b8ff" stroke="#63b8ff" points="885.56,-139.74 894.63,-134.27 884.13,-132.89 885.56,-139.74"/>
</a>
</g>
</g>
<!-- Node19 -->
<g id="Node000019" class="node">
<title>Node19</title>
<g id="a_Node000019"><a xlink:href="../../db/d03/dev__dir__utils_8h.html" target="_top" xlink:title="Utility functions for handling the /dev directory.">
<polygon fill="white" stroke="#666666" points="1088.12,-134.25 1000.88,-134.25 1000.88,-113.5 1088.12,-113.5 1088.12,-134.25"/>
<text text-anchor="middle" x="1044.5" y="-120.75" font-family="Helvetica,sans-Serif" font-size="10.00">dev_dir_utils.h</text>
</a>
</g>
</g>
<!-- Node1&#45;&gt;Node19 -->
<g id="edge20_Node000001_Node000019" class="edge">
<title>Node1&#45;&gt;Node19</title>
<g id="a_edge20_Node000001_Node000019"><a xlink:title=" ">
<path fill="none" stroke="#63b8ff" d="M735.62,-173.38C802.45,-163.66 896.91,-149.61 989.3,-134.58"/>
<polygon fill="#63b8ff" stroke="#63b8ff" points="989.76,-138.05 999.06,-132.98 988.63,-131.14 989.76,-138.05"/>
</a>
</g>
</g>
<!-- Node20 -->
<g id="Node000020" class="node">
<title>Node20</title>
<g id="a_Node000020"><a xlink:href="../../d1/dc4/git__integration_8h.html" target="_top" xlink:title="Header file for Git integration functionality.">
<polygon fill="white" stroke="#666666" points="840.62,-134.25 744.38,-134.25 744.38,-113.5 840.62,-113.5 840.62,-134.25"/>
<text text-anchor="middle" x="792.5" y="-120.75" font-family="Helvetica,sans-Serif" font-size="10.00">git_integration.h</text>
</a>
</g>
</g>
<!-- Node1&#45;&gt;Node20 -->
<g id="edge22_Node000001_Node000020" class="edge">
<title>Node1&#45;&gt;Node20</title>
<g id="a_edge22_Node000001_Node000020"><a xlink:title=" ">
<path fill="none" stroke="#63b8ff" d="M685.98,-169.78C708.66,-160.22 737.08,-148.24 758.86,-139.05"/>
<polygon fill="#63b8ff" stroke="#63b8ff" points="760.03,-142.36 767.88,-135.25 757.31,-135.91 760.03,-142.36"/>
</a>
</g>
</g>
<!-- Node12 -->
<g id="Node000012" class="node">
<title>Node12</title>
<g id="a_Node000012"><a xlink:title=" ">
<polygon fill="#e0e0e0" stroke="#999999" points="754,-20.75 693,-20.75 693,0 754,0 754,-20.75"/>
<text text-anchor="middle" x="723.5" y="-7.25" font-family="Helvetica,sans-Serif" font-size="10.00">stdbool.h</text>
</a>
</g>
</g>
<!-- Node11&#45;&gt;Node12 -->
<g id="edge11_Node000011_Node000012" class="edge">
<title>Node11&#45;&gt;Node12</title>
<g id="a_edge11_Node000011_Node000012"><a xlink:title=" ">
<path fill="none" stroke="#63b8ff" d="M761.28,-56.34C755.06,-48.94 746.35,-38.57 738.86,-29.66"/>
<polygon fill="#63b8ff" stroke="#63b8ff" points="741.74,-27.64 732.63,-22.24 736.38,-32.15 741.74,-27.64"/>
</a>
</g>
</g>
<!-- Node15&#45;&gt;Node12 -->
<g id="edge15_Node000015_Node000012" class="edge">
<title>Node15&#45;&gt;Node12</title>
<g id="a_edge15_Node000015_Node000012"><a xlink:title=" ">
<path fill="none" stroke="#63b8ff" d="M686.55,-56.34C692.56,-49.02 700.97,-38.79 708.24,-29.94"/>
<polygon fill="#63b8ff" stroke="#63b8ff" points="710.92,-32.2 714.56,-22.25 705.51,-27.75 710.92,-32.2"/>
</a>
</g>
</g>
<!-- Node18&#45;&gt;Node13 -->
<g id="edge19_Node000018_Node000013" class="edge">
<title>Node18&#45;&gt;Node13</title>
<g id="a_edge19_Node000018_Node000013"><a xlink:title=" ">
<path fill="none" stroke="#63b8ff" d="M933.06,-113.09C928.35,-105.92 921.81,-95.98 916.08,-87.26"/>
<polygon fill="#63b8ff" stroke="#63b8ff" points="919.13,-85.53 910.71,-79.09 913.28,-89.37 919.13,-85.53"/>
</a>
</g>
</g>
<!-- Node19&#45;&gt;Node13 -->
<g id="edge21_Node000019_Node000013" class="edge">
<title>Node19&#45;&gt;Node13</title>
<g id="a_edge21_Node000019_Node000013"><a xlink:title=" ">
<path fill="none" stroke="#63b8ff" d="M1019.29,-113.09C996.94,-104.41 964.04,-91.63 939.02,-81.92"/>
<polygon fill="#63b8ff" stroke="#63b8ff" points="940.49,-78.73 929.9,-78.38 937.96,-85.26 940.49,-78.73"/>
</a>
</g>
</g>
<!-- Node20&#45;&gt;Node11 -->
<g id="edge24_Node000020_Node000011" class="edge">
<title>Node20&#45;&gt;Node11</title>
<g id="a_edge24_Node000020_Node000011"><a xlink:title=" ">
<path fill="none" stroke="#63b8ff" d="M788.39,-113.09C785.51,-106.24 781.56,-96.84 778.02,-88.4"/>
<polygon fill="#63b8ff" stroke="#63b8ff" points="781.26,-87.09 774.16,-79.22 774.81,-89.8 781.26,-87.09"/>
</a>
</g>
</g>
<!-- Node20&#45;&gt;Node13 -->
<g id="edge23_Node000020_Node000013" class="edge">
<title>Node20&#45;&gt;Node13</title>
<g id="a_edge23_Node000020_Node000013"><a xlink:title=" ">
<path fill="none" stroke="#63b8ff" d="M812.34,-113.09C829.39,-104.68 854.22,-92.43 873.66,-82.84"/>
<polygon fill="#63b8ff" stroke="#63b8ff" points="875.05,-86.06 882.47,-78.5 871.95,-79.78 875.05,-86.06"/>
</a>
</g>
</g>
</g>
</svg>

<g id="navigator" transform="translate(0 0)" fill="#404254">
  <rect fill="#f2f5e9" fill-opacity="0.5" stroke="#606060" stroke-width=".5" x="0" y="0" width="60" height="60"/>
  <use id="zoomplus" xlink:href="#zoomPlus" x="17" y="9" onmousedown="handleZoom(evt,'in')"/>
  <use id="zoomminus" xlink:href="#zoomMin" x="42" y="9" onmousedown="handleZoom(evt,'out')"/>
  <use id="reset" xlink:href="#resetDef" x="30" y="36" onmousedown="handleReset()"/>
   <use id="arrowup" xlink:href="#arrowUp" x="0" y="0" onmousedown="handlePan(0,-1)"/>
  <use id="arrowright" xlink:href="#arrowRight" x="0" y="0" onmousedown="handlePan(1,0)"/>
  <use id="arrowdown" xlink:href="#arrowDown" x="0" y="0" onmousedown="handlePan(0,1)"/>
  <use id="arrowleft" xlink:href="#arrowLeft" x="0" y="0" onmousedown="handlePan(-1,0)"/>
</g>
<svg viewBox="0 0 15 15" width="100%" height="30px" preserveAspectRatio="xMaxYMin meet">
 <g id="arrow_out" transform="scale(0.3 0.3)">
  <a xlink:href="main_8c__incl_org.svg" target="_base">
   <rect id="button" ry="5" rx="5" y="6" x="6" height="38" width="38"
        fill="#f2f5e9" fill-opacity="0.5" stroke="#606060" stroke-width="1.0"/>
   <path id="arrow"
     d="M 11.500037,31.436501 C 11.940474,20.09759 22.043105,11.32322 32.158766,21.979434 L 37.068811,17.246167 C 37.068811,17.246167 37.088388,32 37.088388,32 L 22.160133,31.978069 C 22.160133,31.978069 26.997745,27.140456 26.997745,27.140456 C 18.528582,18.264221 13.291696,25.230495 11.500037,31.436501 z"
     style="fill:#404040;"/>
  </a>
 </g>
</svg>

<style type='text/css'>
<![CDATA[
[data-mouse-over-selected='false'] { opacity: 0.7; }
[data-mouse-over-selected='true']  { opacity: 1.0; }
]]>
</style>
<script type="application/ecmascript"><![CDATA[
document.addEventListener('DOMContentLoaded', (event) => {
  highlightEdges();
  highlightAdjacentNodes();
});
]]></script>
</svg>
