<?xml version="1.0" encoding="UTF-8" standalone="no"?>
<!DOCTYPE svg PUBLIC "-//W3C//DTD SVG 1.1//EN"
 "http://www.w3.org/Graphics/SVG/1.1/DTD/svg11.dtd">
<!-- Generated by graphviz version 9.0.0 (20230911.1827)
 -->
<!-- Title: compare_entries Pages: 1 -->
<svg width="339pt" height="68pt"
 viewBox="0.00 0.00 338.75 67.75" xmlns="http://www.w3.org/2000/svg" xmlns:xlink="http://www.w3.org/1999/xlink">

<svg id="main" version="1.1" xmlns="http://www.w3.org/2000/svg" xmlns:xlink="http://www.w3.org/1999/xlink" xml:space="preserve" onload="init(evt)">
<style type="text/css"><![CDATA[
.node, .edge {opacity: 0.7;}
.node.selected, .edge.selected {opacity: 1;}
.edge:hover path { stroke: red; }
.edge:hover polygon { stroke: red; fill: red; }
]]></style>
<script type="application/ecmascript" xlink:href="../../svg.min.js"/>
<svg id="graph" class="graph">
<g id="graph0" class="graph" transform="scale(1 1) rotate(0) translate(4 63.75)">
<title>compare_entries</title>
<!-- Node1 -->
<g id="Node000001" class="node">
<title>Node1</title>
<g id="a_Node000001"><a xlink:title="Comparison function for sorting file_info structures.">
<polygon fill="#999999" stroke="#666666" points="330.75,-39.75 233,-39.75 233,-19 330.75,-19 330.75,-39.75"/>
<text text-anchor="middle" x="281.88" y="-26.25" font-family="Helvetica,sans-Serif" font-size="10.00">compare_entries</text>
</a>
</g>
</g>
<!-- Node2 -->
<g id="Node000002" class="node">
<title>Node2</title>
<g id="a_Node000002"><a xlink:href="../../d6/d95/longlisting_8c.html#a9aa67dc0ec987dacbfbc8dfe5745c5be" target="_top" xlink:title="Prints a detailed listing of the contents of a directory.">
<polygon fill="white" stroke="#666666" points="184.25,-59.75 89.5,-59.75 89.5,-39 184.25,-39 184.25,-59.75"/>
<text text-anchor="middle" x="136.88" y="-46.25" font-family="Helvetica,sans-Serif" font-size="10.00">print_longlisting</text>
</a>
</g>
</g>
<!-- Node1&#45;&gt;Node2 -->
<g id="edge1_Node000001_Node000002" class="edge">
<title>Node1&#45;&gt;Node2</title>
<g id="a_edge1_Node000001_Node000002"><a xlink:title=" ">
<path fill="none" stroke="#63b8ff" d="M221.68,-37.65C209.29,-39.39 196.4,-41.19 184.55,-42.85"/>
<polygon fill="#63b8ff" stroke="#63b8ff" points="221.94,-41.15 231.36,-36.3 220.97,-34.22 221.94,-41.15"/>
</a>
</g>
</g>
<!-- Node4 -->
<g id="Node000004" class="node">
<title>Node4</title>
<g id="a_Node000004"><a xlink:href="../../d6/d95/longlisting_8c.html#a1af2c63d6b774640dcf8f6b3127dfa47" target="_top" xlink:title=" ">
<polygon fill="white" stroke="#666666" points="197,-20.75 76.75,-20.75 76.75,0 197,0 197,-20.75"/>
<text text-anchor="middle" x="136.88" y="-7.25" font-family="Helvetica,sans-Serif" font-size="10.00">print_longlisting_files</text>
</a>
</g>
</g>
<!-- Node1&#45;&gt;Node4 -->
<g id="edge3_Node000001_Node000004" class="edge">
<title>Node1&#45;&gt;Node4</title>
<g id="a_edge3_Node000001_Node000004"><a xlink:title=" ">
<path fill="none" stroke="#63b8ff" d="M221.71,-21.51C213.7,-20.45 205.47,-19.36 197.45,-18.29"/>
<polygon fill="#63b8ff" stroke="#63b8ff" points="220.99,-24.95 231.36,-22.8 221.91,-18.01 220.99,-24.95"/>
</a>
</g>
</g>
<!-- Node3 -->
<g id="Node000003" class="node">
<title>Node3</title>
<g id="a_Node000003"><a xlink:href="../../d0/d29/main_8c.html#a0ddf1224851353fc92bfbff6f499fa97" target="_top" xlink:title="Main function of the facad program.">
<polygon fill="white" stroke="#666666" points="40.75,-39.75 0,-39.75 0,-19 40.75,-19 40.75,-39.75"/>
<text text-anchor="middle" x="20.38" y="-26.25" font-family="Helvetica,sans-Serif" font-size="10.00">main</text>
</a>
</g>
</g>
<!-- Node2&#45;&gt;Node3 -->
<g id="edge2_Node000002_Node000003" class="edge">
<title>Node2&#45;&gt;Node3</title>
<g id="a_edge2_Node000002_Node000003"><a xlink:title=" ">
<path fill="none" stroke="#63b8ff" d="M78.13,-39.29C64.77,-36.95 51.44,-34.63 41.06,-32.81"/>
<polygon fill="#63b8ff" stroke="#63b8ff" points="77.36,-42.71 87.81,-40.98 78.56,-35.81 77.36,-42.71"/>
</a>
</g>
</g>
<!-- Node4&#45;&gt;Node3 -->
<g id="edge4_Node000004_Node000003" class="edge">
<title>Node4&#45;&gt;Node3</title>
<g id="a_edge4_Node000004_Node000003"><a xlink:title=" ">
<path fill="none" stroke="#63b8ff" d="M65.06,-22.13C56.34,-23.57 48.07,-24.95 41.11,-26.1"/>
<polygon fill="#63b8ff" stroke="#63b8ff" points="65.49,-25.6 74.78,-20.51 64.35,-18.7 65.49,-25.6"/>
</a>
</g>
</g>
</g>
</svg>
</svg>

<style type='text/css'>
<![CDATA[
[data-mouse-over-selected='false'] { opacity: 0.7; }
[data-mouse-over-selected='true']  { opacity: 1.0; }
]]>
</style>
<script type="application/ecmascript"><![CDATA[
document.addEventListener('DOMContentLoaded', (event) => {
  highlightEdges();
  highlightAdjacentNodes();
});
]]></script>
</svg>
