<?xml version="1.0" encoding="UTF-8" standalone="no"?>
<!DOCTYPE svg PUBLIC "-//W3C//DTD SVG 1.1//EN"
 "http://www.w3.org/Graphics/SVG/1.1/DTD/svg11.dtd">
<!-- Generated by graphviz version 9.0.0 (20230911.1827)
 -->
<!-- Title: print_sorted_entries Pages: 1 -->
<svg width="355pt" height="68pt"
 viewBox="0.00 0.00 354.50 67.75" xmlns="http://www.w3.org/2000/svg" xmlns:xlink="http://www.w3.org/1999/xlink">
<g id="graph0" class="graph" transform="scale(1 1) rotate(0) translate(4 63.75)">
<title>print_sorted_entries</title>
<!-- Node1 -->
<g id="Node000001" class="node">
<title>Node1</title>
<g id="a_Node000001"><a xlink:title="Prints sorted entries in a detailed format.">
<polygon fill="#999999" stroke="#666666" points="346.5,-39.75 233,-39.75 233,-19 346.5,-19 346.5,-39.75"/>
<text text-anchor="middle" x="289.75" y="-26.25" font-family="Helvetica,sans-Serif" font-size="10.00">print_sorted_entries</text>
</a>
</g>
</g>
<!-- Node2 -->
<g id="Node000002" class="node">
<title>Node2</title>
<g id="a_Node000002"><a xlink:href="../../d6/d95/longlisting_8c.html#a9aa67dc0ec987dacbfbc8dfe5745c5be" target="_top" xlink:title="Prints a detailed listing of the contents of a directory.">
<polygon fill="white" stroke="#666666" points="184.25,-59.75 89.5,-59.75 89.5,-39 184.25,-39 184.25,-59.75"/>
<text text-anchor="middle" x="136.88" y="-46.25" font-family="Helvetica,sans-Serif" font-size="10.00">print_longlisting</text>
</a>
</g>
</g>
<!-- Node1&#45;&gt;Node2 -->
<g id="edge1_Node000001_Node000002" class="edge">
<title>Node1&#45;&gt;Node2</title>
<g id="a_edge1_Node000001_Node000002"><a xlink:title=" ">
<path fill="none" stroke="#63b8ff" d="M221.34,-38.31C208.97,-39.95 196.32,-41.63 184.72,-43.17"/>
<polygon fill="#63b8ff" stroke="#63b8ff" points="221.62,-41.8 231.07,-37.02 220.7,-34.87 221.62,-41.8"/>
</a>
</g>
</g>
<!-- Node4 -->
<g id="Node000004" class="node">
<title>Node4</title>
<g id="a_Node000004"><a xlink:href="../../d6/d95/longlisting_8c.html#a1af2c63d6b774640dcf8f6b3127dfa47" target="_top" xlink:title=" ">
<polygon fill="white" stroke="#666666" points="197,-20.75 76.75,-20.75 76.75,0 197,0 197,-20.75"/>
<text text-anchor="middle" x="136.88" y="-7.25" font-family="Helvetica,sans-Serif" font-size="10.00">print_longlisting_files</text>
</a>
</g>
</g>
<!-- Node1&#45;&gt;Node4 -->
<g id="edge3_Node000001_Node000004" class="edge">
<title>Node1&#45;&gt;Node4</title>
<g id="a_edge3_Node000001_Node000004"><a xlink:title=" ">
<path fill="none" stroke="#63b8ff" d="M221.38,-20.89C213.38,-19.88 205.26,-18.86 197.39,-17.87"/>
<polygon fill="#63b8ff" stroke="#63b8ff" points="220.71,-24.33 231.07,-22.11 221.58,-17.39 220.71,-24.33"/>
</a>
</g>
</g>
<!-- Node3 -->
<g id="Node000003" class="node">
<title>Node3</title>
<g id="a_Node000003"><a xlink:href="../../d0/d29/main_8c.html#a0ddf1224851353fc92bfbff6f499fa97" target="_top" xlink:title="Main function of the facad program.">
<polygon fill="white" stroke="#666666" points="40.75,-39.75 0,-39.75 0,-19 40.75,-19 40.75,-39.75"/>
<text text-anchor="middle" x="20.38" y="-26.25" font-family="Helvetica,sans-Serif" font-size="10.00">main</text>
</a>
</g>
</g>
<!-- Node2&#45;&gt;Node3 -->
<g id="edge2_Node000002_Node000003" class="edge">
<title>Node2&#45;&gt;Node3</title>
<g id="a_edge2_Node000002_Node000003"><a xlink:title=" ">
<path fill="none" stroke="#63b8ff" d="M78.13,-39.29C64.77,-36.95 51.44,-34.63 41.06,-32.81"/>
<polygon fill="#63b8ff" stroke="#63b8ff" points="77.36,-42.71 87.81,-40.98 78.56,-35.81 77.36,-42.71"/>
</a>
</g>
</g>
<!-- Node4&#45;&gt;Node3 -->
<g id="edge4_Node000004_Node000003" class="edge">
<title>Node4&#45;&gt;Node3</title>
<g id="a_edge4_Node000004_Node000003"><a xlink:title=" ">
<path fill="none" stroke="#63b8ff" d="M65.06,-22.13C56.34,-23.57 48.07,-24.95 41.11,-26.1"/>
<polygon fill="#63b8ff" stroke="#63b8ff" points="65.49,-25.6 74.78,-20.51 64.35,-18.7 65.49,-25.6"/>
</a>
</g>
</g>
</g>
</svg>
