<?xml version="1.0" encoding="UTF-8" standalone="no"?>
<!DOCTYPE svg PUBLIC "-//W3C//DTD SVG 1.1//EN"
 "http://www.w3.org/Graphics/SVG/1.1/DTD/svg11.dtd">
<!-- Generated by graphviz version 9.0.0 (20230911.1827)
 -->
<!-- Title: print_sorted_entries Pages: 1 -->
<svg width="483pt" height="144pt"
 viewBox="0.00 0.00 483.00 143.75" xmlns="http://www.w3.org/2000/svg" xmlns:xlink="http://www.w3.org/1999/xlink">

<svg id="main" version="1.1" xmlns="http://www.w3.org/2000/svg" xmlns:xlink="http://www.w3.org/1999/xlink" xml:space="preserve" onload="init(evt)">
<style type="text/css"><![CDATA[
.node, .edge {opacity: 0.7;}
.node.selected, .edge.selected {opacity: 1;}
.edge:hover path { stroke: red; }
.edge:hover polygon { stroke: red; fill: red; }
]]></style>
<script type="application/ecmascript" xlink:href="../../svg.min.js"/>
<svg id="graph" class="graph">
<g id="graph0" class="graph" transform="scale(1 1) rotate(0) translate(4 139.75)">
<title>print_sorted_entries</title>
<!-- Node1 -->
<g id="Node000001" class="node">
<title>Node1</title>
<g id="a_Node000001"><a xlink:title="Prints sorted entries in a detailed format.">
<polygon fill="#999999" stroke="#666666" points="113.5,-97.75 0,-97.75 0,-77 113.5,-77 113.5,-97.75"/>
<text text-anchor="middle" x="56.75" y="-84.25" font-family="Helvetica,sans-Serif" font-size="10.00">print_sorted_entries</text>
</a>
</g>
</g>
<!-- Node2 -->
<g id="Node000002" class="node">
<title>Node2</title>
<g id="a_Node000002"><a xlink:href="../../d6/d95/longlisting_8c.html#a33a98d6f57285ecc9ccbd6c2f2b4fd9d" target="_top" xlink:title="Formats a file size into a human&#45;readable string.">
<polygon fill="white" stroke="#666666" points="223.25,-117.75 149.5,-117.75 149.5,-97 223.25,-97 223.25,-117.75"/>
<text text-anchor="middle" x="186.38" y="-104.25" font-family="Helvetica,sans-Serif" font-size="10.00">format_size</text>
</a>
</g>
</g>
<!-- Node1&#45;&gt;Node2 -->
<g id="edge1_Node000001_Node000002" class="edge">
<title>Node1&#45;&gt;Node2</title>
<g id="a_edge1_Node000001_Node000002"><a xlink:title=" ">
<path fill="none" stroke="#63b8ff" d="M113.73,-96.15C121.83,-97.42 130.1,-98.71 138.01,-99.95"/>
<polygon fill="#63b8ff" stroke="#63b8ff" points="137.36,-103.39 147.78,-101.48 138.44,-96.48 137.36,-103.39"/>
</a>
</g>
</g>
<!-- Node3 -->
<g id="Node000003" class="node">
<title>Node3</title>
<g id="a_Node000003"><a xlink:href="../../d0/dc9/emoji__utils_8c.html#a853b78da7b6116949e96148e040669d5" target="_top" xlink:title="Determines the appropriate emoji for a given file based on its characteristics.">
<polygon fill="white" stroke="#666666" points="218.75,-78.75 154,-78.75 154,-58 218.75,-58 218.75,-78.75"/>
<text text-anchor="middle" x="186.38" y="-65.25" font-family="Helvetica,sans-Serif" font-size="10.00">get_emoji</text>
</a>
</g>
</g>
<!-- Node1&#45;&gt;Node3 -->
<g id="edge2_Node000001_Node000003" class="edge">
<title>Node1&#45;&gt;Node3</title>
<g id="a_edge2_Node000001_Node000003"><a xlink:title=" ">
<path fill="none" stroke="#63b8ff" d="M113.73,-79.04C123.33,-77.61 133.18,-76.15 142.38,-74.78"/>
<polygon fill="#63b8ff" stroke="#63b8ff" points="142.75,-78.26 152.12,-73.33 141.72,-71.34 142.75,-78.26"/>
</a>
</g>
</g>
<!-- Node4 -->
<g id="Node000004" class="node">
<title>Node4</title>
<g id="a_Node000004"><a xlink:href="../../d0/dc9/emoji__utils_8c.html#a5079b8c3657f088d68ae41fee9b299e3" target="_top" xlink:title="Checks the file content for specific patterns to determine the file type.">
<polygon fill="white" stroke="#666666" points="366,-135.75 259.25,-135.75 259.25,-115 366,-115 366,-135.75"/>
<text text-anchor="middle" x="312.62" y="-122.25" font-family="Helvetica,sans-Serif" font-size="10.00">check_file_content</text>
</a>
</g>
</g>
<!-- Node3&#45;&gt;Node4 -->
<g id="edge3_Node000003_Node000004" class="edge">
<title>Node3&#45;&gt;Node4</title>
<g id="a_edge3_Node000003_Node000004"><a xlink:title=" ">
<path fill="none" stroke="#63b8ff" d="M211,-79.23C225.03,-85.67 243.15,-93.99 259.25,-101.38 265.25,-104.13 271.63,-107.05 277.81,-109.88"/>
<polygon fill="#63b8ff" stroke="#63b8ff" points="275.97,-112.89 286.52,-113.88 278.89,-106.53 275.97,-112.89"/>
</a>
</g>
</g>
<!-- Node5 -->
<g id="Node000005" class="node">
<title>Node5</title>
<g id="a_Node000005"><a xlink:href="../../d0/dc9/emoji__utils_8c.html#a515d3420e13a8688464ad3b3c89c2ffb" target="_top" xlink:title="Safely duplicates a string, handling memory allocation errors.">
<polygon fill="white" stroke="#666666" points="475,-116.75 402,-116.75 402,-96 475,-96 475,-116.75"/>
<text text-anchor="middle" x="438.5" y="-103.25" font-family="Helvetica,sans-Serif" font-size="10.00">safe_strdup</text>
</a>
</g>
</g>
<!-- Node3&#45;&gt;Node5 -->
<g id="edge7_Node000003_Node000005" class="edge">
<title>Node3&#45;&gt;Node5</title>
<g id="a_edge7_Node000003_Node000005"><a xlink:title=" ">
<path fill="none" stroke="#63b8ff" d="M219.05,-73.19C262.35,-79.77 340.33,-91.61 390.46,-99.23"/>
<polygon fill="#63b8ff" stroke="#63b8ff" points="389.73,-102.66 400.14,-100.7 390.78,-95.74 389.73,-102.66"/>
</a>
</g>
</g>
<!-- Node6 -->
<g id="Node000006" class="node">
<title>Node6</title>
<g id="a_Node000006"><a xlink:href="../../d0/dc9/emoji__utils_8c.html#adcfc0049feddf60eec27fe2572291a2e" target="_top" xlink:title="Checks if a file is executable.">
<polygon fill="white" stroke="#666666" points="354,-59.75 271.25,-59.75 271.25,-39 354,-39 354,-59.75"/>
<text text-anchor="middle" x="312.62" y="-46.25" font-family="Helvetica,sans-Serif" font-size="10.00">is_executable</text>
</a>
</g>
</g>
<!-- Node3&#45;&gt;Node6 -->
<g id="edge5_Node000003_Node000006" class="edge">
<title>Node3&#45;&gt;Node6</title>
<g id="a_edge5_Node000003_Node000006"><a xlink:title=" ">
<path fill="none" stroke="#63b8ff" d="M219.05,-63.53C231.41,-61.64 245.9,-59.43 259.7,-57.31"/>
<polygon fill="#63b8ff" stroke="#63b8ff" points="260.22,-60.78 269.58,-55.8 259.16,-53.86 260.22,-60.78"/>
</a>
</g>
</g>
<!-- Node7 -->
<g id="Node000007" class="node">
<title>Node7</title>
<g id="a_Node000007"><a xlink:href="../../d0/dc9/emoji__utils_8c.html#a3bfec7595ef6d300266b38d3a17b039e" target="_top" xlink:title="Checks if a file is a text file by examining its contents.">
<polygon fill="white" stroke="#666666" points="347.25,-20.75 278,-20.75 278,0 347.25,0 347.25,-20.75"/>
<text text-anchor="middle" x="312.62" y="-7.25" font-family="Helvetica,sans-Serif" font-size="10.00">is_text_file</text>
</a>
</g>
</g>
<!-- Node3&#45;&gt;Node7 -->
<g id="edge6_Node000003_Node000007" class="edge">
<title>Node3&#45;&gt;Node7</title>
<g id="a_edge6_Node000003_Node000007"><a xlink:title=" ">
<path fill="none" stroke="#63b8ff" d="M206.28,-57.57C220.59,-49.59 240.87,-38.71 259.25,-30.38 263.02,-28.67 266.98,-26.98 270.96,-25.34"/>
<polygon fill="#63b8ff" stroke="#63b8ff" points="272.04,-28.68 280.05,-21.74 269.46,-22.17 272.04,-28.68"/>
</a>
</g>
</g>
<!-- Node4&#45;&gt;Node5 -->
<g id="edge4_Node000004_Node000005" class="edge">
<title>Node4&#45;&gt;Node5</title>
<g id="a_edge4_Node000004_Node000005"><a xlink:title=" ">
<path fill="none" stroke="#63b8ff" d="M366.16,-117.32C374.22,-116.08 382.5,-114.81 390.44,-113.59"/>
<polygon fill="#63b8ff" stroke="#63b8ff" points="390.9,-117.06 400.25,-112.09 389.84,-110.14 390.9,-117.06"/>
</a>
</g>
</g>
</g>
</svg>
</svg>

<style type='text/css'>
<![CDATA[
[data-mouse-over-selected='false'] { opacity: 0.7; }
[data-mouse-over-selected='true']  { opacity: 1.0; }
]]>
</style>
<script type="application/ecmascript"><![CDATA[
document.addEventListener('DOMContentLoaded', (event) => {
  highlightEdges();
  highlightAdjacentNodes();
});
]]></script>
</svg>
