<?xml version="1.0" encoding="UTF-8" standalone="no"?>
<!DOCTYPE svg PUBLIC "-//W3C//DTD SVG 1.1//EN"
 "http://www.w3.org/Graphics/SVG/1.1/DTD/svg11.dtd">
<!-- Generated by graphviz version 9.0.0 (20230911.1827)
 -->
<!-- Title: get_file_info Pages: 1 -->
<svg width="220pt" height="164pt"
 viewBox="0.00 0.00 220.00 163.75" xmlns="http://www.w3.org/2000/svg" xmlns:xlink="http://www.w3.org/1999/xlink">
<g id="graph0" class="graph" transform="scale(1 1) rotate(0) translate(4 159.75)">
<title>get_file_info</title>
<!-- Node1 -->
<g id="Node000001" class="node">
<title>Node1</title>
<g id="a_Node000001"><a xlink:title="Gets detailed information about a file.">
<polygon fill="#999999" stroke="#666666" points="76,-87.75 0,-87.75 0,-67 76,-67 76,-87.75"/>
<text text-anchor="middle" x="38" y="-74.25" font-family="Helvetica,sans-Serif" font-size="10.00">get_file_info</text>
</a>
</g>
</g>
<!-- Node2 -->
<g id="Node000002" class="node">
<title>Node2</title>
<g id="a_Node000002"><a xlink:href="../../d6/d95/longlisting_8c.html#a066e44c22599f18b5e86355f71992743" target="_top" xlink:title="Counts the number of subdirectories in a given directory.">
<polygon fill="white" stroke="#666666" points="203.75,-155.75 120.25,-155.75 120.25,-135 203.75,-135 203.75,-155.75"/>
<text text-anchor="middle" x="162" y="-142.25" font-family="Helvetica,sans-Serif" font-size="10.00">count_subdirs</text>
</a>
</g>
</g>
<!-- Node1&#45;&gt;Node2 -->
<g id="edge1_Node000001_Node000002" class="edge">
<title>Node1&#45;&gt;Node2</title>
<g id="a_edge1_Node000001_Node000002"><a xlink:title=" ">
<path fill="none" stroke="#63b8ff" d="M53.58,-88.18C67.96,-98.54 90.79,-114.21 112,-125.38 115.03,-126.97 118.22,-128.53 121.46,-130.02"/>
<polygon fill="#63b8ff" stroke="#63b8ff" points="119.86,-133.14 130.43,-133.94 122.67,-126.73 119.86,-133.14"/>
</a>
</g>
</g>
<!-- Node3 -->
<g id="Node000003" class="node">
<title>Node3</title>
<g id="a_Node000003"><a xlink:href="../../d6/d95/longlisting_8c.html#a99a2816fdc6aa63a386b8b8aef593274" target="_top" xlink:title="Formats the time difference between now and a given time into a human&#45;readable string.">
<polygon fill="white" stroke="#666666" points="212,-116.75 112,-116.75 112,-96 212,-96 212,-116.75"/>
<text text-anchor="middle" x="162" y="-103.25" font-family="Helvetica,sans-Serif" font-size="10.00">format_time_ago</text>
</a>
</g>
</g>
<!-- Node1&#45;&gt;Node3 -->
<g id="edge2_Node000001_Node000003" class="edge">
<title>Node1&#45;&gt;Node3</title>
<g id="a_edge2_Node000001_Node000003"><a xlink:title=" ">
<path fill="none" stroke="#63b8ff" d="M76.27,-86.23C85.13,-88.34 94.79,-90.64 104.3,-92.9"/>
<polygon fill="#63b8ff" stroke="#63b8ff" points="103.34,-96.27 113.88,-95.17 104.96,-89.46 103.34,-96.27"/>
</a>
</g>
</g>
<!-- Node4 -->
<g id="Node000004" class="node">
<title>Node4</title>
<g id="a_Node000004"><a xlink:href="../../d6/d95/longlisting_8c.html#ae8e2a8859c427dba11908d8e975d8bc7" target="_top" xlink:title="Calculates the total size of a directory and its contents.">
<polygon fill="white" stroke="#666666" points="199.25,-59.75 124.75,-59.75 124.75,-39 199.25,-39 199.25,-59.75"/>
<text text-anchor="middle" x="162" y="-46.25" font-family="Helvetica,sans-Serif" font-size="10.00">get_dir_size</text>
</a>
</g>
</g>
<!-- Node1&#45;&gt;Node4 -->
<g id="edge3_Node000001_Node000004" class="edge">
<title>Node1&#45;&gt;Node4</title>
<g id="a_edge3_Node000001_Node000004"><a xlink:title=" ">
<path fill="none" stroke="#63b8ff" d="M76.27,-68.82C87.96,-66.14 101.04,-63.14 113.35,-60.31"/>
<polygon fill="#63b8ff" stroke="#63b8ff" points="113.94,-63.77 122.91,-58.12 112.38,-56.94 113.94,-63.77"/>
</a>
</g>
</g>
<!-- Node5 -->
<g id="Node000005" class="node">
<title>Node5</title>
<g id="a_Node000005"><a xlink:href="../../d6/d95/longlisting_8c.html#a2d5dc342b560667bf07ec576e99ed3d9" target="_top" xlink:title="Converts file permissions to a string of emojis representing user rights.">
<polygon fill="white" stroke="#666666" points="207.5,-20.75 116.5,-20.75 116.5,0 207.5,0 207.5,-20.75"/>
<text text-anchor="middle" x="162" y="-7.25" font-family="Helvetica,sans-Serif" font-size="10.00">get_user_rights</text>
</a>
</g>
</g>
<!-- Node1&#45;&gt;Node5 -->
<g id="edge5_Node000001_Node000005" class="edge">
<title>Node1&#45;&gt;Node5</title>
<g id="a_edge5_Node000001_Node000005"><a xlink:title=" ">
<path fill="none" stroke="#63b8ff" d="M53.89,-66.63C68.31,-56.5 91.01,-41.3 112,-30.38 115.04,-28.79 118.23,-27.25 121.47,-25.76"/>
<polygon fill="#63b8ff" stroke="#63b8ff" points="122.68,-29.05 130.45,-21.85 119.88,-22.64 122.68,-29.05"/>
</a>
</g>
</g>
<!-- Node4&#45;&gt;Node4 -->
<g id="edge4_Node000004_Node000004" class="edge">
<title>Node4&#45;&gt;Node4</title>
<g id="a_edge4_Node000004_Node000004"><a xlink:title=" ">
<path fill="none" stroke="#63b8ff" d="M142.02,-60.15C134.03,-68.81 140.69,-77.75 162,-77.75 173.66,-77.75 180.93,-75.08 183.82,-71.24"/>
<polygon fill="#63b8ff" stroke="#63b8ff" points="187.32,-70.93 182.23,-61.64 180.41,-72.08 187.32,-70.93"/>
</a>
</g>
</g>
</g>
</svg>
