<?xml version="1.0" encoding="UTF-8" standalone="no"?>
<!DOCTYPE svg PUBLIC "-//W3C//DTD SVG 1.1//EN"
 "http://www.w3.org/Graphics/SVG/1.1/DTD/svg11.dtd">
<!-- Generated by graphviz version 9.0.0 (20230911.1827)
 -->
<!-- Title: /home/honeyguide/Desktop/MyOpenSource/facad/src/args_parser.c Pages: 1 -->
<svg width="370pt" height="168pt"
 viewBox="0.00 0.00 370.00 167.75" xmlns="http://www.w3.org/2000/svg" xmlns:xlink="http://www.w3.org/1999/xlink">
<g id="graph0" class="graph" transform="scale(1 1) rotate(0) translate(4 163.75)">
<title>/home/honeyguide/Desktop/MyOpenSource/facad/src/args_parser.c</title>
<!-- Node1 -->
<g id="Node000001" class="node">
<title>Node1</title>
<g id="a_Node000001"><a xlink:title="Implementation of command&#45;line argument parsing for facad.">
<polygon fill="#999999" stroke="#666666" points="239.5,-159.75 89.25,-159.75 89.25,-113.5 239.5,-113.5 239.5,-159.75"/>
<text text-anchor="start" x="97.25" y="-146.25" font-family="Helvetica,sans-Serif" font-size="10.00">/home/honeyguide/Desktop</text>
<text text-anchor="start" x="97.25" y="-133.5" font-family="Helvetica,sans-Serif" font-size="10.00">/MyOpenSource/facad/src</text>
<text text-anchor="middle" x="164.38" y="-120.75" font-family="Helvetica,sans-Serif" font-size="10.00">/args_parser.c</text>
</a>
</g>
</g>
<!-- Node2 -->
<g id="Node000002" class="node">
<title>Node2</title>
<g id="a_Node000002"><a xlink:title=" ">
<polygon fill="#e0e0e0" stroke="#999999" points="52.75,-77.5 0,-77.5 0,-56.75 52.75,-56.75 52.75,-77.5"/>
<text text-anchor="middle" x="26.38" y="-64" font-family="Helvetica,sans-Serif" font-size="10.00">string.h</text>
</a>
</g>
</g>
<!-- Node1&#45;&gt;Node2 -->
<g id="edge1_Node000001_Node000002" class="edge">
<title>Node1&#45;&gt;Node2</title>
<g id="a_edge1_Node000001_Node000002"><a xlink:title=" ">
<path fill="none" stroke="#63b8ff" d="M118.42,-113.15C98.07,-103.19 74.69,-91.76 56.59,-82.9"/>
<polygon fill="#63b8ff" stroke="#63b8ff" points="58.22,-79.81 47.7,-78.56 55.14,-86.09 58.22,-79.81"/>
</a>
</g>
</g>
<!-- Node3 -->
<g id="Node000003" class="node">
<title>Node3</title>
<g id="a_Node000003"><a xlink:title=" ">
<polygon fill="#e0e0e0" stroke="#999999" points="119.88,-77.5 70.88,-77.5 70.88,-56.75 119.88,-56.75 119.88,-77.5"/>
<text text-anchor="middle" x="95.38" y="-64" font-family="Helvetica,sans-Serif" font-size="10.00">stdio.h</text>
</a>
</g>
</g>
<!-- Node1&#45;&gt;Node3 -->
<g id="edge2_Node000001_Node000003" class="edge">
<title>Node1&#45;&gt;Node3</title>
<g id="a_edge2_Node000001_Node000003"><a xlink:title=" ">
<path fill="none" stroke="#63b8ff" d="M141.4,-113.15C132.32,-104.27 122.04,-94.21 113.5,-85.86"/>
<polygon fill="#63b8ff" stroke="#63b8ff" points="116.04,-83.44 106.44,-78.95 111.14,-88.44 116.04,-83.44"/>
</a>
</g>
</g>
<!-- Node4 -->
<g id="Node000004" class="node">
<title>Node4</title>
<g id="a_Node000004"><a xlink:title=" ">
<polygon fill="#e0e0e0" stroke="#999999" points="190.38,-77.5 138.38,-77.5 138.38,-56.75 190.38,-56.75 190.38,-77.5"/>
<text text-anchor="middle" x="164.38" y="-64" font-family="Helvetica,sans-Serif" font-size="10.00">stdlib.h</text>
</a>
</g>
</g>
<!-- Node1&#45;&gt;Node4 -->
<g id="edge3_Node000001_Node000004" class="edge">
<title>Node1&#45;&gt;Node4</title>
<g id="a_edge3_Node000001_Node000004"><a xlink:title=" ">
<path fill="none" stroke="#63b8ff" d="M164.38,-113.15C164.38,-105.48 164.38,-96.94 164.38,-89.38"/>
<polygon fill="#63b8ff" stroke="#63b8ff" points="167.88,-89.4 164.38,-79.4 160.88,-89.4 167.88,-89.4"/>
</a>
</g>
</g>
<!-- Node5 -->
<g id="Node000005" class="node">
<title>Node5</title>
<g id="a_Node000005"><a xlink:title=" ">
<polygon fill="#e0e0e0" stroke="#999999" points="262.5,-77.5 208.25,-77.5 208.25,-56.75 262.5,-56.75 262.5,-77.5"/>
<text text-anchor="middle" x="235.38" y="-64" font-family="Helvetica,sans-Serif" font-size="10.00">config.h</text>
</a>
</g>
</g>
<!-- Node1&#45;&gt;Node5 -->
<g id="edge4_Node000001_Node000005" class="edge">
<title>Node1&#45;&gt;Node5</title>
<g id="a_edge4_Node000001_Node000005"><a xlink:title=" ">
<path fill="none" stroke="#63b8ff" d="M188.02,-113.15C197.46,-104.17 208.16,-94 217,-85.59"/>
<polygon fill="#63b8ff" stroke="#63b8ff" points="219.17,-88.36 224.01,-78.93 214.35,-83.29 219.17,-88.36"/>
</a>
</g>
</g>
<!-- Node6 -->
<g id="Node000006" class="node">
<title>Node6</title>
<g id="a_Node000006"><a xlink:href="../../da/d7e/args__parser_8h.html" target="_top" xlink:title="Header file for command&#45;line argument parsing in facad.">
<polygon fill="white" stroke="#666666" points="362,-77.5 280.75,-77.5 280.75,-56.75 362,-56.75 362,-77.5"/>
<text text-anchor="middle" x="321.38" y="-64" font-family="Helvetica,sans-Serif" font-size="10.00">args_parser.h</text>
</a>
</g>
</g>
<!-- Node1&#45;&gt;Node6 -->
<g id="edge5_Node000001_Node000006" class="edge">
<title>Node1&#45;&gt;Node6</title>
<g id="a_edge5_Node000001_Node000006"><a xlink:title=" ">
<path fill="none" stroke="#63b8ff" d="M216.65,-113.15C240.24,-103.01 267.41,-91.33 288.15,-82.41"/>
<polygon fill="#63b8ff" stroke="#63b8ff" points="289.47,-85.65 297.27,-78.49 286.7,-79.22 289.47,-85.65"/>
</a>
</g>
</g>
<!-- Node7 -->
<g id="Node000007" class="node">
<title>Node7</title>
<g id="a_Node000007"><a xlink:title=" ">
<polygon fill="#e0e0e0" stroke="#999999" points="351.88,-20.75 290.88,-20.75 290.88,0 351.88,0 351.88,-20.75"/>
<text text-anchor="middle" x="321.38" y="-7.25" font-family="Helvetica,sans-Serif" font-size="10.00">stdbool.h</text>
</a>
</g>
</g>
<!-- Node6&#45;&gt;Node7 -->
<g id="edge6_Node000006_Node000007" class="edge">
<title>Node6&#45;&gt;Node7</title>
<g id="a_edge6_Node000006_Node000007"><a xlink:title=" ">
<path fill="none" stroke="#63b8ff" d="M321.38,-56.34C321.38,-49.72 321.38,-40.72 321.38,-32.52"/>
<polygon fill="#63b8ff" stroke="#63b8ff" points="324.88,-32.59 321.38,-22.59 317.88,-32.59 324.88,-32.59"/>
</a>
</g>
</g>
</g>
</svg>
