<?xml version="1.0" encoding="UTF-8" standalone="no"?>
<!DOCTYPE svg PUBLIC "-//W3C//DTD SVG 1.1//EN"
 "http://www.w3.org/Graphics/SVG/1.1/DTD/svg11.dtd">
<!-- Generated by graphviz version 9.0.0 (20230911.1827)
 -->
<!-- Title: get_emoji Pages: 1 -->
<svg width="325pt" height="144pt"
 viewBox="0.00 0.00 324.50 143.75" xmlns="http://www.w3.org/2000/svg" xmlns:xlink="http://www.w3.org/1999/xlink">
<g id="graph0" class="graph" transform="scale(1 1) rotate(0) translate(4 139.75)">
<title>get_emoji</title>
<!-- Node1 -->
<g id="Node000001" class="node">
<title>Node1</title>
<g id="a_Node000001"><a xlink:title="Determines the appropriate emoji for a given file path.">
<polygon fill="#999999" stroke="#666666" points="64.75,-78.75 0,-78.75 0,-58 64.75,-58 64.75,-78.75"/>
<text text-anchor="middle" x="32.38" y="-65.25" font-family="Helvetica,sans-Serif" font-size="10.00">get_emoji</text>
</a>
</g>
</g>
<!-- Node2 -->
<g id="Node000002" class="node">
<title>Node2</title>
<g id="a_Node000002"><a xlink:href="../../d0/dc9/emoji__utils_8c.html#a5079b8c3657f088d68ae41fee9b299e3" target="_top" xlink:title="Checks the file content for specific patterns to determine the file type.">
<polygon fill="white" stroke="#666666" points="207.5,-135.75 100.75,-135.75 100.75,-115 207.5,-115 207.5,-135.75"/>
<text text-anchor="middle" x="154.12" y="-122.25" font-family="Helvetica,sans-Serif" font-size="10.00">check_file_content</text>
</a>
</g>
</g>
<!-- Node1&#45;&gt;Node2 -->
<g id="edge1_Node000001_Node000002" class="edge">
<title>Node1&#45;&gt;Node2</title>
<g id="a_edge1_Node000001_Node000002"><a xlink:title=" ">
<path fill="none" stroke="#63b8ff" d="M55.15,-79.22C68.31,-85.73 85.45,-94.12 100.75,-101.38 106.51,-104.11 112.65,-106.96 118.62,-109.72"/>
<polygon fill="#63b8ff" stroke="#63b8ff" points="117.15,-112.89 127.7,-113.88 120.07,-106.53 117.15,-112.89"/>
</a>
</g>
</g>
<!-- Node3 -->
<g id="Node000003" class="node">
<title>Node3</title>
<g id="a_Node000003"><a xlink:href="../../d0/dc9/emoji__utils_8c.html#a515d3420e13a8688464ad3b3c89c2ffb" target="_top" xlink:title="Safely duplicates a string, handling memory allocation errors.">
<polygon fill="white" stroke="#666666" points="316.5,-116.75 243.5,-116.75 243.5,-96 316.5,-96 316.5,-116.75"/>
<text text-anchor="middle" x="280" y="-103.25" font-family="Helvetica,sans-Serif" font-size="10.00">safe_strdup</text>
</a>
</g>
</g>
<!-- Node1&#45;&gt;Node3 -->
<g id="edge5_Node000001_Node000003" class="edge">
<title>Node1&#45;&gt;Node3</title>
<g id="a_edge5_Node000001_Node000003"><a xlink:title=" ">
<path fill="none" stroke="#63b8ff" d="M64.98,-73.27C107.33,-79.82 182.81,-91.49 231.87,-99.08"/>
<polygon fill="#63b8ff" stroke="#63b8ff" points="231.22,-102.52 241.64,-100.59 232.29,-95.61 231.22,-102.52"/>
</a>
</g>
</g>
<!-- Node4 -->
<g id="Node000004" class="node">
<title>Node4</title>
<g id="a_Node000004"><a xlink:href="../../d0/dc9/emoji__utils_8c.html#adcfc0049feddf60eec27fe2572291a2e" target="_top" xlink:title="Checks if a file is executable.">
<polygon fill="white" stroke="#666666" points="195.5,-59.75 112.75,-59.75 112.75,-39 195.5,-39 195.5,-59.75"/>
<text text-anchor="middle" x="154.12" y="-46.25" font-family="Helvetica,sans-Serif" font-size="10.00">is_executable</text>
</a>
</g>
</g>
<!-- Node1&#45;&gt;Node4 -->
<g id="edge3_Node000001_Node000004" class="edge">
<title>Node1&#45;&gt;Node4</title>
<g id="a_edge3_Node000001_Node000004"><a xlink:title=" ">
<path fill="none" stroke="#63b8ff" d="M65.15,-63.33C76.29,-61.57 89.11,-59.53 101.46,-57.57"/>
<polygon fill="#63b8ff" stroke="#63b8ff" points="101.77,-61.07 111.1,-56.04 100.68,-54.15 101.77,-61.07"/>
</a>
</g>
</g>
<!-- Node5 -->
<g id="Node000005" class="node">
<title>Node5</title>
<g id="a_Node000005"><a xlink:href="../../d0/dc9/emoji__utils_8c.html#a3bfec7595ef6d300266b38d3a17b039e" target="_top" xlink:title="Checks if a file is a text file by examining its contents.">
<polygon fill="white" stroke="#666666" points="188.75,-20.75 119.5,-20.75 119.5,0 188.75,0 188.75,-20.75"/>
<text text-anchor="middle" x="154.12" y="-7.25" font-family="Helvetica,sans-Serif" font-size="10.00">is_text_file</text>
</a>
</g>
</g>
<!-- Node1&#45;&gt;Node5 -->
<g id="edge4_Node000001_Node000005" class="edge">
<title>Node1&#45;&gt;Node5</title>
<g id="a_edge4_Node000001_Node000005"><a xlink:title=" ">
<path fill="none" stroke="#63b8ff" d="M50.73,-57.64C64.12,-49.59 83.25,-38.6 100.75,-30.38 104.45,-28.64 108.34,-26.93 112.26,-25.3"/>
<polygon fill="#63b8ff" stroke="#63b8ff" points="113.23,-28.68 121.21,-21.71 110.63,-22.18 113.23,-28.68"/>
</a>
</g>
</g>
<!-- Node2&#45;&gt;Node3 -->
<g id="edge2_Node000002_Node000003" class="edge">
<title>Node2&#45;&gt;Node3</title>
<g id="a_edge2_Node000002_Node000003"><a xlink:title=" ">
<path fill="none" stroke="#63b8ff" d="M207.66,-117.32C215.72,-116.08 224,-114.81 231.94,-113.59"/>
<polygon fill="#63b8ff" stroke="#63b8ff" points="232.4,-117.06 241.75,-112.09 231.34,-110.14 232.4,-117.06"/>
</a>
</g>
</g>
</g>
</svg>
