<?xml version="1.0" encoding="UTF-8" standalone="no"?>
<!DOCTYPE svg PUBLIC "-//W3C//DTD SVG 1.1//EN"
 "http://www.w3.org/Graphics/SVG/1.1/DTD/svg11.dtd">
<!-- Generated by graphviz version 9.0.0 (20230911.1827)
 -->
<!-- Title: GitFileList Pages: 1 -->
<svg width="94pt" height="177pt"
 viewBox="0.00 0.00 94.00 176.75" xmlns="http://www.w3.org/2000/svg" xmlns:xlink="http://www.w3.org/1999/xlink">
<g id="graph0" class="graph" transform="scale(1 1) rotate(0) translate(4 172.75)">
<title>GitFileList</title>
<!-- Node1 -->
<g id="Node000001" class="node">
<title>Node1</title>
<g id="a_Node000001"><a xlink:title="Structure to hold Git status information for multiple files.">
<polygon fill="#999999" stroke="none" points="74,-52 12,-52 12,0 74,0 74,-52"/>
<text text-anchor="start" x="18.62" y="-38.5" font-family="Helvetica,sans-Serif" font-size="10.00">GitFileList</text>
<text text-anchor="start" x="15.88" y="-22.5" font-family="Helvetica,sans-Serif" font-size="10.00">+</text>
<text text-anchor="start" x="28" y="-22.5" font-family="Helvetica,sans-Serif" font-size="10.00">int count</text>
<text text-anchor="start" x="41.5" y="-6.5" font-family="Helvetica,sans-Serif" font-size="10.00"> </text>
<polygon fill="#666666" stroke="#666666" points="12,-34 12,-34 74,-34 74,-34 12,-34"/>
<polygon fill="#666666" stroke="#666666" points="12,-18 12,-18 26,-18 26,-18 12,-18"/>
<polygon fill="#666666" stroke="#666666" points="26,-18 26,-18 74,-18 74,-18 26,-18"/>
<polygon fill="none" stroke="#666666" points="12,0 12,-52 74,-52 74,0 12,0"/>
</a>
</g>
</g>
<!-- Node2 -->
<g id="Node000002" class="node">
<title>Node2</title>
<g id="a_Node000002"><a xlink:href="../../d1/d46/structGitFile.html" target="_top" xlink:title="Structure to hold information about a single file&#39;s Git status.">
<polygon fill="white" stroke="none" points="86,-168.75 0,-168.75 0,-100.75 86,-100.75 86,-168.75"/>
<text text-anchor="start" x="27.25" y="-155.25" font-family="Helvetica,sans-Serif" font-size="10.00">GitFile</text>
<text text-anchor="start" x="3.88" y="-139.25" font-family="Helvetica,sans-Serif" font-size="10.00">+</text>
<text text-anchor="start" x="16" y="-139.25" font-family="Helvetica,sans-Serif" font-size="10.00">char filename</text>
<text text-anchor="start" x="3.88" y="-123.25" font-family="Helvetica,sans-Serif" font-size="10.00">+</text>
<text text-anchor="start" x="16" y="-123.25" font-family="Helvetica,sans-Serif" font-size="10.00">char status</text>
<text text-anchor="start" x="41.5" y="-107.25" font-family="Helvetica,sans-Serif" font-size="10.00"> </text>
<polygon fill="#666666" stroke="#666666" points="0,-150.75 0,-150.75 86,-150.75 86,-150.75 0,-150.75"/>
<polygon fill="#666666" stroke="#666666" points="0,-118.75 0,-118.75 14,-118.75 14,-118.75 0,-118.75"/>
<polygon fill="#666666" stroke="#666666" points="14,-118.75 14,-118.75 86,-118.75 86,-118.75 14,-118.75"/>
<polygon fill="none" stroke="#666666" points="0,-100.75 0,-168.75 86,-168.75 86,-100.75 0,-100.75"/>
</a>
</g>
</g>
<!-- Node2&#45;&gt;Node1 -->
<g id="edge1_Node000001_Node000002" class="edge">
<title>Node2&#45;&gt;Node1</title>
<g id="a_edge1_Node000001_Node000002"><a xlink:title=" ">
<path fill="none" stroke="#63b8ff" d="M43,-100.85C43,-89.37 43,-76.39 43,-64.56"/>
<polygon fill="none" stroke="#63b8ff" points="43,-64.72 39,-58.72 43,-52.72 47,-58.72 43,-64.72"/>
</a>
</g>
<text text-anchor="middle" x="58.75" y="-73.25" font-family="Helvetica,sans-Serif" font-size="10.00" fill="grey"> +files</text>
</g>
</g>
</svg>
