<?xml version="1.0" encoding="UTF-8" standalone="no"?>
<!DOCTYPE svg PUBLIC "-//W3C//DTD SVG 1.1//EN"
 "http://www.w3.org/Graphics/SVG/1.1/DTD/svg11.dtd">
<!-- Generated by graphviz version 9.0.0 (20230911.1827)
 -->
<!-- Title: /home/honeyguide/Desktop/MyOpenSource/facad/src/file_card.c Pages: 1 -->
<svg width="464pt" height="111pt"
 viewBox="0.00 0.00 464.12 111.00" xmlns="http://www.w3.org/2000/svg" xmlns:xlink="http://www.w3.org/1999/xlink">
<g id="graph0" class="graph" transform="scale(1 1) rotate(0) translate(4 107)">
<title>/home/honeyguide/Desktop/MyOpenSource/facad/src/file_card.c</title>
<!-- Node1 -->
<g id="Node000001" class="node">
<title>Node1</title>
<g id="a_Node000001"><a xlink:title="Implementation of file card handling functions.">
<polygon fill="#999999" stroke="#666666" points="285.12,-103 134.88,-103 134.88,-56.75 285.12,-56.75 285.12,-103"/>
<text text-anchor="start" x="142.88" y="-89.5" font-family="Helvetica,sans-Serif" font-size="10.00">/home/honeyguide/Desktop</text>
<text text-anchor="start" x="142.88" y="-76.75" font-family="Helvetica,sans-Serif" font-size="10.00">/MyOpenSource/facad/src</text>
<text text-anchor="middle" x="210" y="-64" font-family="Helvetica,sans-Serif" font-size="10.00">/file_card.c</text>
</a>
</g>
</g>
<!-- Node2 -->
<g id="Node000002" class="node">
<title>Node2</title>
<g id="a_Node000002"><a xlink:title=" ">
<polygon fill="#e0e0e0" stroke="#999999" points="52,-20.75 0,-20.75 0,0 52,0 52,-20.75"/>
<text text-anchor="middle" x="26" y="-7.25" font-family="Helvetica,sans-Serif" font-size="10.00">stdlib.h</text>
</a>
</g>
</g>
<!-- Node1&#45;&gt;Node2 -->
<g id="edge1_Node000001_Node000002" class="edge">
<title>Node1&#45;&gt;Node2</title>
<g id="a_edge1_Node000001_Node000002"><a xlink:title=" ">
<path fill="none" stroke="#63b8ff" d="M148.47,-56.3C120.03,-45.87 87.2,-33.82 62.69,-24.84"/>
<polygon fill="#63b8ff" stroke="#63b8ff" points="64.08,-21.62 53.49,-21.46 61.67,-28.19 64.08,-21.62"/>
</a>
</g>
</g>
<!-- Node3 -->
<g id="Node000003" class="node">
<title>Node3</title>
<g id="a_Node000003"><a xlink:title=" ">
<polygon fill="#e0e0e0" stroke="#999999" points="122.38,-20.75 69.62,-20.75 69.62,0 122.38,0 122.38,-20.75"/>
<text text-anchor="middle" x="96" y="-7.25" font-family="Helvetica,sans-Serif" font-size="10.00">string.h</text>
</a>
</g>
</g>
<!-- Node1&#45;&gt;Node3 -->
<g id="edge2_Node000001_Node000003" class="edge">
<title>Node1&#45;&gt;Node3</title>
<g id="a_edge2_Node000001_Node000003"><a xlink:title=" ">
<path fill="none" stroke="#63b8ff" d="M172.04,-56.4C155.62,-46.68 136.82,-35.54 122.02,-26.78"/>
<polygon fill="#63b8ff" stroke="#63b8ff" points="124.18,-23.99 113.8,-21.91 120.62,-30.02 124.18,-23.99"/>
</a>
</g>
</g>
<!-- Node4 -->
<g id="Node000004" class="node">
<title>Node4</title>
<g id="a_Node000004"><a xlink:title=" ">
<polygon fill="#e0e0e0" stroke="#999999" points="203.62,-20.75 140.38,-20.75 140.38,0 203.62,0 203.62,-20.75"/>
<text text-anchor="middle" x="172" y="-7.25" font-family="Helvetica,sans-Serif" font-size="10.00">sys/stat.h</text>
</a>
</g>
</g>
<!-- Node1&#45;&gt;Node4 -->
<g id="edge3_Node000001_Node000004" class="edge">
<title>Node1&#45;&gt;Node4</title>
<g id="a_edge3_Node000001_Node000004"><a xlink:title=" ">
<path fill="none" stroke="#63b8ff" d="M197.35,-56.4C192.72,-48.17 187.52,-38.94 183.04,-30.98"/>
<polygon fill="#63b8ff" stroke="#63b8ff" points="186.2,-29.46 178.24,-22.46 180.1,-32.89 186.2,-29.46"/>
</a>
</g>
</g>
<!-- Node5 -->
<g id="Node000005" class="node">
<title>Node5</title>
<g id="a_Node000005"><a xlink:title=" ">
<polygon fill="#e0e0e0" stroke="#999999" points="274,-20.75 222,-20.75 222,0 274,0 274,-20.75"/>
<text text-anchor="middle" x="248" y="-7.25" font-family="Helvetica,sans-Serif" font-size="10.00">ctype.h</text>
</a>
</g>
</g>
<!-- Node1&#45;&gt;Node5 -->
<g id="edge4_Node000001_Node000005" class="edge">
<title>Node1&#45;&gt;Node5</title>
<g id="a_edge4_Node000001_Node000005"><a xlink:title=" ">
<path fill="none" stroke="#63b8ff" d="M222.65,-56.4C227.28,-48.17 232.48,-38.94 236.96,-30.98"/>
<polygon fill="#63b8ff" stroke="#63b8ff" points="239.9,-32.89 241.76,-22.46 233.8,-29.46 239.9,-32.89"/>
</a>
</g>
</g>
<!-- Node6 -->
<g id="Node000006" class="node">
<title>Node6</title>
<g id="a_Node000006"><a xlink:href="../../d7/d97/emoji__utils_8h.html" target="_top" xlink:title="Utility functions for assigning emojis to files and directories.">
<polygon fill="white" stroke="#666666" points="371.5,-20.75 292.5,-20.75 292.5,0 371.5,0 371.5,-20.75"/>
<text text-anchor="middle" x="332" y="-7.25" font-family="Helvetica,sans-Serif" font-size="10.00">emoji_utils.h</text>
</a>
</g>
</g>
<!-- Node1&#45;&gt;Node6 -->
<g id="edge5_Node000001_Node000006" class="edge">
<title>Node1&#45;&gt;Node6</title>
<g id="a_edge5_Node000001_Node000006"><a xlink:title=" ">
<path fill="none" stroke="#63b8ff" d="M250.62,-56.4C268.36,-46.58 288.7,-35.33 304.61,-26.53"/>
<polygon fill="#63b8ff" stroke="#63b8ff" points="305.97,-29.78 313.03,-21.87 302.58,-23.65 305.97,-29.78"/>
</a>
</g>
</g>
<!-- Node7 -->
<g id="Node000007" class="node">
<title>Node7</title>
<g id="a_Node000007"><a xlink:href="../../d5/d36/file__card_8h.html" target="_top" xlink:title="Header file for file entry handling functions and structures.">
<polygon fill="white" stroke="#666666" points="456.12,-20.75 389.88,-20.75 389.88,0 456.12,0 456.12,-20.75"/>
<text text-anchor="middle" x="423" y="-7.25" font-family="Helvetica,sans-Serif" font-size="10.00">file_card.h</text>
</a>
</g>
</g>
<!-- Node1&#45;&gt;Node7 -->
<g id="edge6_Node000001_Node000007" class="edge">
<title>Node1&#45;&gt;Node7</title>
<g id="a_edge6_Node000001_Node000007"><a xlink:title=" ">
<path fill="none" stroke="#63b8ff" d="M281.22,-56.3C314.43,-45.78 352.79,-33.63 381.23,-24.61"/>
<polygon fill="#63b8ff" stroke="#63b8ff" points="382.08,-28.02 390.55,-21.66 379.96,-21.34 382.08,-28.02"/>
</a>
</g>
</g>
</g>
</svg>
