<?xml version="1.0" encoding="UTF-8" standalone="no"?>
<!DOCTYPE svg PUBLIC "-//W3C//DTD SVG 1.1//EN"
 "http://www.w3.org/Graphics/SVG/1.1/DTD/svg11.dtd">
<!-- Generated by graphviz version 9.0.0 (20230911.1827)
 -->
<!-- Title: /home/honeyguide/Desktop/MyOpenSource/facad/src/emoji_utils.c Pages: 1 -->
<svg width="571pt" height="168pt"
 viewBox="0.00 0.00 571.00 167.75" xmlns="http://www.w3.org/2000/svg" xmlns:xlink="http://www.w3.org/1999/xlink">
<g id="graph0" class="graph" transform="scale(1 1) rotate(0) translate(4 163.75)">
<title>/home/honeyguide/Desktop/MyOpenSource/facad/src/emoji_utils.c</title>
<!-- Node1 -->
<g id="Node000001" class="node">
<title>Node1</title>
<g id="a_Node000001"><a xlink:title="Implementation of emoji utility functions for file representation.">
<polygon fill="#999999" stroke="#666666" points="309.12,-159.75 158.88,-159.75 158.88,-113.5 309.12,-113.5 309.12,-159.75"/>
<text text-anchor="start" x="166.88" y="-146.25" font-family="Helvetica,sans-Serif" font-size="10.00">/home/honeyguide/Desktop</text>
<text text-anchor="start" x="166.88" y="-133.5" font-family="Helvetica,sans-Serif" font-size="10.00">/MyOpenSource/facad/src</text>
<text text-anchor="middle" x="234" y="-120.75" font-family="Helvetica,sans-Serif" font-size="10.00">/emoji_utils.c</text>
</a>
</g>
</g>
<!-- Node2 -->
<g id="Node000002" class="node">
<title>Node2</title>
<g id="a_Node000002"><a xlink:title=" ">
<polygon fill="#e0e0e0" stroke="#999999" points="52,-77.5 0,-77.5 0,-56.75 52,-56.75 52,-77.5"/>
<text text-anchor="middle" x="26" y="-64" font-family="Helvetica,sans-Serif" font-size="10.00">ctype.h</text>
</a>
</g>
</g>
<!-- Node1&#45;&gt;Node2 -->
<g id="edge1_Node000001_Node000002" class="edge">
<title>Node1&#45;&gt;Node2</title>
<g id="a_edge1_Node000001_Node000002"><a xlink:title=" ">
<path fill="none" stroke="#63b8ff" d="M164.45,-113.05C130.61,-102.07 91.29,-89.31 63.22,-80.2"/>
<polygon fill="#63b8ff" stroke="#63b8ff" points="64.33,-76.88 53.74,-77.13 62.17,-83.54 64.33,-76.88"/>
</a>
</g>
</g>
<!-- Node3 -->
<g id="Node000003" class="node">
<title>Node3</title>
<g id="a_Node000003"><a xlink:title=" ">
<polygon fill="#e0e0e0" stroke="#999999" points="119.5,-77.5 70.5,-77.5 70.5,-56.75 119.5,-56.75 119.5,-77.5"/>
<text text-anchor="middle" x="95" y="-64" font-family="Helvetica,sans-Serif" font-size="10.00">stdio.h</text>
</a>
</g>
</g>
<!-- Node1&#45;&gt;Node3 -->
<g id="edge2_Node000001_Node000003" class="edge">
<title>Node1&#45;&gt;Node3</title>
<g id="a_edge2_Node000001_Node000003"><a xlink:title=" ">
<path fill="none" stroke="#63b8ff" d="M187.72,-113.15C167.21,-103.19 143.67,-91.76 125.43,-82.9"/>
<polygon fill="#63b8ff" stroke="#63b8ff" points="127,-79.77 116.47,-78.55 123.94,-86.07 127,-79.77"/>
</a>
</g>
</g>
<!-- Node4 -->
<g id="Node000004" class="node">
<title>Node4</title>
<g id="a_Node000004"><a xlink:title=" ">
<polygon fill="#e0e0e0" stroke="#999999" points="190,-77.5 138,-77.5 138,-56.75 190,-56.75 190,-77.5"/>
<text text-anchor="middle" x="164" y="-64" font-family="Helvetica,sans-Serif" font-size="10.00">stdlib.h</text>
</a>
</g>
</g>
<!-- Node1&#45;&gt;Node4 -->
<g id="edge3_Node000001_Node000004" class="edge">
<title>Node1&#45;&gt;Node4</title>
<g id="a_edge3_Node000001_Node000004"><a xlink:title=" ">
<path fill="none" stroke="#63b8ff" d="M210.69,-113.15C201.48,-104.27 191.05,-94.21 182.39,-85.86"/>
<polygon fill="#63b8ff" stroke="#63b8ff" points="184.84,-83.36 175.22,-78.94 179.99,-88.4 184.84,-83.36"/>
</a>
</g>
</g>
<!-- Node5 -->
<g id="Node000005" class="node">
<title>Node5</title>
<g id="a_Node000005"><a xlink:title=" ">
<polygon fill="#e0e0e0" stroke="#999999" points="260.38,-77.5 207.62,-77.5 207.62,-56.75 260.38,-56.75 260.38,-77.5"/>
<text text-anchor="middle" x="234" y="-64" font-family="Helvetica,sans-Serif" font-size="10.00">string.h</text>
</a>
</g>
</g>
<!-- Node1&#45;&gt;Node5 -->
<g id="edge4_Node000001_Node000005" class="edge">
<title>Node1&#45;&gt;Node5</title>
<g id="a_edge4_Node000001_Node000005"><a xlink:title=" ">
<path fill="none" stroke="#63b8ff" d="M234,-113.15C234,-105.48 234,-96.94 234,-89.38"/>
<polygon fill="#63b8ff" stroke="#63b8ff" points="237.5,-89.4 234,-79.4 230.5,-89.4 237.5,-89.4"/>
</a>
</g>
</g>
<!-- Node6 -->
<g id="Node000006" class="node">
<title>Node6</title>
<g id="a_Node000006"><a xlink:title=" ">
<polygon fill="#e0e0e0" stroke="#999999" points="341.62,-77.5 278.38,-77.5 278.38,-56.75 341.62,-56.75 341.62,-77.5"/>
<text text-anchor="middle" x="310" y="-64" font-family="Helvetica,sans-Serif" font-size="10.00">sys/stat.h</text>
</a>
</g>
</g>
<!-- Node1&#45;&gt;Node6 -->
<g id="edge5_Node000001_Node000006" class="edge">
<title>Node1&#45;&gt;Node6</title>
<g id="a_edge5_Node000001_Node000006"><a xlink:title=" ">
<path fill="none" stroke="#63b8ff" d="M259.31,-113.15C269.52,-104.08 281.11,-93.79 290.63,-85.33"/>
<polygon fill="#63b8ff" stroke="#63b8ff" points="292.72,-88.15 297.87,-78.9 288.07,-82.92 292.72,-88.15"/>
</a>
</g>
</g>
<!-- Node7 -->
<g id="Node000007" class="node">
<title>Node7</title>
<g id="a_Node000007"><a xlink:href="../../d7/d97/emoji__utils_8h.html" target="_top" xlink:title="Utility functions for assigning emojis to files and directories.">
<polygon fill="white" stroke="#666666" points="438.5,-77.5 359.5,-77.5 359.5,-56.75 438.5,-56.75 438.5,-77.5"/>
<text text-anchor="middle" x="399" y="-64" font-family="Helvetica,sans-Serif" font-size="10.00">emoji_utils.h</text>
</a>
</g>
</g>
<!-- Node1&#45;&gt;Node7 -->
<g id="edge6_Node000001_Node000007" class="edge">
<title>Node1&#45;&gt;Node7</title>
<g id="a_edge6_Node000001_Node000007"><a xlink:title=" ">
<path fill="none" stroke="#63b8ff" d="M288.94,-113.15C313.96,-102.91 342.81,-91.11 364.69,-82.16"/>
<polygon fill="#63b8ff" stroke="#63b8ff" points="365.8,-85.49 373.73,-78.46 363.15,-79.01 365.8,-85.49"/>
</a>
</g>
</g>
<!-- Node8 -->
<g id="Node000008" class="node">
<title>Node8</title>
<g id="a_Node000008"><a xlink:href="../../de/d86/emoji__mappings_8h.html" target="_top" xlink:title=" ">
<polygon fill="white" stroke="#666666" points="563,-77.5 457,-77.5 457,-56.75 563,-56.75 563,-77.5"/>
<text text-anchor="middle" x="510" y="-64" font-family="Helvetica,sans-Serif" font-size="10.00">emoji_mappings.h</text>
</a>
</g>
</g>
<!-- Node1&#45;&gt;Node8 -->
<g id="edge7_Node000001_Node000008" class="edge">
<title>Node1&#45;&gt;Node8</title>
<g id="a_edge7_Node000001_Node000008"><a xlink:title=" ">
<path fill="none" stroke="#63b8ff" d="M309.42,-117.18C356.79,-105.6 416.64,-90.96 458.58,-80.7"/>
<polygon fill="#63b8ff" stroke="#63b8ff" points="459.29,-84.13 468.18,-78.35 457.63,-77.33 459.29,-84.13"/>
</a>
</g>
</g>
<!-- Node9 -->
<g id="Node000009" class="node">
<title>Node9</title>
<g id="a_Node000009"><a xlink:title=" ">
<polygon fill="#e0e0e0" stroke="#999999" points="537.5,-20.75 482.5,-20.75 482.5,0 537.5,0 537.5,-20.75"/>
<text text-anchor="middle" x="510" y="-7.25" font-family="Helvetica,sans-Serif" font-size="10.00">stddef.h</text>
</a>
</g>
</g>
<!-- Node8&#45;&gt;Node9 -->
<g id="edge8_Node000008_Node000009" class="edge">
<title>Node8&#45;&gt;Node9</title>
<g id="a_edge8_Node000008_Node000009"><a xlink:title=" ">
<path fill="none" stroke="#63b8ff" d="M510,-56.34C510,-49.72 510,-40.72 510,-32.52"/>
<polygon fill="#63b8ff" stroke="#63b8ff" points="513.5,-32.59 510,-22.59 506.5,-32.59 513.5,-32.59"/>
</a>
</g>
</g>
</g>
</svg>
