<?xml version="1.0" encoding="UTF-8" standalone="no"?>
<!DOCTYPE svg PUBLIC "-//W3C//DTD SVG 1.1//EN"
 "http://www.w3.org/Graphics/SVG/1.1/DTD/svg11.dtd">
<!-- Generated by graphviz version 9.0.0 (20230911.1827)
 -->
<!-- Title: /home/honeyguide/Desktop/MyOpenSource/facad/src/display_utils.c Pages: 1 -->
<!--zoomable 168 -->

<svg id="main" version="1.1" xmlns="http://www.w3.org/2000/svg" xmlns:xlink="http://www.w3.org/1999/xlink" xml:space="preserve" onload="init(evt)">
<style type="text/css"><![CDATA[
.node, .edge {opacity: 0.7;}
.node.selected, .edge.selected {opacity: 1;}
.edge:hover path { stroke: red; }
.edge:hover polygon { stroke: red; fill: red; }
]]></style>

<defs>
  <circle id="rim" cx="0" cy="0" r="7"/>
  <circle id="rim2" cx="0" cy="0" r="3.5"/>
  <g id="zoomPlus">
    <use xlink:href="#rim" fill="#404040"><set attributeName="fill" to="#808080" begin="zoomplus.mouseover" end="zoomplus.mouseout"/></use>
    <path d="M-4,0h8M0,-4v8" fill="none" stroke="white" stroke-width="1.5" pointer-events="none"/>
  </g>
  <g id="zoomMin">
    <use xlink:href="#rim" fill="#404040"><set attributeName="fill" to="#808080" begin="zoomminus.mouseover" end="zoomminus.mouseout"/></use>
    <path d="M-4,0h8" fill="none" stroke="white" stroke-width="1.5" pointer-events="none"/>
  </g>
  <g id="arrowUp" transform="translate(30 24)">
    <use xlink:href="#rim"/>
    <path pointer-events="none" fill="none" stroke="white" stroke-width="1.5" d="M0,-3.0v7 M-2.5,-0.5L0,-3.0L2.5,-0.5"/>
  </g>
  <g id="arrowRight" transform="rotate(90) translate(36 -43)">
    <use xlink:href="#rim"/>
    <path pointer-events="none" fill="none" stroke="white" stroke-width="1.5" d="M0,-3.0v7 M-2.5,-0.5L0,-3.0L2.5,-0.5"/>
  </g>
  <g id="arrowDown" transform="rotate(180) translate(-30 -48)">
    <use xlink:href="#rim"/>
    <path pointer-events="none" fill="none" stroke="white" stroke-width="1.5" d="M0,-3.0v7 M-2.5,-0.5L0,-3.0L2.5,-0.5"/>
  </g>
  <g id="arrowLeft" transform="rotate(270) translate(-36 17)">
    <use xlink:href="#rim"/>
    <path pointer-events="none" fill="none" stroke="white" stroke-width="1.5" d="M0,-3.0v7 M-2.5,-0.5L0,-3.0L2.5,-0.5"/>
  </g>
  <g id="resetDef">
    <use xlink:href="#rim2" fill="#404040"><set attributeName="fill" to="#808080" begin="reset.mouseover" end="reset.mouseout"/></use>
  </g>
</defs>
<script type="application/ecmascript">
var viewWidth = 719;
var viewHeight = 168;
var sectionId = 'dynsection-0';
</script>
<script type="application/ecmascript" xlink:href="../../svg.min.js"/>
<svg id="graph" class="graph">
<g id="viewport">
<title>/home/honeyguide/Desktop/MyOpenSource/facad/src/display_utils.c</title>
<!-- Node1 -->
<g id="Node000001" class="node">
<title>Node1</title>
<g id="a_Node000001"><a xlink:title="Implementation of display utilities for file entries.">
<polygon fill="#999999" stroke="#666666" points="409.12,-159.75 258.88,-159.75 258.88,-113.5 409.12,-113.5 409.12,-159.75"/>
<text text-anchor="start" x="266.88" y="-146.25" font-family="Helvetica,sans-Serif" font-size="10.00">/home/honeyguide/Desktop</text>
<text text-anchor="start" x="266.88" y="-133.5" font-family="Helvetica,sans-Serif" font-size="10.00">/MyOpenSource/facad/src</text>
<text text-anchor="middle" x="334" y="-120.75" font-family="Helvetica,sans-Serif" font-size="10.00">/display_utils.c</text>
</a>
</g>
</g>
<!-- Node2 -->
<g id="Node000002" class="node">
<title>Node2</title>
<g id="a_Node000002"><a xlink:title=" ">
<polygon fill="#e0e0e0" stroke="#999999" points="46,-77.5 0,-77.5 0,-56.75 46,-56.75 46,-77.5"/>
<text text-anchor="middle" x="23" y="-64" font-family="Helvetica,sans-Serif" font-size="10.00">glob.h</text>
</a>
</g>
</g>
<!-- Node1&#45;&gt;Node2 -->
<g id="edge1_Node000001_Node000002" class="edge">
<title>Node1&#45;&gt;Node2</title>
<g id="a_edge1_Node000001_Node000002"><a xlink:title=" ">
<path fill="none" stroke="#63b8ff" d="M258.44,-121.57C204.74,-111.2 130.73,-96.11 57.2,-77.91"/>
<polygon fill="#63b8ff" stroke="#63b8ff" points="58.38,-74.6 47.83,-75.57 56.68,-81.39 58.38,-74.6"/>
</a>
</g>
</g>
<!-- Node3 -->
<g id="Node000003" class="node">
<title>Node3</title>
<g id="a_Node000003"><a xlink:title=" ">
<polygon fill="#e0e0e0" stroke="#999999" points="113.5,-77.5 64.5,-77.5 64.5,-56.75 113.5,-56.75 113.5,-77.5"/>
<text text-anchor="middle" x="89" y="-64" font-family="Helvetica,sans-Serif" font-size="10.00">stdio.h</text>
</a>
</g>
</g>
<!-- Node1&#45;&gt;Node3 -->
<g id="edge2_Node000001_Node000003" class="edge">
<title>Node1&#45;&gt;Node3</title>
<g id="a_edge2_Node000001_Node000003"><a xlink:title=" ">
<path fill="none" stroke="#63b8ff" d="M258.4,-115.08C220.69,-104.79 174.1,-92.01 124.76,-78.26"/>
<polygon fill="#63b8ff" stroke="#63b8ff" points="125.89,-74.94 115.32,-75.62 124.01,-81.68 125.89,-74.94"/>
</a>
</g>
</g>
<!-- Node4 -->
<g id="Node000004" class="node">
<title>Node4</title>
<g id="a_Node000004"><a xlink:title=" ">
<polygon fill="#e0e0e0" stroke="#999999" points="184.75,-77.5 131.25,-77.5 131.25,-56.75 184.75,-56.75 184.75,-77.5"/>
<text text-anchor="middle" x="158" y="-64" font-family="Helvetica,sans-Serif" font-size="10.00">wchar.h</text>
</a>
</g>
</g>
<!-- Node1&#45;&gt;Node4 -->
<g id="edge3_Node000001_Node000004" class="edge">
<title>Node1&#45;&gt;Node4</title>
<g id="a_edge3_Node000001_Node000004"><a xlink:title=" ">
<path fill="none" stroke="#63b8ff" d="M275.39,-113.15C248.46,-102.82 217.38,-90.9 193.96,-81.92"/>
<polygon fill="#63b8ff" stroke="#63b8ff" points="195.47,-78.75 184.88,-78.43 192.96,-85.28 195.47,-78.75"/>
</a>
</g>
</g>
<!-- Node5 -->
<g id="Node000005" class="node">
<title>Node5</title>
<g id="a_Node000005"><a xlink:title=" ">
<polygon fill="#e0e0e0" stroke="#999999" points="255.38,-77.5 202.62,-77.5 202.62,-56.75 255.38,-56.75 255.38,-77.5"/>
<text text-anchor="middle" x="229" y="-64" font-family="Helvetica,sans-Serif" font-size="10.00">string.h</text>
</a>
</g>
</g>
<!-- Node1&#45;&gt;Node5 -->
<g id="edge4_Node000001_Node000005" class="edge">
<title>Node1&#45;&gt;Node5</title>
<g id="a_edge4_Node000001_Node000005"><a xlink:title=" ">
<path fill="none" stroke="#63b8ff" d="M299.04,-113.15C284.2,-103.61 267.26,-92.72 253.76,-84.04"/>
<polygon fill="#63b8ff" stroke="#63b8ff" points="255.77,-81.17 245.46,-78.71 251.98,-87.06 255.77,-81.17"/>
</a>
</g>
</g>
<!-- Node6 -->
<g id="Node000006" class="node">
<title>Node6</title>
<g id="a_Node000006"><a xlink:title=" ">
<polygon fill="#e0e0e0" stroke="#999999" points="325,-77.5 273,-77.5 273,-56.75 325,-56.75 325,-77.5"/>
<text text-anchor="middle" x="299" y="-64" font-family="Helvetica,sans-Serif" font-size="10.00">stdlib.h</text>
</a>
</g>
</g>
<!-- Node1&#45;&gt;Node6 -->
<g id="edge5_Node000001_Node000006" class="edge">
<title>Node1&#45;&gt;Node6</title>
<g id="a_edge5_Node000001_Node000006"><a xlink:title=" ">
<path fill="none" stroke="#63b8ff" d="M322.35,-113.15C318.13,-105.02 313.4,-95.9 309.31,-88"/>
<polygon fill="#63b8ff" stroke="#63b8ff" points="312.47,-86.5 304.76,-79.23 306.26,-89.72 312.47,-86.5"/>
</a>
</g>
</g>
<!-- Node7 -->
<g id="Node000007" class="node">
<title>Node7</title>
<g id="a_Node000007"><a xlink:title=" ">
<polygon fill="#e0e0e0" stroke="#999999" points="397.12,-77.5 342.88,-77.5 342.88,-56.75 397.12,-56.75 397.12,-77.5"/>
<text text-anchor="middle" x="370" y="-64" font-family="Helvetica,sans-Serif" font-size="10.00">locale.h</text>
</a>
</g>
</g>
<!-- Node1&#45;&gt;Node7 -->
<g id="edge6_Node000001_Node000007" class="edge">
<title>Node1&#45;&gt;Node7</title>
<g id="a_edge6_Node000001_Node000007"><a xlink:title=" ">
<path fill="none" stroke="#63b8ff" d="M345.99,-113.15C350.32,-105.02 355.19,-95.9 359.4,-88"/>
<polygon fill="#63b8ff" stroke="#63b8ff" points="362.46,-89.7 364.08,-79.23 356.29,-86.4 362.46,-89.7"/>
</a>
</g>
</g>
<!-- Node8 -->
<g id="Node000008" class="node">
<title>Node8</title>
<g id="a_Node000008"><a xlink:href="../../d5/d36/file__card_8h.html" target="_top" xlink:title="Header file for file entry handling functions and structures.">
<polygon fill="white" stroke="#666666" points="631.12,-20.75 564.88,-20.75 564.88,0 631.12,0 631.12,-20.75"/>
<text text-anchor="middle" x="598" y="-7.25" font-family="Helvetica,sans-Serif" font-size="10.00">file_card.h</text>
</a>
</g>
</g>
<!-- Node1&#45;&gt;Node8 -->
<g id="edge7_Node000001_Node000008" class="edge">
<title>Node1&#45;&gt;Node8</title>
<g id="a_edge7_Node000001_Node000008"><a xlink:title=" ">
<path fill="none" stroke="#63b8ff" d="M401.81,-113.02C429.06,-103.17 460.48,-90.83 488,-77.5 504.63,-69.45 545.86,-44.08 572.85,-27.21"/>
<polygon fill="#63b8ff" stroke="#63b8ff" points="574.52,-30.3 581.14,-22.02 570.81,-24.37 574.52,-30.3"/>
</a>
</g>
</g>
<!-- Node9 -->
<g id="Node000009" class="node">
<title>Node9</title>
<g id="a_Node000009"><a xlink:href="../../db/d45/git__utils_8h.html" target="_top" xlink:title="Header file for Git utility functions used in facad.">
<polygon fill="white" stroke="#666666" points="479,-77.5 415,-77.5 415,-56.75 479,-56.75 479,-77.5"/>
<text text-anchor="middle" x="447" y="-64" font-family="Helvetica,sans-Serif" font-size="10.00">git_utils.h</text>
</a>
</g>
</g>
<!-- Node1&#45;&gt;Node9 -->
<g id="edge8_Node000001_Node000009" class="edge">
<title>Node1&#45;&gt;Node9</title>
<g id="a_edge8_Node000001_Node000009"><a xlink:title=" ">
<path fill="none" stroke="#63b8ff" d="M371.63,-113.15C387.75,-103.52 406.18,-92.51 420.78,-83.79"/>
<polygon fill="#63b8ff" stroke="#63b8ff" points="422.56,-86.8 429.35,-78.67 418.97,-80.79 422.56,-86.8"/>
</a>
</g>
</g>
<!-- Node11 -->
<g id="Node000011" class="node">
<title>Node11</title>
<g id="a_Node000011"><a xlink:href="../../d4/d6f/dir__config_8h.html" target="_top" xlink:title="Header file for directory&#45;specific configurations.">
<polygon fill="white" stroke="#666666" points="607.12,-77.5 534.88,-77.5 534.88,-56.75 607.12,-56.75 607.12,-77.5"/>
<text text-anchor="middle" x="571" y="-64" font-family="Helvetica,sans-Serif" font-size="10.00">dir_config.h</text>
</a>
</g>
</g>
<!-- Node1&#45;&gt;Node11 -->
<g id="edge10_Node000001_Node000011" class="edge">
<title>Node1&#45;&gt;Node11</title>
<g id="a_edge10_Node000001_Node000011"><a xlink:title=" ">
<path fill="none" stroke="#63b8ff" d="M409.31,-114.17C447.67,-103.25 493.03,-90.33 525.92,-80.96"/>
<polygon fill="#63b8ff" stroke="#63b8ff" points="526.46,-84.45 535.12,-78.34 524.54,-77.72 526.46,-84.45"/>
</a>
</g>
</g>
<!-- Node12 -->
<g id="Node000012" class="node">
<title>Node12</title>
<g id="a_Node000012"><a xlink:href="../../d3/df8/display__utils_8h.html" target="_top" xlink:title=" ">
<polygon fill="white" stroke="#666666" points="711.25,-77.5 624.75,-77.5 624.75,-56.75 711.25,-56.75 711.25,-77.5"/>
<text text-anchor="middle" x="668" y="-64" font-family="Helvetica,sans-Serif" font-size="10.00">display_utils.h</text>
</a>
</g>
</g>
<!-- Node1&#45;&gt;Node12 -->
<g id="edge11_Node000001_Node000012" class="edge">
<title>Node1&#45;&gt;Node12</title>
<g id="a_edge11_Node000001_Node000012"><a xlink:title=" ">
<path fill="none" stroke="#63b8ff" d="M409.37,-120.39C471.47,-107.84 558.06,-90.34 613.58,-79.12"/>
<polygon fill="#63b8ff" stroke="#63b8ff" points="614,-82.61 623.11,-77.2 612.61,-75.75 614,-82.61"/>
</a>
</g>
</g>
<!-- Node10 -->
<g id="Node000010" class="node">
<title>Node10</title>
<g id="a_Node000010"><a xlink:title=" ">
<polygon fill="#e0e0e0" stroke="#999999" points="477.5,-20.75 416.5,-20.75 416.5,0 477.5,0 477.5,-20.75"/>
<text text-anchor="middle" x="447" y="-7.25" font-family="Helvetica,sans-Serif" font-size="10.00">stdbool.h</text>
</a>
</g>
</g>
<!-- Node9&#45;&gt;Node10 -->
<g id="edge9_Node000009_Node000010" class="edge">
<title>Node9&#45;&gt;Node10</title>
<g id="a_edge9_Node000009_Node000010"><a xlink:title=" ">
<path fill="none" stroke="#63b8ff" d="M447,-56.34C447,-49.72 447,-40.72 447,-32.52"/>
<polygon fill="#63b8ff" stroke="#63b8ff" points="450.5,-32.59 447,-22.59 443.5,-32.59 450.5,-32.59"/>
</a>
</g>
</g>
<!-- Node12&#45;&gt;Node8 -->
<g id="edge12_Node000012_Node000008" class="edge">
<title>Node12&#45;&gt;Node8</title>
<g id="a_edge12_Node000012_Node000008"><a xlink:title=" ">
<path fill="none" stroke="#63b8ff" d="M655.49,-56.34C645.43,-48.47 631.09,-37.25 619.24,-27.99"/>
<polygon fill="#63b8ff" stroke="#63b8ff" points="621.63,-25.41 611.6,-22.01 617.32,-30.93 621.63,-25.41"/>
</a>
</g>
</g>
</g>
</svg>

<g id="navigator" transform="translate(0 0)" fill="#404254">
  <rect fill="#f2f5e9" fill-opacity="0.5" stroke="#606060" stroke-width=".5" x="0" y="0" width="60" height="60"/>
  <use id="zoomplus" xlink:href="#zoomPlus" x="17" y="9" onmousedown="handleZoom(evt,'in')"/>
  <use id="zoomminus" xlink:href="#zoomMin" x="42" y="9" onmousedown="handleZoom(evt,'out')"/>
  <use id="reset" xlink:href="#resetDef" x="30" y="36" onmousedown="handleReset()"/>
   <use id="arrowup" xlink:href="#arrowUp" x="0" y="0" onmousedown="handlePan(0,-1)"/>
  <use id="arrowright" xlink:href="#arrowRight" x="0" y="0" onmousedown="handlePan(1,0)"/>
  <use id="arrowdown" xlink:href="#arrowDown" x="0" y="0" onmousedown="handlePan(0,1)"/>
  <use id="arrowleft" xlink:href="#arrowLeft" x="0" y="0" onmousedown="handlePan(-1,0)"/>
</g>
<svg viewBox="0 0 15 15" width="100%" height="30px" preserveAspectRatio="xMaxYMin meet">
 <g id="arrow_out" transform="scale(0.3 0.3)">
  <a xlink:href="display__utils_8c__incl_org.svg" target="_base">
   <rect id="button" ry="5" rx="5" y="6" x="6" height="38" width="38"
        fill="#f2f5e9" fill-opacity="0.5" stroke="#606060" stroke-width="1.0"/>
   <path id="arrow"
     d="M 11.500037,31.436501 C 11.940474,20.09759 22.043105,11.32322 32.158766,21.979434 L 37.068811,17.246167 C 37.068811,17.246167 37.088388,32 37.088388,32 L 22.160133,31.978069 C 22.160133,31.978069 26.997745,27.140456 26.997745,27.140456 C 18.528582,18.264221 13.291696,25.230495 11.500037,31.436501 z"
     style="fill:#404040;"/>
  </a>
 </g>
</svg>

<style type='text/css'>
<![CDATA[
[data-mouse-over-selected='false'] { opacity: 0.7; }
[data-mouse-over-selected='true']  { opacity: 1.0; }
]]>
</style>
<script type="application/ecmascript"><![CDATA[
document.addEventListener('DOMContentLoaded', (event) => {
  highlightEdges();
  highlightAdjacentNodes();
});
]]></script>
</svg>
