<?xml version="1.0" encoding="UTF-8" standalone="no"?>
<!DOCTYPE svg PUBLIC "-//W3C//DTD SVG 1.1//EN"
 "http://www.w3.org/Graphics/SVG/1.1/DTD/svg11.dtd">
<!-- Generated by graphviz version 9.0.0 (20230911.1827)
 -->
<!-- Title: integrate_git_status Pages: 1 -->
<svg width="461pt" height="48pt"
 viewBox="0.00 0.00 460.50 47.75" xmlns="http://www.w3.org/2000/svg" xmlns:xlink="http://www.w3.org/1999/xlink">
<g id="graph0" class="graph" transform="scale(1 1) rotate(0) translate(4 43.75)">
<title>integrate_git_status</title>
<!-- Node1 -->
<g id="Node000001" class="node">
<title>Node1</title>
<g id="a_Node000001"><a xlink:title="Integrates Git status information into file entries.">
<polygon fill="#999999" stroke="#666666" points="452.5,-39.75 339,-39.75 339,-19 452.5,-19 452.5,-39.75"/>
<text text-anchor="middle" x="395.75" y="-26.25" font-family="Helvetica,sans-Serif" font-size="10.00">integrate_git_status</text>
</a>
</g>
</g>
<!-- Node2 -->
<g id="Node000002" class="node">
<title>Node2</title>
<g id="a_Node000002"><a xlink:href="../../d0/d29/main_8c.html#acc392fbd2ea6b07ebcc2b9c089aae2ca" target="_top" xlink:title="Processes directory entries and populates the entries array.">
<polygon fill="white" stroke="#666666" points="303,-39.75 200.75,-39.75 200.75,-19 303,-19 303,-39.75"/>
<text text-anchor="middle" x="251.88" y="-26.25" font-family="Helvetica,sans-Serif" font-size="10.00">process_directory</text>
</a>
</g>
</g>
<!-- Node1&#45;&gt;Node2 -->
<g id="edge1_Node000001_Node000002" class="edge">
<title>Node1&#45;&gt;Node2</title>
<g id="a_edge1_Node000001_Node000002"><a xlink:title=" ">
<path fill="none" stroke="#63b8ff" d="M327.39,-29.38C319.34,-29.38 311.23,-29.38 303.48,-29.38"/>
<polygon fill="#63b8ff" stroke="#63b8ff" points="327.16,-32.88 337.16,-29.38 327.16,-25.88 327.16,-32.88"/>
</a>
</g>
</g>
<!-- Node3 -->
<g id="Node000003" class="node">
<title>Node3</title>
<g id="a_Node000003"><a xlink:href="../../d0/d29/main_8c.html#a0ddf1224851353fc92bfbff6f499fa97" target="_top" xlink:title="Main function of the facad program.">
<polygon fill="white" stroke="#666666" points="40.75,-39.75 0,-39.75 0,-19 40.75,-19 40.75,-39.75"/>
<text text-anchor="middle" x="20.38" y="-26.25" font-family="Helvetica,sans-Serif" font-size="10.00">main</text>
</a>
</g>
</g>
<!-- Node2&#45;&gt;Node3 -->
<g id="edge2_Node000002_Node000003" class="edge">
<title>Node2&#45;&gt;Node3</title>
<g id="a_edge2_Node000002_Node000003"><a xlink:title=" ">
<path fill="none" stroke="#63b8ff" d="M189,-29.38C139.71,-29.38 73.76,-29.38 41.23,-29.38"/>
<polygon fill="#63b8ff" stroke="#63b8ff" points="189,-32.88 199,-29.38 189,-25.88 189,-32.88"/>
</a>
</g>
</g>
<!-- Node4 -->
<g id="Node000004" class="node">
<title>Node4</title>
<g id="a_Node000004"><a xlink:href="../../d0/d29/main_8c.html#ae7d3bb334fabeeccc7dfb05e7f968d47" target="_top" xlink:title="Processes a single target (directory, file, or pattern).">
<polygon fill="white" stroke="#666666" points="164.75,-20.75 76.75,-20.75 76.75,0 164.75,0 164.75,-20.75"/>
<text text-anchor="middle" x="120.75" y="-7.25" font-family="Helvetica,sans-Serif" font-size="10.00">process_target</text>
</a>
</g>
</g>
<!-- Node2&#45;&gt;Node4 -->
<g id="edge3_Node000002_Node000004" class="edge">
<title>Node2&#45;&gt;Node4</title>
<g id="a_edge3_Node000002_Node000004"><a xlink:title=" ">
<path fill="none" stroke="#63b8ff" d="M189.42,-20.33C181.16,-19.12 172.84,-17.89 164.99,-16.74"/>
<polygon fill="#63b8ff" stroke="#63b8ff" points="188.68,-23.76 199.08,-21.75 189.7,-16.84 188.68,-23.76"/>
</a>
</g>
</g>
<!-- Node4&#45;&gt;Node3 -->
<g id="edge4_Node000004_Node000003" class="edge">
<title>Node4&#45;&gt;Node3</title>
<g id="a_edge4_Node000004_Node000003"><a xlink:title=" ">
<path fill="none" stroke="#63b8ff" d="M65.07,-20.94C56.55,-22.58 48.25,-24.18 41.21,-25.54"/>
<polygon fill="#63b8ff" stroke="#63b8ff" points="65.67,-24.38 74.83,-19.05 64.35,-17.51 65.67,-24.38"/>
</a>
</g>
</g>
</g>
</svg>
